{"glyphs":{"0":{"ha":847,"x_min":0,"x_max":0,"o":"m 771 492 b 748 707 771 571 763 643 b 681 869 733 771 710 825 b 573 972 652 914 616 948 b 425 1008 530 996 481 1008 b 276 972 369 1008 320 996 b 167 869 233 948 196 914 b 99 707 137 825 115 771 b 76 492 84 643 76 571 b 99 276 76 412 84 340 b 167 114 115 213 137 158 b 276 11 196 69 233 35 b 425 -25 320 -13 369 -25 b 573 11 481 -25 530 -13 b 681 114 616 35 652 69 b 748 276 710 158 733 213 b 771 492 763 340 771 412 z m 600 492 b 594 375 600 457 598 419 b 569 253 590 331 581 291 b 515 156 556 215 538 183 b 425 117 492 130 462 117 b 333 156 387 117 356 130 b 280 253 310 183 292 215 b 254 375 267 291 259 331 b 247 492 250 419 247 457 b 254 608 247 526 250 565 b 280 732 259 652 267 693 b 333 830 292 771 310 803 b 425 869 356 856 387 869 b 515 830 462 869 492 856 b 569 732 538 803 556 771 b 594 608 581 693 590 652 b 600 492 598 565 600 526 z "},"1":{"ha":847,"x_min":0,"x_max":0,"o":"m 388 781 l 388 0 l 554 0 l 554 983 l 403 983 l 96 736 l 193 621 z "},"2":{"ha":847,"x_min":0,"x_max":0,"o":"m 96 153 l 96 0 l 750 0 l 750 153 l 307 153 l 590 424 b 652 487 613 444 633 465 b 702 556 671 509 688 531 b 736 633 716 580 728 605 b 749 721 744 660 749 689 b 722 845 749 768 740 809 b 649 935 703 881 679 911 b 544 990 618 960 583 978 b 421 1008 504 1002 463 1008 b 295 987 375 1008 334 1001 b 194 928 257 972 223 953 b 124 839 166 903 142 873 b 89 726 105 805 94 767 l 251 701 b 304 822 258 750 275 790 b 418 869 333 853 371 869 b 530 828 463 869 500 856 b 575 718 560 801 575 764 b 548 615 575 679 566 645 b 475 525 530 584 506 555 z "},"3":{"ha":847,"x_min":0,"x_max":0,"o":"m 294 579 l 294 446 l 336 446 b 417 438 362 446 389 443 b 494 410 446 432 471 423 b 552 359 518 398 537 381 b 575 279 567 337 575 311 b 559 204 575 250 570 225 b 517 154 548 184 534 167 b 459 126 500 141 481 132 b 394 117 437 120 416 117 b 266 157 342 117 299 130 b 199 256 233 184 211 217 l 43 207 b 98 101 56 166 74 131 b 180 29 122 72 149 48 b 282 -12 211 11 245 -3 b 400 -25 319 -21 358 -25 b 524 -6 442 -25 483 -19 b 634 50 564 6 601 25 b 713 144 667 75 693 106 b 743 278 733 182 743 227 b 687 433 743 339 724 391 b 540 514 649 475 600 502 l 540 517 b 669 598 594 530 637 557 b 717 739 701 639 717 686 b 692 856 717 783 708 822 b 623 940 675 889 652 917 b 522 991 594 962 560 979 b 400 1008 483 1003 443 1008 b 289 992 361 1008 324 1003 b 194 945 254 981 222 965 b 122 874 166 925 141 902 b 79 783 102 847 88 817 l 236 743 b 292 835 246 781 265 812 b 393 869 319 858 352 869 b 452 860 413 869 433 866 b 502 832 471 853 488 844 b 536 788 516 820 528 805 b 549 728 544 770 549 750 b 530 653 549 697 542 672 b 481 608 517 634 501 619 b 413 585 460 597 438 590 b 339 579 389 581 364 579 z "},"4":{"ha":847,"x_min":0,"x_max":0,"o":"m 483 204 l 483 0 l 647 0 l 647 204 l 785 204 l 785 347 l 647 347 l 647 983 l 447 983 l 29 351 l 29 204 z m 483 788 l 483 347 l 201 347 l 481 788 z "},"5":{"ha":847,"x_min":0,"x_max":0,"o":"m 701 833 l 701 983 l 142 983 l 125 446 b 176 467 140 453 157 460 b 234 484 195 473 214 479 b 295 496 254 489 274 493 b 354 500 316 499 336 500 b 433 491 381 500 407 497 b 503 459 459 485 483 474 b 554 399 524 444 541 424 b 574 304 567 374 574 342 b 559 224 574 275 569 248 b 519 165 549 201 536 181 b 461 129 503 150 483 138 b 390 117 439 121 415 117 b 275 152 346 117 307 128 b 206 246 243 176 219 207 l 54 190 b 178 33 80 124 121 71 b 386 -25 234 -6 304 -25 b 525 -1 435 -25 481 -17 b 639 67 569 14 606 37 b 716 176 671 96 697 133 b 744 322 735 219 744 268 b 719 455 744 372 736 416 b 647 552 702 493 678 526 b 540 613 617 578 581 599 b 406 633 498 626 454 633 b 347 631 388 633 368 632 b 290 621 325 629 306 625 l 300 833 z "},"6":{"ha":847,"x_min":0,"x_max":0,"o":"m 613 983 l 410 983 l 164 603 b 122 531 148 578 134 554 b 90 462 109 507 98 484 b 69 391 81 439 74 416 b 63 313 65 366 63 340 b 90 180 63 265 72 221 b 165 72 108 139 133 103 b 279 1 198 42 236 18 b 422 -25 323 -16 370 -25 b 563 -1 472 -25 519 -17 b 677 69 607 16 645 39 b 753 178 709 99 734 135 b 781 319 771 220 781 268 b 756 444 781 364 772 405 b 689 544 740 482 718 516 b 589 610 660 572 627 594 b 467 635 551 627 510 635 b 412 631 450 635 432 633 b 363 618 392 628 375 624 l 361 619 z m 232 308 b 246 388 232 337 237 363 b 285 449 255 412 268 432 b 347 489 303 466 323 480 b 424 503 370 498 396 503 b 499 488 451 503 477 498 b 558 449 522 478 542 465 b 597 388 575 432 588 412 b 610 311 605 365 610 339 b 558 170 610 253 592 206 b 421 117 523 134 477 117 b 343 132 392 117 366 122 b 283 174 320 142 300 156 b 245 235 267 191 254 212 b 232 308 236 258 232 282 z "},"7":{"ha":847,"x_min":0,"x_max":0,"o":"m 71 983 l 71 833 l 564 833 l 150 0 l 346 0 l 739 831 l 739 983 z "},"8":{"ha":847,"x_min":0,"x_max":0,"o":"m 424 1008 b 302 989 380 1008 340 1002 b 203 934 265 976 232 958 b 137 848 175 910 153 882 b 113 735 121 814 113 776 b 156 596 113 677 127 631 b 265 519 184 561 221 535 l 265 517 b 196 487 241 510 218 500 b 137 436 174 473 154 456 b 96 365 120 416 106 392 b 81 278 86 338 81 309 b 108 148 81 229 90 185 b 181 53 126 110 150 79 b 290 -6 212 27 249 7 b 424 -25 332 -19 376 -25 b 557 -6 471 -25 515 -19 b 666 53 599 7 635 27 b 740 148 697 79 722 110 b 767 278 758 185 767 229 b 752 363 767 308 762 337 b 713 433 742 388 729 412 b 654 485 696 453 676 471 b 582 517 632 500 608 510 l 582 519 b 692 599 626 534 663 561 b 735 742 720 637 735 684 b 710 853 735 783 727 821 b 644 938 694 886 672 914 b 544 990 616 961 582 978 b 424 1008 506 1002 466 1008 z m 424 871 b 477 861 442 871 460 868 b 523 833 494 855 509 845 b 555 790 536 821 547 807 b 567 732 563 772 567 753 b 556 676 567 713 563 694 b 525 631 548 659 538 644 b 479 600 512 618 497 607 b 424 589 462 593 443 589 b 320 631 380 589 346 603 b 282 732 295 658 282 692 b 322 833 282 775 295 808 b 424 871 348 858 382 871 z m 424 447 b 490 435 447 447 469 443 b 544 400 510 426 528 415 b 580 347 559 385 571 367 b 593 279 589 326 593 303 b 544 158 593 227 577 187 b 424 115 512 130 472 115 b 301 158 375 115 334 130 b 253 279 269 187 253 227 b 266 348 253 304 257 327 b 302 401 275 369 287 386 b 356 435 317 415 335 426 b 424 447 377 443 400 447 z "},"9":{"ha":847,"x_min":0,"x_max":0,"o":"m 233 0 l 436 0 l 682 381 b 724 453 698 406 712 430 b 756 522 737 476 747 499 b 776 592 765 544 772 568 b 783 671 781 617 783 643 b 756 803 783 718 774 762 b 681 911 738 845 713 881 b 566 983 648 942 610 966 b 424 1008 522 1000 475 1008 b 283 984 374 1008 327 1000 b 169 915 239 968 201 945 b 93 806 137 884 112 848 b 65 664 75 763 65 716 b 90 540 65 619 73 578 b 157 440 106 501 128 468 b 257 373 186 411 219 389 b 379 349 295 357 336 349 b 434 353 396 349 414 350 b 485 367 454 356 471 360 l 486 365 z m 614 675 b 600 596 614 646 609 620 b 560 534 591 572 578 551 b 499 494 543 517 523 504 b 422 481 476 485 450 481 b 347 495 394 481 369 485 b 288 535 324 505 304 518 b 249 595 271 551 258 572 b 236 672 241 619 236 644 b 288 815 236 731 253 778 b 425 869 323 851 369 869 b 503 853 454 869 480 864 b 563 810 526 843 546 828 b 601 749 579 792 592 772 b 614 675 609 725 614 701 z "},"\u0000":{"ha":694,"x_min":0,"x_max":0,"o":""},"\r":{"ha":0,"x_min":0,"x_max":0,"o":""}," ":{"ha":347,"x_min":0,"x_max":0,"o":""},"!":{"ha":472,"x_min":0,"x_max":0,"o":"m 319 308 l 319 983 l 153 983 l 153 308 z m 125 97 b 134 56 125 82 128 69 b 158 22 140 43 148 31 b 194 0 169 13 180 6 b 236 -8 207 -6 221 -8 b 315 24 267 -8 293 2 b 347 100 336 45 347 70 b 314 175 347 130 336 155 b 236 206 292 195 266 206 b 158 174 206 206 179 195 b 125 97 136 152 125 127 z "},"\"":{"ha":638,"x_min":0,"x_max":0,"o":"m 125 983 l 125 617 l 267 617 l 267 983 z m 371 983 l 371 617 l 513 617 l 513 983 z "},"#":{"ha":822,"x_min":0,"x_max":0,"o":"m 190 290 l 149 0 l 269 0 l 311 290 l 456 290 l 414 0 l 535 0 l 578 290 l 717 290 l 717 407 l 592 407 l 615 576 l 757 576 l 757 693 l 632 693 l 674 983 l 553 983 l 511 693 l 368 693 l 410 983 l 288 983 l 246 693 l 106 693 l 106 576 l 231 576 l 206 407 l 65 407 l 65 290 z m 351 576 l 494 576 l 471 407 l 328 407 z "},"$":{"ha":847,"x_min":0,"x_max":0,"o":"m 458 1000 l 458 1092 l 383 1092 l 383 997 b 276 973 346 994 310 986 b 183 918 241 959 210 941 b 117 834 155 895 134 867 b 93 722 101 801 93 764 b 115 609 93 678 100 640 b 177 529 130 578 151 551 b 269 474 203 507 234 489 b 383 436 305 460 343 447 l 383 128 b 274 158 348 129 312 139 b 179 231 236 177 204 201 l 57 114 b 208 19 101 71 152 40 b 383 -15 264 -2 322 -13 l 383 -115 l 458 -115 l 458 -15 b 570 6 497 -14 534 -7 b 665 62 606 19 637 37 b 730 153 692 86 714 117 b 754 281 746 190 754 232 b 728 400 754 328 745 368 b 659 483 710 432 687 460 b 564 539 631 505 599 524 b 458 578 529 554 494 567 l 458 858 b 555 840 491 858 523 852 b 635 785 587 827 613 809 l 747 901 b 613 974 709 934 664 958 b 458 1000 561 991 509 999 z m 383 858 l 383 597 b 295 642 348 607 319 622 b 260 731 272 662 260 692 b 297 822 260 771 272 802 b 383 858 322 843 351 855 z m 458 128 l 458 414 b 551 363 495 401 526 384 b 588 271 575 342 588 312 b 552 169 588 229 576 195 b 458 128 528 144 497 130 z "},"%":{"ha":1292,"x_min":0,"x_max":0,"o":"m 719 242 b 740 141 719 206 726 172 b 795 59 753 110 772 83 b 877 3 819 35 846 17 b 978 -17 908 -10 942 -17 b 1078 3 1014 -17 1047 -10 b 1160 59 1109 17 1137 35 b 1216 141 1184 83 1203 110 b 1236 242 1229 172 1236 206 b 1216 342 1236 278 1229 311 b 1160 424 1203 373 1184 401 b 1078 480 1137 448 1109 466 b 978 500 1047 493 1014 500 b 877 480 942 500 908 493 b 795 424 846 466 819 448 b 740 342 772 401 753 373 b 719 242 726 311 719 278 z m 1103 242 b 1067 153 1103 206 1091 177 b 978 117 1043 129 1013 117 b 889 153 943 117 913 129 b 853 242 865 177 853 206 b 889 331 853 277 865 306 b 978 367 913 355 943 367 b 1067 331 1013 367 1043 355 b 1103 242 1091 306 1103 277 z m 56 742 b 76 641 56 706 62 672 b 131 559 89 610 108 583 b 213 503 155 535 182 517 b 314 483 244 490 278 483 b 415 503 350 483 384 490 b 497 559 446 517 473 535 b 552 641 520 583 539 610 b 572 742 566 672 572 706 b 552 842 572 778 566 811 b 497 924 539 873 520 901 b 415 980 473 948 446 966 b 314 1000 384 993 350 1000 b 213 980 278 1000 244 993 b 131 924 182 966 155 948 b 76 842 108 901 89 873 b 56 742 62 811 56 778 z m 439 742 b 403 653 439 706 427 677 b 314 617 379 629 349 617 b 225 653 279 617 249 629 b 189 742 201 677 189 706 b 225 831 189 777 201 806 b 314 867 249 855 279 867 b 403 831 349 867 379 855 b 439 742 427 806 439 777 z m 876 1028 l 299 8 l 414 -44 l 992 975 z "},"&":{"ha":1029,"x_min":0,"x_max":0,"o":"m 792 235 l 989 519 l 799 519 l 685 340 l 524 508 b 602 553 551 521 578 536 b 666 610 627 569 648 589 b 709 683 684 632 698 656 b 725 769 720 709 725 738 b 702 874 725 809 717 844 b 642 949 687 904 667 929 b 555 994 617 969 588 984 b 453 1008 522 1003 488 1008 b 352 994 419 1008 385 1004 b 263 951 319 985 290 971 b 199 875 237 931 216 906 b 175 767 183 844 175 808 b 203 649 175 724 184 685 b 281 546 222 614 248 579 b 201 503 253 534 226 519 b 133 443 175 486 153 466 b 85 365 113 420 97 394 b 67 267 73 335 67 303 b 94 142 67 219 76 178 b 166 53 112 107 136 77 b 271 -1 196 29 231 11 b 396 -19 311 -13 352 -19 b 572 18 467 -19 526 -7 b 690 113 619 43 658 75 l 799 0 l 1021 0 z m 456 874 b 538 841 489 874 516 863 b 569 764 559 819 569 794 b 558 713 569 745 566 728 b 528 669 551 697 541 682 b 483 635 515 656 500 645 b 428 607 466 625 447 615 b 363 683 400 632 378 657 b 340 764 348 709 340 736 b 374 843 340 796 351 823 b 456 874 396 863 423 874 z m 375 439 l 585 221 b 506 146 561 188 534 163 b 401 119 477 128 442 119 b 344 130 383 119 364 123 b 292 160 325 137 307 147 b 253 208 276 173 263 189 b 239 274 244 228 239 250 b 250 335 239 297 243 317 b 280 382 257 353 267 369 b 323 415 292 395 307 406 b 375 439 339 425 356 432 z "},"'":{"ha":392,"x_min":0,"x_max":0,"o":"m 125 983 l 125 617 l 267 617 l 267 983 z "},"(":{"ha":458,"x_min":0,"x_max":0,"o":"m 50 400 b 103 72 50 286 68 177 b 253 -217 139 -32 189 -129 l 369 -140 b 240 116 314 -62 271 23 b 193 400 209 209 193 304 b 240 684 193 496 209 591 b 369 940 271 777 314 863 l 253 1017 b 103 728 189 929 139 832 b 50 400 68 623 50 514 z "},")":{"ha":458,"x_min":0,"x_max":0,"o":"m 408 400 b 355 728 408 514 391 623 b 206 1017 319 832 269 929 l 89 940 b 219 684 144 863 188 777 b 265 400 250 591 265 496 b 219 116 265 304 250 209 b 89 -140 188 23 144 -62 l 206 -217 b 355 72 269 -129 319 -32 b 408 400 391 177 408 286 z "},"*":{"ha":643,"x_min":0,"x_max":0,"o":"m 381 786 l 381 983 l 264 983 l 264 786 l 75 851 l 39 740 l 229 675 l 110 518 l 203 447 l 319 607 l 439 443 l 535 513 l 415 675 l 604 736 l 568 847 z "},"+":{"ha":925,"x_min":0,"x_max":0,"o":"m 392 492 l 86 492 l 86 350 l 392 350 l 392 44 l 533 44 l 533 350 l 839 350 l 839 492 l 533 492 l 533 797 l 392 797 z "},",":{"ha":361,"x_min":0,"x_max":0,"o":"m 131 192 l 33 -175 l 174 -175 l 292 192 z "},"-":{"ha":444,"x_min":0,"x_max":0,"o":"m 389 271 l 389 413 l 56 413 l 56 271 z "},".":{"ha":361,"x_min":0,"x_max":0,"o":"m 69 97 b 78 56 69 82 72 69 b 103 22 84 43 93 31 b 138 0 113 13 125 6 b 181 -8 152 -6 166 -8 b 259 24 211 -8 237 2 b 292 100 281 45 292 70 b 258 175 292 130 281 155 b 181 206 236 195 210 206 b 102 174 150 206 124 195 b 69 97 80 152 69 127 z "},"/":{"ha":540,"x_min":0,"x_max":0,"o":"m 103 -67 l 536 1008 l 421 1053 l -12 -25 z "},":":{"ha":417,"x_min":0,"x_max":0,"o":"m 97 97 b 106 56 97 82 100 69 b 131 22 112 43 120 31 b 166 0 141 13 153 6 b 208 -8 179 -6 194 -8 b 287 24 239 -8 265 2 b 319 100 309 45 319 70 b 286 175 319 130 308 155 b 208 206 264 195 238 206 b 130 174 178 206 152 195 b 97 97 108 152 97 127 z m 97 567 b 106 525 97 552 100 538 b 131 492 112 512 120 501 b 166 469 141 482 153 475 b 208 461 179 464 194 461 b 287 493 239 461 265 472 b 319 569 309 514 319 540 b 286 644 319 599 308 624 b 208 675 264 665 238 675 b 130 643 178 675 152 664 b 97 567 108 622 97 596 z "},";":{"ha":417,"x_min":0,"x_max":0,"o":"m 153 192 l 56 -175 l 204 -175 l 322 192 z m 97 568 b 106 526 97 553 100 539 b 131 493 112 513 120 502 b 166 471 141 484 153 476 b 208 463 179 465 194 463 b 287 494 239 463 265 473 b 319 571 309 516 319 541 b 286 646 319 600 308 625 b 208 676 264 666 238 676 b 130 644 178 676 152 666 b 97 568 108 623 97 598 z "},"<":{"ha":925,"x_min":0,"x_max":0,"o":"m 111 371 l 814 58 l 814 211 l 344 421 l 814 631 l 814 783 l 111 471 z "},"=":{"ha":925,"x_min":0,"x_max":0,"o":"m 814 617 l 111 617 l 111 475 l 814 475 z m 814 367 l 111 367 l 111 225 l 814 225 z "},">":{"ha":925,"x_min":0,"x_max":0,"o":"m 814 471 l 111 783 l 111 631 l 581 421 l 111 211 l 111 58 l 814 371 z "},"?":{"ha":721,"x_min":0,"x_max":0,"o":"m 292 290 l 456 290 l 456 326 b 460 378 456 347 457 364 b 474 417 463 392 467 405 b 502 453 481 429 491 441 b 547 494 514 465 529 479 b 605 548 569 513 588 531 b 649 601 622 565 637 583 b 676 663 661 620 670 640 b 686 740 683 685 686 711 b 663 856 686 784 678 822 b 598 940 647 889 625 917 b 503 991 571 962 539 979 b 390 1008 468 1003 430 1008 b 271 990 348 1008 308 1002 b 172 935 234 977 201 959 b 102 847 144 911 120 881 b 67 728 84 812 72 772 l 238 713 b 249 767 238 731 242 749 b 277 813 255 784 265 800 b 322 845 290 827 304 837 b 379 857 339 853 358 857 b 476 820 421 857 453 845 b 510 729 498 796 510 765 b 491 658 510 701 503 678 b 446 606 478 639 463 621 l 383 546 b 340 499 366 529 351 513 b 312 453 328 484 319 469 b 297 403 305 437 300 420 b 292 343 293 385 292 365 z m 264 97 b 273 56 264 82 267 69 b 297 22 279 43 287 31 b 333 0 307 13 319 6 b 375 -8 346 -6 360 -8 b 453 24 406 -8 432 2 b 486 100 475 45 486 70 b 453 175 486 130 475 155 b 375 206 431 195 405 206 b 297 174 344 206 318 195 b 264 97 275 152 264 127 z "},"@":{"ha":1111,"x_min":0,"x_max":0,"o":"m 572 649 b 617 638 590 649 605 645 b 645 609 629 630 638 621 b 660 570 652 597 657 584 b 664 526 663 556 664 541 b 656 465 664 508 661 488 b 632 403 651 443 643 422 b 589 356 621 384 606 369 b 525 338 571 344 550 338 b 481 348 506 338 492 341 b 453 374 469 355 460 364 b 440 409 447 385 442 397 b 436 444 437 422 436 433 b 445 514 436 467 439 490 b 472 580 451 538 460 560 b 514 629 483 600 497 616 b 572 649 531 642 550 649 z m 1007 143 l 931 226 b 781 126 885 184 835 150 b 588 90 727 102 663 90 b 422 118 527 90 472 100 b 293 198 372 137 329 163 b 209 324 257 233 229 275 b 179 489 189 373 179 428 b 208 649 179 546 189 600 b 288 778 227 699 253 742 b 412 865 322 815 363 844 b 572 896 460 885 514 896 b 721 874 626 896 675 888 b 838 808 766 859 805 837 b 915 699 871 778 897 742 b 943 551 934 656 943 607 b 908 394 943 486 931 433 b 818 336 884 356 854 336 b 783 352 800 336 789 341 b 774 392 777 363 774 376 b 778 436 774 406 775 420 b 786 479 782 452 784 466 l 840 742 l 717 742 l 706 686 l 704 686 b 657 740 697 707 681 725 b 568 763 633 755 603 763 b 457 735 527 763 490 753 b 371 664 424 717 395 694 b 315 563 347 634 328 600 b 296 447 302 525 296 486 b 347 285 296 381 313 326 b 493 222 381 243 430 222 b 599 252 535 222 570 232 b 663 315 627 272 649 293 l 669 315 b 703 249 669 288 681 266 b 792 222 725 231 755 222 b 895 244 828 222 862 229 b 983 308 928 258 957 280 b 1044 415 1008 337 1028 373 b 1067 563 1059 458 1067 507 b 1026 758 1067 638 1053 703 b 916 897 998 814 962 860 b 758 981 870 934 818 962 b 575 1008 699 999 638 1008 b 369 969 502 1008 433 995 b 200 860 304 942 248 906 b 86 696 152 813 114 759 b 44 490 58 633 44 564 b 83 283 44 415 57 346 b 190 119 108 219 144 165 b 358 13 237 74 292 39 b 575 -25 423 -12 495 -25 b 813 15 658 -25 738 -12 b 1007 143 888 42 952 85 z "},"A":{"ha":981,"x_min":0,"x_max":0,"o":"m 417 983 l -11 0 l 185 0 l 274 225 l 700 225 l 792 0 l 992 0 l 568 983 z m 639 375 l 333 375 l 488 775 z "},"B":{"ha":899,"x_min":0,"x_max":0,"o":"m 108 983 l 108 0 l 463 0 b 599 15 509 0 554 5 b 719 63 644 24 684 40 b 803 151 753 85 781 114 b 835 286 824 187 835 232 b 775 446 835 353 815 406 b 622 518 735 486 684 510 l 622 521 b 746 599 673 537 714 563 b 793 736 777 635 793 681 b 767 850 793 781 784 819 b 698 927 749 881 726 907 b 601 970 670 947 638 961 b 492 983 565 979 529 983 z m 283 583 l 283 839 l 424 839 b 571 811 490 839 539 830 b 618 717 602 793 618 761 b 572 618 618 674 603 641 b 439 583 542 595 497 583 z m 283 147 l 283 433 l 447 433 b 607 403 519 433 572 423 b 660 294 642 382 660 346 b 638 217 660 262 653 236 b 584 172 624 197 606 182 b 513 152 562 162 538 155 b 440 147 487 149 463 147 z "},"C":{"ha":967,"x_min":0,"x_max":0,"o":"m 818 753 l 951 858 b 881 925 932 884 908 906 b 792 972 853 944 823 959 b 693 999 760 984 727 993 b 594 1008 659 1005 626 1008 b 383 972 519 1008 448 996 b 215 869 319 948 262 914 b 102 708 167 825 129 771 b 61 494 75 644 61 573 b 100 284 61 418 74 347 b 208 120 126 221 162 166 b 374 13 255 74 310 39 b 586 -25 439 -12 509 -25 b 807 20 670 -25 744 -10 b 967 147 870 50 923 93 l 826 246 b 728 163 801 212 769 184 b 588 132 687 142 640 132 b 450 158 537 132 491 141 b 345 233 409 176 374 201 b 278 347 316 265 294 303 b 254 494 262 392 254 441 b 278 636 254 545 262 593 b 348 750 295 680 318 718 b 456 826 378 782 414 808 b 594 854 497 845 544 854 b 717 830 634 854 675 846 b 818 753 758 814 792 788 z "},"D":{"ha":1061,"x_min":0,"x_max":0,"o":"m 108 983 l 108 0 l 457 0 b 650 28 521 0 585 9 b 825 117 715 47 773 77 b 951 269 877 156 919 207 b 1000 492 984 331 1000 406 b 951 724 1000 584 984 662 b 825 876 919 787 877 837 b 650 958 773 914 715 942 b 457 983 585 975 521 983 z m 429 153 l 283 153 l 283 833 l 429 833 b 565 819 475 833 520 829 b 688 768 611 810 652 793 b 778 664 725 743 755 708 b 813 492 801 619 813 562 b 778 326 813 425 801 370 b 688 223 755 283 725 248 b 565 169 652 197 611 179 b 429 153 520 158 475 153 z "},"E":{"ha":847,"x_min":0,"x_max":0,"o":"m 108 983 l 108 0 l 785 0 l 785 156 l 283 156 l 283 433 l 735 433 l 735 581 l 283 581 l 283 831 l 760 831 l 760 983 z "},"F":{"ha":796,"x_min":0,"x_max":0,"o":"m 108 983 l 108 0 l 283 0 l 283 414 l 717 414 l 717 561 l 283 561 l 283 831 l 743 831 l 743 983 z "},"G":{"ha":1074,"x_min":0,"x_max":0,"o":"m 969 51 l 969 561 l 593 561 l 593 417 l 800 417 l 800 167 b 604 132 744 144 679 132 b 458 159 550 132 501 141 b 348 235 415 177 378 202 b 278 349 318 267 295 305 b 254 494 262 393 254 442 b 278 636 254 545 262 593 b 347 750 295 680 318 718 b 455 826 377 782 413 808 b 596 854 497 845 544 854 b 742 825 649 854 697 844 b 847 754 787 806 822 782 l 968 885 b 810 974 928 922 876 952 b 594 1008 745 997 673 1008 b 383 972 519 1008 448 996 b 215 869 319 948 262 914 b 102 708 167 825 129 771 b 61 494 75 644 61 573 b 101 284 61 418 74 347 b 211 120 127 221 164 166 b 381 13 258 74 315 39 b 599 -25 446 -12 519 -25 b 805 -5 676 -25 745 -18 b 969 51 865 9 919 27 z "},"H":{"ha":1026,"x_min":0,"x_max":0,"o":"m 108 983 l 108 0 l 283 0 l 283 436 l 743 436 l 743 0 l 918 0 l 918 983 l 743 983 l 743 586 l 283 586 l 283 983 z "},"I":{"ha":392,"x_min":0,"x_max":0,"o":"m 108 983 l 108 0 l 283 0 l 283 983 z "},"J":{"ha":692,"x_min":0,"x_max":0,"o":"m 592 318 l 592 983 l 417 983 l 417 324 b 411 247 417 296 415 270 b 392 185 407 223 401 203 b 355 146 384 168 371 155 b 293 132 339 137 318 132 b 214 160 263 132 236 141 b 168 238 192 179 176 205 l 7 192 b 105 35 25 127 57 75 b 296 -25 153 -5 216 -25 b 446 8 357 -25 407 -14 b 536 93 485 31 515 59 b 580 204 557 127 572 164 b 592 318 588 244 592 282 z "},"K":{"ha":957,"x_min":0,"x_max":0,"o":"m 108 983 l 108 0 l 283 0 l 283 493 l 288 493 l 719 0 l 965 0 l 475 529 l 935 983 l 699 983 l 288 558 l 283 558 l 283 983 z "},"L":{"ha":710,"x_min":0,"x_max":0,"o":"m 108 983 l 108 0 l 701 0 l 701 156 l 283 156 l 283 983 z "},"M":{"ha":1278,"x_min":0,"x_max":0,"o":"m 108 983 l 108 0 l 275 0 l 275 790 l 278 790 l 572 0 l 694 0 l 993 790 l 996 790 l 996 0 l 1169 0 l 1169 983 l 894 983 l 642 285 l 638 285 l 382 983 z "},"N":{"ha":1083,"x_min":0,"x_max":0,"o":"m 108 983 l 108 0 l 283 0 l 283 760 l 286 760 l 753 0 l 975 0 l 975 983 l 800 983 l 800 247 l 797 247 l 340 983 z "},"O":{"ha":1179,"x_min":0,"x_max":0,"o":"m 61 494 b 101 284 61 418 74 347 b 210 120 127 221 164 166 b 377 13 257 74 313 39 b 588 -25 441 -12 512 -25 b 800 13 664 -25 735 -12 b 968 120 865 39 921 74 b 1078 284 1015 166 1052 221 b 1118 494 1105 347 1118 418 b 1078 708 1118 573 1105 644 b 968 869 1052 771 1015 825 b 800 972 921 914 865 948 b 588 1008 735 996 664 1008 b 377 972 512 1008 441 996 b 210 869 313 948 257 914 b 101 708 164 825 127 771 b 61 494 74 644 61 573 z m 251 494 b 276 636 251 545 259 593 b 344 750 292 680 315 718 b 451 826 374 782 409 808 b 589 854 492 845 538 854 b 728 826 640 854 686 845 b 835 750 769 808 805 782 b 903 636 864 718 887 680 b 928 494 920 593 928 545 b 903 349 928 442 920 393 b 834 235 887 305 864 267 b 726 159 804 202 768 177 b 589 132 685 141 639 132 b 452 159 539 132 493 141 b 345 235 411 177 375 202 b 276 349 315 267 292 305 b 251 494 259 393 251 442 z "},"P":{"ha":847,"x_min":0,"x_max":0,"o":"m 108 983 l 108 0 l 283 0 l 283 407 l 418 407 b 565 422 470 407 519 412 b 687 472 612 432 652 449 b 769 561 722 494 749 524 b 800 699 790 598 800 644 b 774 829 800 750 791 793 b 699 918 756 865 731 895 b 582 968 666 941 627 958 b 429 983 537 978 486 983 z m 406 554 l 283 554 l 283 836 l 411 836 b 490 831 438 836 464 834 b 558 811 515 828 538 821 b 606 769 578 801 594 787 b 624 699 618 751 624 727 b 606 626 624 669 618 645 b 557 583 594 608 577 593 b 488 560 537 572 513 565 b 406 554 462 556 434 554 z "},"Q":{"ha":1183,"x_min":0,"x_max":0,"o":"m 1168 0 l 1168 142 l 925 142 l 925 144 b 990 202 947 160 969 179 b 1045 281 1010 225 1029 251 b 1085 382 1061 311 1075 345 b 1100 504 1095 419 1100 460 b 1061 709 1100 579 1087 647 b 952 868 1035 771 999 824 b 786 972 905 913 850 947 b 578 1008 722 996 653 1008 b 369 972 503 1008 433 996 b 201 868 304 947 249 913 b 91 709 154 824 117 771 b 51 504 65 647 51 579 b 89 291 51 425 64 353 b 195 133 114 228 149 176 b 360 34 241 90 296 57 b 575 0 425 11 496 0 z m 578 851 b 714 825 628 851 673 843 b 819 753 755 807 790 783 b 886 643 848 722 870 686 b 910 504 902 600 910 554 b 885 360 910 451 901 403 b 815 250 868 317 845 281 b 709 178 786 219 750 196 b 575 153 668 161 623 153 b 440 178 526 153 481 161 b 335 250 400 196 365 219 b 267 360 306 281 284 317 b 243 504 251 403 243 451 b 269 643 243 554 252 600 b 339 753 286 686 309 722 b 445 825 369 783 404 807 b 578 851 486 843 531 851 z "},"R":{"ha":874,"x_min":0,"x_max":0,"o":"m 108 983 l 108 0 l 283 0 l 283 417 l 411 417 l 639 0 l 850 0 l 588 436 b 752 527 657 452 712 482 b 813 701 792 572 813 630 b 782 833 813 753 802 797 b 701 921 762 869 734 899 b 585 969 667 943 628 959 b 450 983 541 978 496 983 z m 426 560 l 283 560 l 283 836 l 442 836 b 510 831 464 836 487 834 b 574 810 534 827 555 820 b 619 769 592 800 607 786 b 638 703 631 752 638 730 b 618 630 638 673 631 649 b 569 586 605 611 589 596 b 501 565 549 576 526 569 b 426 560 476 562 451 560 z "},"S":{"ha":797,"x_min":0,"x_max":0,"o":"m 610 778 l 724 903 b 590 982 686 938 641 964 b 438 1008 538 1000 488 1008 b 306 991 393 1008 349 1003 b 191 938 263 979 225 962 b 109 849 157 915 130 885 b 78 719 88 813 78 769 b 100 603 78 673 85 634 b 158 525 115 572 134 546 b 238 474 181 504 208 487 b 326 440 267 461 297 450 l 414 411 b 486 378 442 402 466 391 b 535 334 506 366 523 351 b 553 269 547 317 553 295 b 537 202 553 243 547 220 b 495 157 526 184 512 169 b 438 131 478 145 459 136 b 375 124 416 126 395 124 b 256 153 336 124 297 133 b 160 232 216 172 184 199 l 35 115 b 185 10 74 69 124 34 b 372 -25 246 -13 308 -25 b 510 -6 420 -25 466 -19 b 624 53 553 7 591 27 b 701 151 656 79 682 111 b 731 289 721 190 731 236 b 703 410 731 337 722 377 b 634 490 685 442 662 469 b 541 542 606 512 575 529 b 443 576 507 555 475 566 b 367 601 415 585 390 593 b 308 631 344 610 324 619 b 269 671 291 642 279 655 b 256 728 260 687 256 706 b 272 790 256 752 261 772 b 313 831 282 807 296 821 b 368 855 329 842 348 850 b 429 863 388 860 409 863 b 531 838 463 863 497 854 b 610 778 565 822 591 802 z "},"T":{"ha":789,"x_min":0,"x_max":0,"o":"m 307 831 l 307 0 l 482 0 l 482 831 l 783 831 l 783 983 l 6 983 l 6 831 z "},"U":{"ha":992,"x_min":0,"x_max":0,"o":"m 892 361 l 892 983 l 717 983 l 717 368 b 706 283 717 339 713 311 b 669 207 698 254 686 229 b 601 153 652 185 629 167 b 496 132 572 139 538 132 b 391 153 454 132 419 139 b 323 207 363 167 340 185 b 286 283 306 229 294 254 b 275 368 279 311 275 339 l 275 983 l 100 983 l 100 361 b 130 201 100 302 110 248 b 213 79 150 153 178 113 b 339 2 249 46 291 20 b 496 -25 387 -16 439 -25 b 653 2 552 -25 605 -16 b 778 79 701 20 743 46 b 861 201 813 113 841 153 b 892 361 881 248 892 302 z "},"V":{"ha":907,"x_min":0,"x_max":0,"o":"m -14 983 l 375 0 l 526 0 l 921 983 l 732 983 l 458 226 l 453 226 l 182 983 z "},"W":{"ha":1394,"x_min":0,"x_max":0,"o":"m 8 983 l 296 0 l 465 0 l 696 738 l 699 738 l 929 0 l 1099 0 l 1386 983 l 1200 983 l 1006 261 l 1003 261 l 790 983 l 610 983 l 393 261 l 390 261 l 200 983 z "},"X":{"ha":914,"x_min":0,"x_max":0,"o":"m 346 525 l 6 0 l 217 0 l 447 386 l 688 0 l 908 0 l 556 521 l 856 983 l 654 983 l 454 647 l 251 983 l 40 983 z "},"Y":{"ha":864,"x_min":0,"x_max":0,"o":"m 346 426 l 346 0 l 521 0 l 521 426 l 890 983 l 688 983 l 438 569 l 190 983 l -24 983 z "},"Z":{"ha":849,"x_min":0,"x_max":0,"o":"m 49 158 l 49 0 l 800 0 l 800 156 l 254 156 l 792 825 l 792 983 l 57 983 l 57 831 l 583 831 z "},"[":{"ha":458,"x_min":0,"x_max":0,"o":"m 350 908 l 350 1017 l 83 1017 l 83 -217 l 350 -217 l 350 -108 l 225 -108 l 225 908 z "},"\\":{"ha":540,"x_min":0,"x_max":0,"o":"m 119 1053 l 4 1008 l 438 -67 l 553 -25 z "},"]":{"ha":458,"x_min":0,"x_max":0,"o":"m 108 -108 l 108 -217 l 375 -217 l 375 1017 l 108 1017 l 108 908 l 233 908 l 233 -108 z "},"^":{"ha":925,"x_min":0,"x_max":0,"o":"m 96 476 l 260 476 l 461 808 l 665 476 l 829 476 l 519 983 l 406 983 z "},"_":{"ha":694,"x_min":0,"x_max":0,"o":"m 694 -208 l 694 -104 l 0 -104 l 0 -208 z "},"`":{"ha":361,"x_min":0,"x_max":0,"o":"m 246 783 l 108 983 l -81 983 l 115 783 z "},"a":{"ha":764,"x_min":0,"x_max":0,"o":"m 514 85 l 514 0 l 669 0 l 669 406 b 656 506 669 439 665 472 b 610 596 647 539 632 569 b 519 661 588 623 557 644 b 372 686 480 678 431 686 b 222 660 321 686 271 677 b 90 581 172 642 128 616 l 176 479 b 257 533 198 500 225 519 b 358 556 289 548 323 556 b 466 526 400 556 436 546 b 511 433 496 506 511 475 l 511 417 b 352 409 459 417 406 414 b 204 378 298 404 249 394 b 95 310 160 362 123 339 b 53 190 67 280 53 240 b 77 92 53 151 61 119 b 138 28 93 66 114 45 b 219 -6 163 12 190 1 b 303 -17 248 -13 276 -17 b 429 12 350 -17 392 -7 b 510 85 466 31 493 55 z m 511 304 l 511 281 b 467 156 511 228 496 186 b 336 110 437 125 394 110 b 294 114 322 110 308 111 b 257 128 281 117 268 121 b 230 153 246 134 237 143 b 219 193 223 164 219 177 b 244 252 219 218 228 238 b 307 285 261 266 282 278 b 389 301 332 293 359 298 b 474 304 419 303 447 304 z "},"b":{"ha":882,"x_min":0,"x_max":0,"o":"m 269 1050 l 103 1050 l 103 0 l 261 0 l 261 100 l 264 100 b 360 11 287 61 319 31 b 493 -19 402 -9 446 -19 b 630 9 544 -19 590 -10 b 733 85 670 28 704 53 b 798 198 761 117 783 155 b 821 336 813 241 821 287 b 797 474 821 385 813 431 b 731 585 781 516 759 553 b 628 659 702 616 668 641 b 497 686 588 677 544 686 b 415 676 467 686 439 683 b 352 650 391 669 370 660 b 306 617 334 640 319 629 b 274 582 293 605 282 593 l 269 582 z m 651 336 b 640 258 651 310 647 284 b 604 189 632 232 620 209 b 544 139 588 169 569 152 b 460 119 520 126 492 119 b 378 138 429 119 402 126 b 316 188 354 151 333 167 b 277 256 299 208 286 231 b 264 333 268 282 264 307 b 277 411 264 359 268 385 b 316 481 286 437 299 460 b 378 531 333 501 354 518 b 460 550 402 544 429 550 b 544 531 492 550 520 544 b 604 482 569 519 588 502 b 640 413 620 462 632 439 b 651 336 647 388 651 362 z "},"c":{"ha":678,"x_min":0,"x_max":0,"o":"m 556 482 l 669 582 b 560 658 643 614 606 640 b 418 686 515 677 467 686 b 280 661 369 686 323 678 b 167 590 237 644 199 621 b 90 479 134 560 109 523 b 61 333 71 436 61 387 b 90 185 61 278 71 228 b 167 74 109 141 134 104 b 283 4 200 43 239 20 b 422 -19 327 -12 373 -19 b 562 5 472 -19 519 -11 b 668 74 605 21 640 44 l 564 179 b 501 135 548 160 527 145 b 424 119 475 125 450 119 b 341 138 392 119 365 126 b 282 188 317 151 298 167 b 247 256 266 208 254 231 b 235 333 239 282 235 307 b 246 410 235 359 238 385 b 280 479 253 436 265 459 b 338 528 295 500 314 516 b 418 547 361 541 388 547 b 497 528 445 547 471 541 b 556 482 523 516 543 500 z "},"d":{"ha":881,"x_min":0,"x_max":0,"o":"m 778 0 l 778 1050 l 611 1050 l 611 582 l 607 582 b 575 617 599 593 588 605 b 528 650 562 629 547 640 b 465 676 510 660 489 669 b 383 686 441 683 414 686 b 253 659 336 686 293 677 b 150 585 213 641 179 616 b 83 474 121 553 99 516 b 60 336 68 431 60 385 b 83 198 60 287 67 241 b 148 85 98 155 120 117 b 251 9 176 53 210 28 b 388 -19 291 -10 337 -19 b 520 11 435 -19 479 -9 b 617 100 561 31 594 61 l 619 100 l 619 0 z m 229 336 b 241 413 229 362 233 388 b 276 482 249 439 261 462 b 336 531 292 502 312 519 b 421 550 360 544 388 550 b 503 531 451 550 479 544 b 565 481 527 518 547 501 b 603 411 582 460 595 437 b 617 333 612 385 617 359 b 603 256 617 307 612 282 b 565 188 595 231 582 208 b 503 138 547 167 527 151 b 421 119 479 126 451 119 b 336 139 388 119 360 126 b 276 189 312 152 292 169 b 241 258 261 209 249 232 b 229 336 233 284 229 310 z "},"e":{"ha":797,"x_min":0,"x_max":0,"o":"m 569 400 l 228 400 b 285 516 231 447 251 486 b 413 561 320 546 363 561 b 483 548 439 561 463 557 b 532 513 503 539 519 527 b 560 461 545 498 554 481 b 569 400 566 442 569 421 z m 736 325 b 712 483 736 385 728 438 b 644 595 696 528 673 565 b 542 663 616 625 582 648 b 414 686 503 678 460 686 b 274 660 364 686 317 678 b 163 588 231 643 194 619 b 88 476 131 557 106 520 b 61 329 70 432 61 383 b 88 183 61 275 70 226 b 163 74 106 140 131 103 b 276 5 195 44 233 21 b 419 -19 320 -11 368 -19 b 706 114 544 -19 640 25 l 594 203 b 524 140 576 176 552 155 b 418 117 495 124 460 117 b 349 129 394 117 371 121 b 289 163 326 138 306 149 b 247 215 271 178 257 195 b 228 281 236 234 230 256 l 735 281 b 736 303 736 288 736 295 z "},"f":{"ha":450,"x_min":0,"x_max":0,"o":"m 126 533 l 126 0 l 293 0 l 293 533 l 447 533 l 447 667 l 293 667 l 293 775 b 297 826 293 792 294 809 b 313 875 300 844 305 860 b 347 911 321 890 332 902 b 406 925 362 920 381 925 b 440 922 418 925 429 924 b 469 915 450 920 460 918 l 481 1057 b 442 1065 468 1061 455 1063 b 396 1067 430 1066 414 1067 b 267 1042 344 1067 301 1059 b 184 976 232 1026 205 1004 b 140 880 163 949 148 916 b 126 765 131 843 126 805 l 126 667 l 0 667 l 0 533 z "},"g":{"ha":878,"x_min":0,"x_max":0,"o":"m 778 667 l 619 667 l 619 567 l 617 567 b 519 657 593 607 560 638 b 388 686 479 676 435 686 b 252 658 338 686 292 677 b 149 583 212 640 178 615 b 84 472 121 552 99 515 b 61 336 69 430 61 384 b 85 202 61 289 69 244 b 151 92 100 160 122 123 b 254 17 179 60 213 35 b 390 -11 295 -2 340 -11 b 516 15 437 -11 478 -3 b 608 89 553 32 584 56 l 611 89 l 611 40 b 601 -51 611 7 608 -24 b 566 -124 594 -79 582 -103 b 501 -172 550 -144 528 -160 b 400 -189 473 -183 440 -189 b 276 -165 358 -189 317 -181 b 167 -94 236 -148 199 -125 l 71 -224 b 143 -271 92 -241 116 -257 b 227 -306 170 -285 198 -296 b 316 -326 256 -315 286 -322 b 401 -333 346 -331 375 -333 b 569 -306 466 -333 522 -324 b 687 -227 617 -287 656 -261 b 756 -103 718 -193 741 -152 b 778 60 770 -55 778 0 z m 422 550 b 504 533 453 550 480 544 b 566 488 528 522 549 507 b 606 419 583 468 596 445 b 619 338 615 394 619 366 b 606 258 619 310 615 283 b 566 190 596 232 583 210 b 503 144 549 171 528 155 b 421 126 479 132 451 126 b 341 144 391 126 365 132 b 281 192 317 156 297 172 b 244 260 265 212 253 235 b 231 338 235 285 231 311 b 244 421 231 367 235 395 b 281 488 253 447 265 469 b 341 533 297 507 317 522 b 422 550 365 544 392 550 z "},"h":{"ha":811,"x_min":0,"x_max":0,"o":"m 471 686 b 401 676 446 686 423 683 b 344 651 380 670 361 661 b 301 615 328 640 313 628 b 272 574 288 601 279 588 l 269 574 l 269 1050 l 103 1050 l 103 0 l 269 0 l 269 364 b 279 429 269 386 273 408 b 308 487 286 450 295 470 b 357 528 321 504 338 518 b 426 543 376 538 400 543 b 491 526 453 543 475 538 b 528 484 507 515 520 501 b 546 427 537 467 543 448 b 550 367 549 406 550 386 l 550 0 l 717 0 l 717 417 b 703 517 717 451 712 484 b 659 603 694 549 679 578 b 583 663 639 628 614 648 b 471 686 552 678 514 686 z "},"i":{"ha":372,"x_min":0,"x_max":0,"o":"m 103 667 l 103 0 l 269 0 l 269 667 z m 79 893 b 109 823 79 866 89 843 b 185 793 129 803 154 793 b 262 822 215 793 241 803 b 293 893 283 841 293 864 b 262 965 293 922 283 946 b 185 993 241 984 215 993 b 109 963 154 993 129 983 b 79 893 89 943 79 920 z "},"j":{"ha":372,"x_min":0,"x_max":0,"o":"m 269 667 l 103 667 l 103 -47 b 100 -102 103 -67 102 -85 b 88 -147 98 -119 94 -134 b 60 -178 81 -160 72 -170 b 13 -189 48 -185 32 -189 b -10 -187 6 -189 -1 -188 b -33 -183 -18 -187 -26 -185 l -47 -325 b -14 -331 -39 -327 -28 -329 b 28 -333 0 -332 14 -333 b 149 -310 78 -333 118 -325 b 223 -247 180 -294 205 -273 b 260 -153 241 -220 253 -189 b 269 -40 266 -118 269 -80 z m 79 893 b 109 823 79 866 89 843 b 185 793 129 803 154 793 b 262 822 215 793 241 803 b 293 893 283 841 293 864 b 262 965 293 922 283 946 b 185 993 241 984 215 993 b 109 963 154 993 129 983 b 79 893 89 943 79 920 z "},"k":{"ha":754,"x_min":0,"x_max":0,"o":"m 103 1050 l 103 0 l 269 0 l 269 342 l 274 342 l 538 0 l 758 0 l 451 365 l 740 667 l 526 667 l 274 386 l 269 386 l 269 1050 z "},"l":{"ha":372,"x_min":0,"x_max":0,"o":"m 103 1050 l 103 0 l 269 0 l 269 1050 z "},"m":{"ha":1236,"x_min":0,"x_max":0,"o":"m 896 686 b 765 653 846 686 802 675 b 676 560 728 632 699 600 b 597 651 658 598 631 628 b 468 686 563 675 520 686 b 394 676 441 686 417 683 b 335 647 372 669 353 659 b 291 607 318 635 303 622 b 261 560 278 592 269 576 l 258 560 l 258 667 l 100 667 l 100 0 l 267 0 l 267 367 b 276 433 267 389 270 411 b 302 490 282 454 291 474 b 347 531 314 507 329 521 b 413 547 366 542 388 547 b 506 506 455 547 486 534 b 536 403 526 479 536 444 l 536 0 l 703 0 l 703 364 b 711 428 703 385 706 407 b 738 488 717 450 725 470 b 783 531 750 505 765 519 b 850 547 802 542 824 547 b 915 531 877 547 898 542 b 953 488 931 519 944 505 b 971 431 962 471 968 452 b 975 369 974 409 975 389 l 975 0 l 1142 0 l 1142 417 b 1128 517 1142 451 1137 484 b 1084 603 1119 549 1104 578 b 1008 663 1064 628 1039 648 b 896 686 977 678 939 686 z "},"n":{"ha":808,"x_min":0,"x_max":0,"o":"m 100 667 l 100 0 l 267 0 l 267 367 b 276 433 267 389 270 411 b 305 490 283 454 292 474 b 353 531 317 507 333 521 b 422 547 372 542 395 547 b 487 531 449 547 471 542 b 525 488 503 519 516 505 b 543 431 534 471 540 452 b 547 369 546 409 547 389 l 547 0 l 714 0 l 714 417 b 700 517 714 451 709 484 b 656 603 691 549 676 578 b 580 663 636 628 611 648 b 468 686 549 678 512 686 b 338 648 418 686 375 673 b 261 560 302 622 276 593 l 258 560 l 258 667 z "},"o":{"ha":847,"x_min":0,"x_max":0,"o":"m 61 336 b 90 192 61 283 71 235 b 167 80 109 148 134 111 b 282 7 199 49 238 25 b 424 -19 326 -11 374 -19 b 565 7 474 -19 521 -11 b 681 80 610 25 648 49 b 758 192 713 111 739 148 b 786 336 777 235 786 283 b 758 480 786 389 777 437 b 681 590 739 523 713 560 b 565 661 648 621 610 644 b 424 686 521 678 474 686 b 282 661 374 686 326 678 b 167 590 238 644 199 621 b 90 480 134 560 109 523 b 61 336 71 437 61 389 z m 231 336 b 242 413 231 362 234 388 b 278 482 250 439 262 462 b 338 531 294 502 313 519 b 424 550 362 544 390 550 b 510 531 457 550 486 544 b 569 482 534 519 554 502 b 605 413 585 462 597 439 b 617 336 613 388 617 362 b 605 258 617 310 613 284 b 569 189 597 232 585 209 b 510 139 554 169 534 152 b 424 119 486 126 457 119 b 338 139 390 119 362 126 b 278 189 313 152 294 169 b 242 258 262 209 250 232 b 231 336 234 284 231 310 z "},"p":{"ha":879,"x_min":0,"x_max":0,"o":"m 260 667 l 100 667 l 100 -333 l 267 -333 l 267 89 l 269 89 b 360 10 291 56 321 29 b 490 -19 400 -10 443 -19 b 627 9 541 -19 587 -10 b 730 85 667 28 702 53 b 795 198 758 117 780 155 b 818 336 810 241 818 287 b 794 474 818 385 810 431 b 728 585 779 516 756 553 b 625 659 699 616 665 641 b 494 686 585 677 542 686 b 412 676 464 686 436 683 b 346 649 387 669 365 660 b 297 613 326 639 310 627 b 264 574 283 600 272 587 l 260 574 z m 649 336 b 637 258 649 310 645 284 b 601 189 629 232 617 209 b 542 139 586 169 566 152 b 457 119 518 126 489 119 b 375 138 426 119 399 126 b 313 188 351 151 330 167 b 274 256 296 208 283 231 b 261 333 266 282 261 307 b 274 411 261 359 266 385 b 313 481 283 437 296 460 b 375 531 330 501 351 518 b 457 550 399 544 426 550 b 542 531 489 550 518 544 b 601 482 566 519 586 502 b 637 413 617 462 629 439 b 649 336 645 388 649 362 z "},"q":{"ha":878,"x_min":0,"x_max":0,"o":"m 778 -333 l 778 667 l 618 667 l 618 574 l 614 574 b 581 613 606 587 595 600 b 532 649 568 627 551 639 b 466 676 513 660 491 669 b 383 686 441 683 414 686 b 253 659 336 686 293 677 b 150 585 213 641 179 616 b 83 474 121 553 99 516 b 60 336 68 431 60 385 b 83 198 60 287 67 241 b 148 85 98 155 120 117 b 251 9 176 53 210 28 b 388 -19 291 -10 337 -19 b 517 10 435 -19 478 -10 b 608 89 557 29 587 56 l 611 89 l 611 -333 z m 229 336 b 241 413 229 362 233 388 b 276 482 249 439 261 462 b 336 531 292 502 312 519 b 421 550 360 544 388 550 b 503 531 451 550 479 544 b 565 481 527 518 547 501 b 603 411 582 460 595 437 b 617 333 612 385 617 359 b 603 256 617 307 612 282 b 565 188 595 231 582 208 b 503 138 547 167 527 151 b 421 119 479 126 451 119 b 336 139 388 119 360 126 b 276 189 312 152 292 169 b 241 258 261 209 249 232 b 229 336 233 284 229 310 z "},"r":{"ha":506,"x_min":0,"x_max":0,"o":"m 100 667 l 100 0 l 267 0 l 267 357 b 274 406 267 369 269 385 b 300 465 278 426 287 446 b 354 515 313 485 331 501 b 446 536 377 529 408 536 b 469 535 453 536 461 536 b 497 529 477 534 486 532 l 497 682 b 478 685 492 684 485 685 b 457 686 470 686 463 686 b 340 650 413 686 374 674 b 263 556 307 626 281 594 l 260 556 l 260 667 z "},"s":{"ha":617,"x_min":0,"x_max":0,"o":"m 465 489 l 574 585 b 465 661 547 619 510 644 b 324 686 419 678 372 686 b 226 674 290 686 258 682 b 142 635 195 665 167 653 b 81 569 117 618 97 596 b 58 474 66 543 58 511 b 75 394 58 442 64 416 b 119 341 86 373 101 355 b 183 306 138 327 159 315 b 256 285 206 297 231 290 b 370 249 306 273 345 261 b 408 189 396 237 408 217 b 399 151 408 174 405 162 b 373 127 392 141 384 133 b 338 114 362 121 351 117 b 301 110 326 111 313 110 b 203 133 265 110 232 118 b 131 193 173 149 149 169 l 21 90 b 143 9 53 55 94 28 b 294 -19 192 -10 243 -19 b 399 -8 331 -19 366 -16 b 488 31 433 0 463 13 b 549 99 514 48 534 71 b 572 203 565 128 572 162 b 553 285 572 235 566 263 b 502 342 540 308 523 327 b 433 379 481 358 458 370 b 357 401 407 388 382 396 b 249 434 310 413 274 423 b 213 489 225 445 213 463 b 246 544 213 515 224 533 b 319 561 268 556 293 561 b 404 540 350 561 378 554 b 465 489 430 525 450 508 z "},"t":{"ha":472,"x_min":0,"x_max":0,"o":"m 4 533 l 121 533 l 121 222 b 130 131 121 190 124 159 b 163 56 136 103 147 78 b 229 5 179 34 201 17 b 338 -14 257 -8 293 -14 b 396 -9 356 -14 375 -12 b 449 4 416 -6 434 -1 l 443 135 b 408 124 433 130 421 127 b 372 121 395 122 383 121 b 301 150 335 121 311 131 b 285 224 290 169 285 194 l 285 533 l 451 533 l 451 667 l 285 667 l 285 860 l 121 860 l 121 667 l 4 667 z "},"u":{"ha":808,"x_min":0,"x_max":0,"o":"m 708 0 l 708 667 l 542 667 l 542 300 b 532 234 542 278 538 256 b 503 176 525 212 516 193 b 455 135 491 160 475 146 b 386 119 435 125 412 119 b 322 136 359 119 338 125 b 283 178 305 147 293 161 b 265 236 274 196 268 215 b 261 297 263 257 261 278 l 261 667 l 94 667 l 94 250 b 108 150 94 216 99 182 b 152 64 118 118 132 89 b 228 3 172 39 197 19 b 340 -19 259 -12 297 -19 b 470 19 390 -19 434 -7 b 547 107 507 44 532 74 l 550 107 l 550 0 z "},"v":{"ha":713,"x_min":0,"x_max":0,"o":"m 0 667 l 269 0 l 447 0 l 713 667 l 536 667 l 360 181 l 357 181 l 182 667 z "},"w":{"ha":1117,"x_min":0,"x_max":0,"o":"m 6 667 l 238 0 l 407 0 l 557 467 l 560 467 l 711 0 l 881 0 l 1111 667 l 938 667 l 796 189 l 793 189 l 649 667 l 471 667 l 328 189 l 325 189 l 186 667 z "},"x":{"ha":746,"x_min":0,"x_max":0,"o":"m 269 354 l -1 0 l 196 0 l 371 243 l 544 0 l 747 0 l 475 354 l 714 667 l 522 667 l 374 460 l 229 667 l 29 667 z "},"y":{"ha":713,"x_min":0,"x_max":0,"o":"m 0 667 l 286 0 l 253 -85 b 232 -131 245 -102 238 -118 b 210 -163 225 -144 218 -154 b 179 -183 201 -172 191 -178 b 135 -189 167 -187 152 -189 b 105 -187 125 -189 116 -188 b 72 -179 94 -185 83 -183 l 58 -324 b 102 -331 73 -327 88 -330 b 144 -333 116 -333 131 -333 b 240 -321 181 -333 213 -329 b 308 -284 266 -312 289 -300 b 358 -224 328 -268 344 -248 b 397 -143 372 -201 385 -174 l 713 667 l 539 667 l 374 182 l 371 182 l 185 667 z "},"z":{"ha":669,"x_min":0,"x_max":0,"o":"m 47 147 l 47 0 l 622 0 l 622 136 l 244 136 l 606 519 l 606 667 l 64 667 l 64 533 l 407 533 z "},"{":{"ha":458,"x_min":0,"x_max":0,"o":"m 14 461 l 14 339 b 45 335 23 339 34 338 b 76 319 57 332 67 327 b 100 286 86 311 94 300 b 110 232 106 272 110 254 l 110 -33 b 124 -115 110 -65 115 -92 b 164 -172 134 -137 147 -156 b 221 -206 181 -187 200 -198 b 288 -217 242 -213 264 -217 l 389 -217 l 389 -100 l 313 -100 b 262 -74 286 -100 269 -91 b 251 -17 255 -56 251 -37 l 251 236 b 236 315 251 269 246 295 b 200 364 226 336 214 352 b 156 390 186 376 171 384 b 115 399 140 395 126 398 l 115 401 b 156 413 126 402 140 406 b 200 440 171 419 186 428 b 236 487 214 452 226 468 b 251 556 246 506 251 529 l 251 817 b 262 874 251 837 255 856 b 313 900 269 891 286 900 l 389 900 l 389 1017 l 288 1017 b 221 1006 264 1017 242 1013 b 164 972 200 998 181 987 b 124 915 147 956 134 937 b 110 833 115 892 110 865 l 110 558 b 100 510 110 539 106 523 b 76 480 94 497 86 487 b 45 465 67 473 57 468 b 14 461 34 463 23 461 z "},"|":{"ha":308,"x_min":0,"x_max":0,"o":"m 225 1042 l 83 1042 l 83 -347 l 225 -347 z "},"}":{"ha":458,"x_min":0,"x_max":0,"o":"m 444 339 l 444 461 b 413 465 434 461 424 463 b 382 480 401 468 391 473 b 358 510 373 487 365 497 b 349 558 352 523 349 539 l 349 833 b 334 915 349 865 344 892 b 294 972 324 937 311 956 b 238 1006 278 987 259 998 b 171 1017 216 1013 194 1017 l 69 1017 l 69 900 l 146 900 b 197 874 173 900 190 891 b 207 817 203 856 207 837 l 207 556 b 222 487 207 529 212 506 b 258 440 232 468 244 452 b 303 413 272 428 287 419 b 343 401 319 406 332 402 l 343 399 b 303 390 332 398 319 395 b 258 364 287 384 272 376 b 222 315 244 352 232 336 b 207 236 212 295 207 269 l 207 -17 b 197 -74 207 -37 203 -56 b 146 -100 190 -91 173 -100 l 69 -100 l 69 -217 l 171 -217 b 238 -206 194 -217 216 -213 b 294 -172 259 -198 278 -187 b 334 -115 311 -156 324 -137 b 349 -33 344 -92 349 -65 l 349 232 b 358 286 349 254 352 272 b 382 319 365 300 373 311 b 413 335 391 327 401 332 b 444 339 424 338 434 339 z "},"~":{"ha":925,"x_min":0,"x_max":0,"o":"m 479 492 b 400 533 450 510 424 524 b 313 547 376 543 347 547 b 205 518 276 547 241 538 b 100 404 169 499 134 461 l 207 314 b 260 382 225 346 242 369 b 315 401 277 395 296 401 b 338 400 323 401 330 401 b 363 394 345 399 353 397 b 397 378 373 391 384 385 b 444 351 410 372 426 363 b 529 309 475 332 503 318 b 613 296 555 300 583 296 b 722 326 650 296 686 306 b 825 438 758 347 793 384 l 718 528 b 669 463 703 500 687 478 b 610 440 652 448 632 440 b 583 441 600 440 591 441 b 559 447 576 441 568 444 b 527 463 550 451 540 456 b 479 492 515 469 499 479 z "}," ":{"ha":347,"x_min":0,"x_max":0,"o":""},"¡":{"ha":472,"x_min":0,"x_max":0,"o":"m 153 -297 l 319 -297 l 319 378 l 153 378 z m 125 589 b 158 513 125 559 136 534 b 236 481 179 491 206 481 b 314 511 266 481 292 491 b 347 586 336 531 347 556 b 315 663 347 616 336 641 b 236 694 293 684 267 694 b 194 686 221 694 207 692 b 158 664 180 681 169 673 b 134 631 148 655 140 644 b 125 589 128 618 125 604 z "},"¢":{"ha":847,"x_min":0,"x_max":0,"o":"m 492 683 l 492 776 l 417 776 l 417 683 b 191 572 321 670 246 633 b 108 335 136 511 108 432 b 130 203 108 288 116 244 b 191 95 144 162 165 126 b 288 19 217 64 250 39 b 417 -17 327 -1 369 -13 l 417 -117 l 492 -117 l 492 -17 b 620 8 535 -15 578 -6 b 728 79 662 23 698 47 l 626 189 b 566 143 610 170 590 155 b 492 125 542 131 518 125 l 492 542 b 562 523 517 540 540 534 b 621 479 584 512 603 498 l 728 588 b 622 660 699 622 664 646 b 492 683 579 674 536 681 z m 417 540 l 417 125 b 304 202 367 138 329 164 b 267 333 279 241 267 284 b 276 406 267 358 270 382 b 303 467 282 429 291 449 b 350 513 316 485 331 501 b 417 540 369 526 391 535 z "},"£":{"ha":847,"x_min":0,"x_max":0,"o":"m 92 149 l 92 0 l 765 0 l 765 149 l 397 149 l 397 438 l 625 438 l 625 554 l 397 554 l 397 663 b 405 732 397 685 400 708 b 432 799 410 756 419 778 b 484 849 445 819 462 836 b 567 869 506 863 533 869 b 649 853 596 869 624 864 b 713 810 674 843 695 828 l 811 925 b 703 987 781 952 745 972 b 567 1008 662 1001 617 1008 b 406 975 503 1008 449 997 b 301 891 362 953 327 925 b 244 781 274 857 256 820 b 228 669 233 741 228 704 l 228 554 l 92 554 l 92 438 l 228 438 l 228 149 z "},"€":{"ha":847,"x_min":0,"x_max":0,"o":"m 811 35 l 754 168 b 572 122 703 138 643 122 b 475 137 537 122 505 127 b 396 176 445 147 419 160 b 338 235 373 193 353 213 b 304 308 322 258 311 282 l 601 308 l 639 428 l 283 428 b 281 458 281 437 281 447 l 281 488 b 285 556 281 513 282 536 l 672 556 l 711 675 l 311 675 b 352 756 320 706 334 732 b 415 814 370 779 391 798 b 492 850 438 830 464 842 b 575 863 519 858 547 863 b 674 853 609 863 642 859 b 753 824 705 846 731 837 l 806 963 b 709 995 781 975 748 986 b 583 1008 670 1004 628 1008 b 428 985 528 1008 476 1000 b 301 917 381 969 338 947 b 204 813 263 888 231 853 b 143 675 177 772 157 726 l 67 675 l 25 556 l 125 556 b 122 523 123 545 122 534 b 121 489 121 511 121 500 l 121 458 b 122 428 121 448 121 438 l 60 428 l 21 308 l 138 308 b 188 180 149 263 165 220 b 274 74 210 140 238 104 b 399 1 309 43 351 19 b 567 -25 448 -16 504 -25 b 706 -8 617 -25 663 -19 b 811 35 749 3 784 17 z "},"¥":{"ha":847,"x_min":0,"x_max":0,"o":"m 340 215 l 340 0 l 507 0 l 507 215 l 751 215 l 751 324 l 507 324 l 507 431 l 751 431 l 751 539 l 557 539 l 825 983 l 639 983 l 432 583 l 217 983 l 22 983 l 297 539 l 96 539 l 96 431 l 340 431 l 340 324 l 96 324 l 96 215 z "},"Š":{"ha":797,"x_min":0,"x_max":0,"o":"m 610 778 l 724 903 b 590 982 686 938 641 964 b 438 1008 538 1000 488 1008 b 306 991 393 1008 349 1003 b 191 938 263 979 225 962 b 109 849 157 915 130 885 b 78 719 88 813 78 769 b 100 603 78 673 85 634 b 158 525 115 572 134 546 b 238 474 181 504 208 487 b 326 440 267 461 297 450 l 414 411 b 486 378 442 402 466 391 b 535 334 506 366 523 351 b 553 269 547 317 553 295 b 537 202 553 243 547 220 b 495 157 526 184 512 169 b 438 131 478 145 459 136 b 375 124 416 126 395 124 b 256 153 336 124 297 133 b 160 232 216 172 184 199 l 35 115 b 185 10 74 69 124 34 b 372 -25 246 -13 308 -25 b 510 -6 420 -25 466 -19 b 624 53 553 7 591 27 b 701 151 656 79 682 111 b 731 289 721 190 731 236 b 703 410 731 337 722 377 b 634 490 685 442 662 469 b 541 542 606 512 575 529 b 443 576 507 555 475 566 b 367 601 415 585 390 593 b 308 631 344 610 324 619 b 269 671 291 642 279 655 b 256 728 260 687 256 706 b 272 790 256 752 261 772 b 313 831 282 807 296 821 b 368 855 329 842 348 850 b 429 863 388 860 409 863 b 531 838 463 863 497 854 b 610 778 565 822 591 802 z m 336 1261 l 178 1261 l 336 1061 l 521 1061 l 681 1261 l 528 1261 l 432 1136 z "},"§":{"ha":847,"x_min":0,"x_max":0,"o":"m 621 788 l 735 889 b 613 978 703 929 663 959 b 457 1008 564 998 512 1008 b 354 994 423 1008 388 1004 b 261 952 320 985 289 971 b 194 881 233 933 211 909 b 168 779 177 852 168 818 b 253 621 168 710 196 657 b 203 588 235 612 219 601 b 160 544 187 576 173 561 b 131 488 148 528 138 509 b 119 419 123 467 119 444 b 138 336 119 387 126 359 b 187 276 151 313 167 293 b 255 232 207 259 229 244 b 332 199 280 220 306 209 b 422 163 366 186 396 174 b 488 131 448 153 470 142 b 527 92 505 119 518 107 b 540 40 536 78 540 61 b 528 -3 540 24 536 9 b 496 -35 519 -16 509 -26 b 453 -53 483 -43 469 -49 b 408 -58 437 -56 422 -58 b 307 -34 374 -58 340 -50 b 232 39 274 -18 249 6 l 94 -43 b 156 -112 111 -70 132 -93 b 235 -161 181 -132 207 -148 b 322 -190 263 -174 291 -184 b 410 -200 352 -197 381 -200 b 518 -185 446 -200 482 -195 b 615 -138 554 -175 587 -159 b 685 -60 644 -117 667 -91 b 713 50 703 -28 713 8 b 697 140 713 83 707 113 b 640 211 686 167 667 191 b 720 283 672 227 698 251 b 753 389 742 315 753 350 b 732 478 753 423 746 453 b 677 546 718 504 700 526 b 601 597 654 565 629 582 b 517 636 572 611 544 624 b 444 668 491 647 467 658 b 388 700 422 678 403 689 b 350 737 372 711 359 723 b 336 783 341 750 336 766 b 348 824 336 799 340 813 b 378 853 356 836 366 845 b 418 869 390 860 403 866 b 461 875 433 873 447 875 b 549 851 491 875 520 867 b 621 788 578 836 602 814 z m 535 272 l 390 332 b 351 351 377 338 364 344 b 315 374 337 358 325 366 b 288 406 304 383 295 394 b 278 450 281 419 278 433 b 302 512 278 477 286 497 b 358 547 318 526 337 538 l 482 492 b 522 471 495 485 508 478 b 558 445 535 463 547 455 b 584 412 568 435 577 424 b 594 367 591 399 594 384 b 578 313 594 348 589 330 b 535 272 568 295 553 281 z "},"š":{"ha":617,"x_min":0,"x_max":0,"o":"m 465 489 l 574 585 b 465 661 547 619 510 644 b 324 686 419 678 372 686 b 226 674 290 686 258 682 b 142 635 195 665 167 653 b 81 569 117 618 97 596 b 58 474 66 543 58 511 b 75 394 58 442 64 416 b 119 341 86 373 101 355 b 183 306 138 327 159 315 b 256 285 206 297 231 290 b 370 249 306 273 345 261 b 408 189 396 237 408 217 b 399 151 408 174 405 162 b 373 127 392 141 384 133 b 338 114 362 121 351 117 b 301 110 326 111 313 110 b 203 133 265 110 232 118 b 131 193 173 149 149 169 l 21 90 b 143 9 53 55 94 28 b 294 -19 192 -10 243 -19 b 399 -8 331 -19 366 -16 b 488 31 433 0 463 13 b 549 99 514 48 534 71 b 572 203 565 128 572 162 b 553 285 572 235 566 263 b 502 342 540 308 523 327 b 433 379 481 358 458 370 b 357 401 407 388 382 396 b 249 434 310 413 274 423 b 213 489 225 445 213 463 b 246 544 213 515 224 533 b 319 561 268 556 293 561 b 404 540 350 561 378 554 b 465 489 430 525 450 508 z m 224 983 l 65 983 l 224 783 l 408 783 l 568 983 l 415 983 l 319 858 z "},"©":{"ha":1111,"x_min":0,"x_max":0,"o":"m 714 615 l 801 703 b 706 774 777 733 746 757 b 581 799 667 790 625 799 b 457 777 537 799 496 791 b 355 716 418 763 384 742 b 286 618 326 690 303 657 b 261 488 269 579 261 536 b 286 355 261 438 269 393 b 355 258 303 316 326 284 b 456 198 384 231 418 211 b 581 178 495 184 536 178 b 706 199 625 178 667 185 b 800 261 744 214 776 234 l 719 356 b 662 317 705 339 685 326 b 590 303 638 307 614 303 b 512 319 561 303 534 308 b 455 360 489 329 470 343 b 420 420 440 378 428 397 b 408 490 412 443 408 466 b 419 558 408 513 412 536 b 452 617 427 581 438 600 b 506 658 466 634 484 648 b 581 674 528 669 553 674 b 658 657 607 674 633 668 b 714 615 682 646 701 632 z m 28 490 b 69 287 28 418 42 350 b 183 121 97 223 135 168 b 351 10 230 74 286 37 b 557 -31 415 -17 484 -31 b 761 10 629 -31 697 -17 b 928 121 825 37 881 74 b 1042 287 976 168 1014 223 b 1083 490 1069 350 1083 418 b 1042 695 1083 563 1069 632 b 928 861 1014 759 976 814 b 761 973 881 908 825 946 b 557 1014 697 1000 629 1014 b 351 973 484 1014 415 1000 b 183 861 286 946 230 908 b 69 695 135 814 97 759 b 28 490 42 632 28 563 z m 111 490 b 147 663 111 551 123 609 b 242 805 170 717 202 765 b 384 901 283 845 330 877 b 557 936 438 924 496 936 b 729 901 618 936 675 924 b 870 805 783 877 830 845 b 965 663 910 765 942 717 b 1000 490 988 609 1000 551 b 965 318 1000 429 988 372 b 870 177 942 264 910 217 b 729 82 830 137 783 105 b 557 47 675 59 618 47 b 384 82 496 47 438 59 b 242 177 330 105 283 137 b 147 318 202 217 170 264 b 111 490 123 372 111 429 z "},"ª":{"ha":528,"x_min":0,"x_max":0,"o":"m 339 640 l 339 599 l 440 599 l 440 840 b 432 902 440 862 438 882 b 403 955 426 922 417 940 b 347 991 389 970 370 982 b 257 1004 323 1000 293 1004 b 167 990 226 1004 196 999 b 90 943 137 980 112 964 l 151 871 b 194 902 163 884 177 894 b 247 914 211 910 229 914 b 307 901 271 914 291 909 b 331 856 323 892 331 877 l 331 847 b 241 844 302 847 272 846 b 156 826 210 841 182 836 b 93 785 131 817 110 803 b 68 708 76 766 68 741 b 81 656 68 689 72 672 b 113 619 89 641 100 628 b 160 597 127 609 142 602 b 214 589 177 591 195 589 b 290 603 243 589 268 594 b 338 640 313 612 328 625 z m 331 774 l 331 756 b 308 697 331 731 323 712 b 243 675 294 682 272 675 b 202 685 228 675 215 678 b 183 719 190 692 183 704 b 197 748 183 731 188 741 b 229 764 205 755 216 760 b 271 772 242 768 256 770 b 311 774 286 773 299 774 z "},"«":{"ha":721,"x_min":0,"x_max":0,"o":"m 197 344 l 357 585 l 253 656 l 42 344 l 253 31 l 358 101 z m 507 344 l 667 585 l 563 656 l 351 344 l 563 31 l 668 101 z "},"¬":{"ha":925,"x_min":0,"x_max":0,"o":"m 697 475 l 697 204 l 839 204 l 839 617 l 86 617 l 86 475 z "},"­":{"ha":444,"x_min":0,"x_max":0,"o":"m 389 271 l 389 413 l 56 413 l 56 271 z "},"®":{"ha":833,"x_min":0,"x_max":0,"o":"m 733 685 b 708 808 733 728 725 769 b 641 908 692 846 669 879 b 541 975 613 936 579 958 b 418 1000 503 992 462 1000 b 294 975 375 1000 333 992 b 193 908 256 958 222 936 b 125 808 164 879 142 846 b 100 685 108 769 100 728 b 125 563 100 641 108 600 b 193 464 142 525 164 492 b 294 398 222 436 256 414 b 418 374 333 382 375 374 b 541 398 462 374 503 382 b 641 464 579 414 613 436 b 708 563 669 492 692 525 b 733 685 725 600 733 641 z m 683 685 b 663 582 683 649 676 614 b 606 497 649 550 630 521 b 522 440 581 473 553 454 b 418 419 490 426 455 419 b 314 440 381 419 346 426 b 228 497 281 454 253 473 b 171 582 204 521 185 550 b 150 685 157 614 150 649 b 171 789 150 722 157 756 b 228 874 185 821 204 850 b 314 932 253 899 281 918 b 418 953 346 946 381 953 b 522 932 455 953 490 946 b 606 874 553 918 581 899 b 663 789 630 850 649 821 b 683 685 676 756 683 722 z m 485 511 l 600 511 l 508 660 b 560 697 530 667 547 679 b 581 758 574 714 581 734 b 567 813 581 780 576 798 b 533 848 559 827 547 839 b 485 867 518 857 502 863 b 432 872 467 870 450 872 l 276 872 l 276 511 l 375 511 l 375 644 l 415 644 z m 476 757 b 462 728 476 745 472 735 b 428 717 452 720 441 717 l 375 717 l 375 792 l 428 792 b 460 783 439 792 450 789 b 476 757 471 778 476 769 z "},"¯":{"ha":361,"x_min":0,"x_max":0,"o":"m 403 826 l 403 935 l -42 935 l -42 826 z "},"°":{"ha":556,"x_min":0,"x_max":0,"o":"m 56 778 b 73 692 56 747 61 719 b 121 621 84 665 100 641 b 192 573 141 600 165 584 b 278 556 219 561 247 556 b 364 573 308 556 337 561 b 435 621 391 584 414 600 b 483 692 455 641 471 665 b 500 778 494 719 500 747 b 483 864 500 808 494 837 b 435 935 471 891 455 914 b 364 983 414 955 391 971 b 278 1000 337 994 308 1000 b 192 983 247 1000 219 994 b 121 935 165 971 141 955 b 73 864 100 914 84 891 b 56 778 61 837 56 808 z m 164 778 b 197 858 164 809 175 836 b 278 892 219 881 246 892 b 358 858 309 892 336 881 b 392 778 381 836 392 809 b 358 697 392 746 381 719 b 278 664 336 675 309 664 b 197 697 246 664 219 675 b 164 778 175 719 164 746 z "},"±":{"ha":925,"x_min":0,"x_max":0,"o":"m 397 797 l 397 599 l 111 599 l 111 457 l 397 457 l 397 258 l 531 258 l 531 457 l 814 457 l 814 599 l 531 599 l 531 797 z m 111 186 l 111 44 l 814 44 l 814 186 z "},"²":{"ha":556,"x_min":0,"x_max":0,"o":"m 247 507 l 386 642 b 453 721 412 667 434 693 b 482 821 472 749 482 782 b 465 899 482 850 476 876 b 420 954 454 921 439 939 b 355 988 401 969 379 980 b 279 999 330 995 305 999 b 201 985 251 999 225 994 b 138 946 177 975 156 963 b 94 886 120 929 105 909 b 72 811 82 863 75 838 l 194 794 b 220 861 196 821 205 844 b 279 888 235 879 255 888 b 332 869 300 888 318 881 b 353 819 346 857 353 841 b 339 768 353 801 348 784 b 303 722 330 752 318 737 l 78 499 l 78 393 l 482 393 l 482 507 z "},"³":{"ha":556,"x_min":0,"x_max":0,"o":"m 206 750 l 206 651 l 243 651 b 285 648 257 651 271 650 b 324 636 300 646 313 642 b 353 613 336 631 346 623 b 365 574 361 602 365 589 b 336 513 365 545 356 525 b 274 494 317 500 296 494 b 209 517 247 494 225 502 b 174 575 193 533 181 552 l 56 540 b 143 421 74 485 103 445 b 279 385 183 397 228 385 b 356 396 305 385 331 388 b 424 429 381 403 403 414 b 473 486 444 444 460 463 b 492 568 485 509 492 537 b 468 654 492 601 484 630 b 400 707 452 678 430 696 b 456 761 424 720 443 738 b 476 836 470 784 476 809 b 419 960 476 892 457 933 b 279 1000 381 987 335 1000 b 152 957 231 1000 189 986 b 78 847 116 928 91 892 l 197 818 b 225 871 202 839 211 857 b 275 892 239 885 256 892 b 327 875 295 892 313 886 b 349 829 341 864 349 849 b 316 767 349 800 338 779 b 244 750 294 756 270 750 z "},"Ž":{"ha":849,"x_min":0,"x_max":0,"o":"m 49 158 l 49 0 l 800 0 l 800 156 l 254 156 l 792 825 l 792 983 l 57 983 l 57 831 l 583 831 z m 333 1261 l 175 1261 l 333 1061 l 518 1061 l 678 1261 l 525 1261 l 429 1136 z "},"µ":{"ha":797,"x_min":0,"x_max":0,"o":"m 261 667 l 94 667 l 94 -317 l 261 -317 l 261 17 b 301 -8 270 6 284 -3 b 351 -17 318 -14 335 -17 b 422 -7 378 -17 402 -13 b 476 20 443 0 460 9 b 515 60 491 32 504 45 b 542 107 525 75 534 90 l 544 107 l 544 0 l 703 0 l 703 667 l 536 667 l 536 303 b 528 239 536 281 533 259 b 501 185 522 219 513 200 b 453 147 488 169 472 156 b 383 133 434 138 411 133 b 315 153 354 133 331 140 b 278 203 298 167 286 184 b 264 267 271 223 266 245 b 261 329 262 290 261 311 z "},"¶":{"ha":833,"x_min":0,"x_max":0,"o":"m 342 469 l 342 -175 l 467 -175 l 467 883 l 615 883 l 615 -175 l 740 -175 l 740 983 l 367 983 b 235 969 319 983 275 978 b 133 923 195 959 161 944 b 67 842 104 902 82 875 b 43 722 51 808 43 769 b 65 622 43 686 50 653 b 125 541 79 591 99 564 b 219 488 151 518 182 501 b 342 469 255 476 296 469 z "},"·":{"ha":361,"x_min":0,"x_max":0,"o":"m 69 404 b 78 363 69 389 72 375 b 103 329 84 350 93 338 b 138 307 113 320 125 313 b 181 299 152 301 166 299 b 259 331 211 299 237 309 b 292 407 281 352 292 377 b 258 482 292 437 281 462 b 181 513 236 502 210 513 b 102 481 150 513 124 502 b 69 404 80 459 69 434 z "},"ž":{"ha":669,"x_min":0,"x_max":0,"o":"m 47 147 l 47 0 l 622 0 l 622 136 l 244 136 l 606 519 l 606 667 l 64 667 l 64 533 l 407 533 z m 249 983 l 90 983 l 249 783 l 433 783 l 593 983 l 440 983 l 344 858 z "},"¹":{"ha":556,"x_min":0,"x_max":0,"o":"m 58 829 l 132 743 l 233 828 l 233 388 l 364 388 l 364 983 l 249 983 z "},"º":{"ha":528,"x_min":0,"x_max":0,"o":"m 475 797 b 459 881 475 828 470 856 b 415 945 448 906 434 927 b 349 988 397 963 375 977 b 264 1003 323 998 294 1003 b 179 988 233 1003 205 998 b 113 945 153 977 131 963 b 69 881 94 927 79 906 b 53 797 58 856 53 828 b 69 715 53 768 58 740 b 113 649 79 689 94 667 b 179 607 131 631 153 617 b 264 592 205 597 233 592 b 349 607 294 592 323 597 b 415 649 375 617 397 631 b 459 715 434 667 448 689 b 475 797 470 740 475 768 z m 361 797 b 337 725 361 770 353 746 b 264 693 321 704 296 693 b 192 725 231 693 207 704 b 168 797 176 746 168 770 b 192 870 168 825 176 849 b 264 901 207 891 231 901 b 337 870 296 901 321 891 b 361 797 353 849 361 825 z "},"»":{"ha":721,"x_min":0,"x_max":0,"o":"m 524 342 l 364 101 l 468 31 l 679 342 l 468 656 l 363 585 z m 214 342 l 54 101 l 158 31 l 369 342 l 158 656 l 53 585 z "},"Œ":{"ha":1426,"x_min":0,"x_max":0,"o":"m 708 156 l 632 156 b 496 171 587 156 541 161 b 373 224 450 181 409 199 b 283 327 336 250 306 284 b 249 492 260 370 249 425 b 283 663 249 562 260 619 b 373 767 306 707 336 742 b 496 817 409 792 450 809 b 632 831 541 826 587 831 l 708 831 z m 1339 983 l 604 983 b 411 958 540 983 476 975 b 236 876 346 942 288 914 b 110 724 184 837 142 787 b 61 492 77 662 61 584 b 110 269 61 406 77 331 b 236 117 142 207 184 156 b 411 28 288 77 346 47 b 604 0 476 9 540 0 l 1364 0 l 1364 156 l 883 156 l 883 433 l 1314 433 l 1314 581 l 883 581 l 883 831 l 1339 831 z "},"œ":{"ha":1332,"x_min":0,"x_max":0,"o":"m 949 686 b 796 649 891 686 840 674 b 686 557 751 625 715 594 b 574 651 658 596 621 627 b 418 686 526 674 475 686 b 278 661 368 686 321 678 b 165 590 234 644 197 621 b 89 480 133 560 107 523 b 61 336 70 437 61 389 b 89 192 61 283 70 235 b 165 80 107 148 133 111 b 278 7 197 49 234 25 b 418 -19 321 -11 368 -19 b 572 15 475 -19 526 -8 b 682 107 617 38 654 69 b 794 15 710 68 747 37 b 953 -19 841 -8 894 -19 b 1239 114 1078 -19 1173 25 l 1129 204 b 1058 140 1111 177 1087 156 b 953 117 1030 125 994 117 b 884 128 929 117 906 121 b 826 162 862 136 843 147 b 783 214 809 176 794 194 b 763 281 772 234 765 256 l 1269 281 b 1271 303 1270 288 1271 295 l 1271 325 b 1247 483 1271 385 1263 438 b 1179 595 1230 528 1208 565 b 1077 663 1150 625 1116 648 b 949 686 1038 678 995 686 z m 231 336 b 242 413 231 362 234 388 b 278 482 250 439 262 462 b 338 531 294 502 313 519 b 424 550 362 544 390 550 b 510 531 457 550 486 544 b 569 482 534 519 554 502 b 605 413 585 462 597 439 b 617 336 613 388 617 362 b 605 258 617 310 613 284 b 569 189 597 232 585 209 b 510 139 554 169 534 152 b 424 119 486 126 457 119 b 338 139 390 119 362 126 b 278 189 313 152 294 169 b 242 258 262 209 250 232 b 231 336 234 284 231 310 z m 1104 400 l 763 400 b 820 516 766 447 785 486 b 947 561 855 546 897 561 b 1017 548 974 561 997 557 b 1067 513 1037 539 1054 527 b 1095 461 1080 498 1089 481 b 1104 400 1101 442 1104 421 z "},"Ÿ":{"ha":864,"x_min":0,"x_max":0,"o":"m 346 426 l 346 0 l 521 0 l 521 426 l 890 983 l 688 983 l 438 569 l 190 983 l -24 983 z m 201 1172 b 229 1104 201 1146 211 1124 b 300 1075 248 1085 271 1075 b 372 1103 329 1075 353 1084 b 401 1172 392 1121 401 1144 b 372 1242 401 1200 392 1223 b 300 1269 353 1260 329 1269 b 229 1240 271 1269 248 1260 b 201 1172 211 1221 201 1198 z m 474 1172 b 501 1104 474 1146 483 1124 b 572 1075 520 1085 544 1075 b 644 1103 601 1075 625 1084 b 674 1172 664 1121 674 1144 b 644 1242 674 1200 664 1223 b 572 1269 625 1260 601 1269 b 501 1240 544 1269 520 1260 b 474 1172 483 1221 474 1198 z "},"¿":{"ha":721,"x_min":0,"x_max":0,"o":"m 435 396 l 271 396 l 271 360 b 267 308 271 339 269 322 b 252 269 264 294 259 281 b 224 233 245 257 236 245 b 179 192 212 221 197 207 b 122 138 158 173 139 155 b 78 85 104 121 90 103 b 50 24 66 66 56 46 b 40 -54 44 1 40 -25 b 64 -169 40 -98 48 -136 b 128 -253 80 -203 101 -231 b 223 -305 156 -276 187 -293 b 336 -322 259 -316 296 -322 b 456 -303 379 -322 419 -316 b 554 -249 493 -291 525 -273 b 624 -160 583 -225 606 -195 b 660 -42 642 -126 654 -86 l 489 -26 b 478 -81 488 -45 484 -63 b 449 -127 471 -98 462 -114 b 405 -159 437 -141 422 -151 b 347 -171 388 -167 369 -171 b 251 -134 306 -171 273 -159 b 217 -43 228 -109 217 -79 b 235 28 217 -15 223 8 b 281 81 248 47 263 65 l 343 140 b 387 188 361 157 375 173 b 415 233 398 202 408 218 b 430 283 422 249 427 266 b 435 343 433 301 435 321 z m 463 589 b 453 631 463 604 459 618 b 429 664 447 644 439 655 b 394 686 419 673 407 681 b 351 694 380 692 366 694 b 273 663 321 694 295 684 b 240 586 251 641 240 616 b 274 511 240 556 251 531 b 351 481 296 491 322 481 b 430 513 382 481 408 491 b 463 589 452 534 463 559 z "},"À":{"ha":981,"x_min":0,"x_max":0,"o":"m 417 983 l -11 0 l 185 0 l 274 225 l 700 225 l 792 0 l 992 0 l 568 983 z m 639 375 l 333 375 l 488 775 z m 560 1061 l 422 1261 l 233 1261 l 429 1061 z "},"Á":{"ha":981,"x_min":0,"x_max":0,"o":"m 417 983 l -11 0 l 185 0 l 274 225 l 700 225 l 792 0 l 992 0 l 568 983 z m 639 375 l 333 375 l 488 775 z m 556 1261 l 418 1061 l 549 1061 l 744 1261 z "},"Â":{"ha":981,"x_min":0,"x_max":0,"o":"m 417 983 l -11 0 l 185 0 l 274 225 l 700 225 l 792 0 l 992 0 l 568 983 z m 639 375 l 333 375 l 488 775 z m 588 1061 l 746 1061 l 588 1261 l 400 1261 l 240 1061 l 396 1061 l 492 1186 z "},"Ã":{"ha":981,"x_min":0,"x_max":0,"o":"m 417 983 l -11 0 l 185 0 l 274 225 l 700 225 l 792 0 l 992 0 l 568 983 z m 639 375 l 333 375 l 488 775 z m 236 1067 l 328 1067 b 349 1108 332 1082 340 1096 b 392 1126 359 1120 373 1126 b 431 1119 403 1126 416 1124 b 478 1101 445 1115 461 1109 b 533 1082 495 1094 514 1088 b 592 1074 553 1076 572 1074 b 658 1089 618 1074 640 1079 b 703 1128 676 1099 691 1112 b 731 1185 715 1145 724 1163 b 747 1250 738 1206 744 1228 l 656 1250 b 634 1209 651 1234 644 1221 b 592 1192 624 1197 610 1192 b 552 1199 581 1192 567 1194 b 501 1218 537 1204 520 1211 b 448 1236 485 1225 467 1231 b 392 1243 429 1241 410 1243 b 326 1228 366 1243 344 1238 b 281 1188 308 1218 293 1204 b 252 1132 269 1172 259 1153 b 236 1067 245 1111 240 1089 z "},"Ä":{"ha":981,"x_min":0,"x_max":0,"o":"m 417 983 l -11 0 l 185 0 l 274 225 l 700 225 l 792 0 l 992 0 l 568 983 z m 639 375 l 333 375 l 488 775 z m 258 1172 b 286 1104 258 1146 268 1124 b 357 1075 305 1085 328 1075 b 429 1103 386 1075 410 1084 b 458 1172 449 1121 458 1144 b 429 1242 458 1200 449 1223 b 357 1269 410 1260 386 1269 b 286 1240 328 1269 305 1260 b 258 1172 268 1221 258 1198 z m 531 1172 b 558 1104 531 1146 540 1124 b 629 1075 577 1085 600 1075 b 701 1103 658 1075 682 1084 b 731 1172 721 1121 731 1144 b 701 1242 731 1200 721 1223 b 629 1269 682 1260 658 1269 b 558 1240 600 1269 577 1260 b 531 1172 540 1221 531 1198 z "},"Å":{"ha":981,"x_min":0,"x_max":0,"o":"m 417 983 l -11 0 l 185 0 l 274 225 l 700 225 l 792 0 l 992 0 l 568 983 z m 639 375 l 333 375 l 488 775 z m 636 1188 b 594 1290 636 1229 622 1263 b 490 1329 567 1316 532 1329 b 432 1318 469 1329 450 1325 b 386 1288 414 1311 399 1301 b 356 1243 373 1276 363 1261 b 344 1186 348 1225 344 1206 b 386 1085 344 1145 358 1112 b 490 1046 414 1059 449 1046 b 594 1085 532 1046 567 1059 b 636 1188 622 1112 636 1146 z m 572 1188 b 549 1131 572 1164 564 1145 b 490 1108 533 1116 513 1108 b 432 1131 467 1108 448 1116 b 408 1186 416 1145 408 1164 b 431 1244 408 1209 416 1228 b 490 1267 447 1259 466 1267 b 549 1244 513 1267 533 1259 b 572 1188 564 1230 572 1211 z "},"Æ":{"ha":1453,"x_min":0,"x_max":0,"o":"m 735 258 l 735 0 l 1390 0 l 1390 156 l 910 156 l 910 433 l 1340 433 l 1340 581 l 910 581 l 910 831 l 1365 831 l 1365 983 l 621 983 l -8 0 l 204 0 l 363 258 z m 735 408 l 454 408 l 714 831 l 735 831 z "},"Ç":{"ha":967,"x_min":0,"x_max":0,"o":"m 818 753 l 951 858 b 881 925 932 884 908 906 b 792 972 853 944 823 959 b 693 999 760 984 727 993 b 594 1008 659 1005 626 1008 b 383 972 519 1008 448 996 b 215 869 319 948 262 914 b 102 708 167 825 129 771 b 61 494 75 644 61 573 b 95 295 61 422 72 356 b 192 137 118 234 150 182 b 340 28 233 92 283 56 b 531 -22 398 0 461 -17 l 460 -125 l 492 -160 b 519 -153 500 -157 509 -155 b 546 -151 530 -152 538 -151 b 569 -153 553 -151 561 -152 b 593 -161 578 -155 586 -157 b 612 -176 600 -165 607 -170 b 619 -201 617 -183 619 -191 b 611 -231 619 -213 617 -223 b 591 -248 606 -238 599 -244 b 565 -256 583 -252 575 -255 b 540 -258 556 -258 548 -258 b 426 -231 500 -258 462 -249 l 394 -297 b 465 -323 414 -307 437 -316 b 547 -333 492 -330 519 -333 b 612 -327 568 -333 589 -331 b 673 -306 634 -323 655 -316 b 718 -266 691 -297 706 -283 b 736 -203 730 -249 736 -228 b 723 -144 736 -179 732 -159 b 689 -110 714 -130 703 -118 b 642 -92 675 -101 659 -96 b 590 -87 625 -89 608 -87 l 578 -87 b 564 -89 574 -87 569 -88 l 608 -24 b 815 24 687 -21 756 -5 b 967 147 875 53 925 94 l 826 246 b 728 163 801 212 769 184 b 588 132 687 142 640 132 b 450 158 537 132 491 141 b 345 233 409 176 374 201 b 278 347 316 265 294 303 b 254 494 262 392 254 441 b 278 636 254 545 262 593 b 348 750 295 680 318 718 b 456 826 378 782 414 808 b 594 854 497 845 544 854 b 717 830 634 854 675 846 b 818 753 758 814 792 788 z "},"È":{"ha":847,"x_min":0,"x_max":0,"o":"m 108 983 l 108 0 l 785 0 l 785 156 l 283 156 l 283 433 l 735 433 l 735 581 l 283 581 l 283 831 l 760 831 l 760 983 z m 549 1061 l 411 1261 l 222 1261 l 418 1061 z "},"É":{"ha":847,"x_min":0,"x_max":0,"o":"m 108 983 l 108 0 l 785 0 l 785 156 l 283 156 l 283 433 l 735 433 l 735 581 l 283 581 l 283 831 l 760 831 l 760 983 z m 489 1261 l 351 1061 l 482 1061 l 678 1261 z "},"Ê":{"ha":847,"x_min":0,"x_max":0,"o":"m 108 983 l 108 0 l 785 0 l 785 156 l 283 156 l 283 433 l 735 433 l 735 581 l 283 581 l 283 831 l 760 831 l 760 983 z m 535 1061 l 693 1061 l 535 1261 l 347 1261 l 188 1061 l 343 1061 l 439 1186 z "},"Ë":{"ha":847,"x_min":0,"x_max":0,"o":"m 108 983 l 108 0 l 785 0 l 785 156 l 283 156 l 283 433 l 735 433 l 735 581 l 283 581 l 283 831 l 760 831 l 760 983 z m 206 1172 b 233 1104 206 1146 215 1124 b 304 1075 252 1085 275 1075 b 376 1103 333 1075 357 1084 b 406 1172 396 1121 406 1144 b 376 1242 406 1200 396 1223 b 304 1269 357 1260 333 1269 b 233 1240 275 1269 252 1260 b 206 1172 215 1221 206 1198 z m 478 1172 b 506 1104 478 1146 487 1124 b 576 1075 524 1085 548 1075 b 649 1103 605 1075 629 1084 b 678 1172 668 1121 678 1144 b 649 1242 678 1200 668 1223 b 576 1269 629 1260 605 1269 b 506 1240 548 1269 524 1260 b 478 1172 487 1221 478 1198 z "},"Ì":{"ha":392,"x_min":0,"x_max":0,"o":"m 108 983 l 108 0 l 283 0 l 283 983 z m 282 1061 l 144 1261 l -44 1261 l 151 1061 z "},"Í":{"ha":392,"x_min":0,"x_max":0,"o":"m 108 983 l 108 0 l 283 0 l 283 983 z m 246 1261 l 108 1061 l 239 1061 l 435 1261 z "},"Î":{"ha":392,"x_min":0,"x_max":0,"o":"m 108 983 l 108 0 l 283 0 l 283 983 z m 289 1061 l 447 1061 l 289 1261 l 101 1261 l -58 1061 l 97 1061 l 193 1186 z "},"Ï":{"ha":392,"x_min":0,"x_max":0,"o":"m 108 983 l 108 0 l 283 0 l 283 983 z m -40 1172 b -12 1104 -40 1146 -31 1124 b 58 1075 6 1085 30 1075 b 131 1103 87 1075 111 1084 b 160 1172 150 1121 160 1144 b 131 1242 160 1200 150 1223 b 58 1269 111 1260 87 1269 b -12 1240 30 1269 6 1260 b -40 1172 -31 1221 -40 1198 z m 232 1172 b 260 1104 232 1146 241 1124 b 331 1075 278 1085 302 1075 b 403 1103 359 1075 383 1084 b 432 1172 422 1121 432 1144 b 403 1242 432 1200 422 1223 b 331 1269 383 1260 359 1269 b 260 1240 302 1269 278 1260 b 232 1172 241 1221 232 1198 z "},"Ð":{"ha":1061,"x_min":0,"x_max":0,"o":"m 110 450 l 110 0 l 476 0 b 658 30 536 0 596 10 b 826 120 719 50 775 80 b 949 273 876 160 917 211 b 997 492 981 334 997 407 b 956 709 997 575 983 647 b 844 863 928 771 891 822 b 685 953 798 903 745 934 b 497 983 625 973 562 983 l 110 983 l 110 567 l 18 567 l 18 450 z m 415 158 l 285 158 l 285 450 l 585 450 l 585 567 l 285 567 l 285 825 l 444 825 b 592 806 498 825 547 819 b 709 748 637 794 676 774 b 786 644 742 722 768 687 b 814 492 805 602 814 551 b 783 338 814 431 803 380 b 697 235 762 296 733 262 b 570 177 661 209 619 190 b 415 158 522 165 470 158 z "},"Ñ":{"ha":1083,"x_min":0,"x_max":0,"o":"m 108 983 l 108 0 l 283 0 l 283 760 l 286 760 l 753 0 l 975 0 l 975 983 l 800 983 l 800 247 l 797 247 l 340 983 z m 285 1067 l 376 1067 b 398 1108 381 1082 388 1096 b 440 1126 408 1120 422 1126 b 479 1119 451 1126 464 1124 b 526 1101 494 1115 510 1109 b 582 1082 544 1094 563 1088 b 640 1074 601 1076 621 1074 b 706 1089 666 1074 688 1079 b 751 1128 724 1099 739 1112 b 780 1185 763 1145 773 1163 b 796 1250 787 1206 792 1228 l 704 1250 b 683 1209 700 1234 692 1221 b 640 1192 673 1197 659 1192 b 601 1199 629 1192 616 1194 b 550 1218 585 1204 569 1211 b 497 1236 533 1225 516 1231 b 440 1243 478 1241 459 1243 b 374 1228 414 1243 392 1238 b 329 1188 356 1218 341 1204 b 301 1132 317 1172 308 1153 b 285 1067 294 1111 288 1089 z "},"Ò":{"ha":1179,"x_min":0,"x_max":0,"o":"m 61 494 b 101 284 61 418 74 347 b 210 120 127 221 164 166 b 377 13 257 74 313 39 b 588 -25 441 -12 512 -25 b 800 13 664 -25 735 -12 b 968 120 865 39 921 74 b 1078 284 1015 166 1052 221 b 1118 494 1105 347 1118 418 b 1078 708 1118 573 1105 644 b 968 869 1052 771 1015 825 b 800 972 921 914 865 948 b 588 1008 735 996 664 1008 b 377 972 512 1008 441 996 b 210 869 313 948 257 914 b 101 708 164 825 127 771 b 61 494 74 644 61 573 z m 251 494 b 276 636 251 545 259 593 b 344 750 292 680 315 718 b 451 826 374 782 409 808 b 589 854 492 845 538 854 b 728 826 640 854 686 845 b 835 750 769 808 805 782 b 903 636 864 718 887 680 b 928 494 920 593 928 545 b 903 349 928 442 920 393 b 834 235 887 305 864 267 b 726 159 804 202 768 177 b 589 132 685 141 639 132 b 452 159 539 132 493 141 b 345 235 411 177 375 202 b 276 349 315 267 292 305 b 251 494 259 393 251 442 z m 686 1061 l 549 1261 l 360 1261 l 556 1061 z "},"Ó":{"ha":1179,"x_min":0,"x_max":0,"o":"m 61 494 b 101 284 61 418 74 347 b 210 120 127 221 164 166 b 377 13 257 74 313 39 b 588 -25 441 -12 512 -25 b 800 13 664 -25 735 -12 b 968 120 865 39 921 74 b 1078 284 1015 166 1052 221 b 1118 494 1105 347 1118 418 b 1078 708 1118 573 1105 644 b 968 869 1052 771 1015 825 b 800 972 921 914 865 948 b 588 1008 735 996 664 1008 b 377 972 512 1008 441 996 b 210 869 313 948 257 914 b 101 708 164 825 127 771 b 61 494 74 644 61 573 z m 251 494 b 276 636 251 545 259 593 b 344 750 292 680 315 718 b 451 826 374 782 409 808 b 589 854 492 845 538 854 b 728 826 640 854 686 845 b 835 750 769 808 805 782 b 903 636 864 718 887 680 b 928 494 920 593 928 545 b 903 349 928 442 920 393 b 834 235 887 305 864 267 b 726 159 804 202 768 177 b 589 132 685 141 639 132 b 452 159 539 132 493 141 b 345 235 411 177 375 202 b 276 349 315 267 292 305 b 251 494 259 393 251 442 z m 639 1261 l 501 1061 l 632 1061 l 828 1261 z "},"Ô":{"ha":1179,"x_min":0,"x_max":0,"o":"m 61 494 b 101 284 61 418 74 347 b 210 120 127 221 164 166 b 377 13 257 74 313 39 b 588 -25 441 -12 512 -25 b 800 13 664 -25 735 -12 b 968 120 865 39 921 74 b 1078 284 1015 166 1052 221 b 1118 494 1105 347 1118 418 b 1078 708 1118 573 1105 644 b 968 869 1052 771 1015 825 b 800 972 921 914 865 948 b 588 1008 735 996 664 1008 b 377 972 512 1008 441 996 b 210 869 313 948 257 914 b 101 708 164 825 127 771 b 61 494 74 644 61 573 z m 251 494 b 276 636 251 545 259 593 b 344 750 292 680 315 718 b 451 826 374 782 409 808 b 589 854 492 845 538 854 b 728 826 640 854 686 845 b 835 750 769 808 805 782 b 903 636 864 718 887 680 b 928 494 920 593 928 545 b 903 349 928 442 920 393 b 834 235 887 305 864 267 b 726 159 804 202 768 177 b 589 132 685 141 639 132 b 452 159 539 132 493 141 b 345 235 411 177 375 202 b 276 349 315 267 292 305 b 251 494 259 393 251 442 z m 690 1061 l 849 1061 l 690 1261 l 503 1261 l 343 1061 l 499 1061 l 594 1186 z "},"Õ":{"ha":1179,"x_min":0,"x_max":0,"o":"m 61 494 b 101 284 61 418 74 347 b 210 120 127 221 164 166 b 377 13 257 74 313 39 b 588 -25 441 -12 512 -25 b 800 13 664 -25 735 -12 b 968 120 865 39 921 74 b 1078 284 1015 166 1052 221 b 1118 494 1105 347 1118 418 b 1078 708 1118 573 1105 644 b 968 869 1052 771 1015 825 b 800 972 921 914 865 948 b 588 1008 735 996 664 1008 b 377 972 512 1008 441 996 b 210 869 313 948 257 914 b 101 708 164 825 127 771 b 61 494 74 644 61 573 z m 251 494 b 276 636 251 545 259 593 b 344 750 292 680 315 718 b 451 826 374 782 409 808 b 589 854 492 845 538 854 b 728 826 640 854 686 845 b 835 750 769 808 805 782 b 903 636 864 718 887 680 b 928 494 920 593 928 545 b 903 349 928 442 920 393 b 834 235 887 305 864 267 b 726 159 804 202 768 177 b 589 132 685 141 639 132 b 452 159 539 132 493 141 b 345 235 411 177 375 202 b 276 349 315 267 292 305 b 251 494 259 393 251 442 z m 339 1067 l 431 1067 b 452 1108 435 1082 442 1096 b 494 1126 462 1120 476 1126 b 533 1119 506 1126 519 1124 b 581 1101 548 1115 564 1109 b 636 1082 598 1094 617 1088 b 694 1074 656 1076 675 1074 b 760 1089 720 1074 742 1079 b 806 1128 778 1099 794 1112 b 834 1185 818 1145 827 1163 b 850 1250 841 1206 846 1228 l 758 1250 b 737 1209 754 1234 747 1221 b 694 1192 727 1197 713 1192 b 655 1199 683 1192 670 1194 b 604 1218 640 1204 623 1211 b 551 1236 588 1225 570 1231 b 494 1243 532 1241 513 1243 b 428 1228 469 1243 447 1238 b 383 1188 410 1218 395 1204 b 355 1132 371 1172 362 1153 b 339 1067 348 1111 343 1089 z "},"Ö":{"ha":1179,"x_min":0,"x_max":0,"o":"m 61 494 b 101 284 61 418 74 347 b 210 120 127 221 164 166 b 377 13 257 74 313 39 b 588 -25 441 -12 512 -25 b 800 13 664 -25 735 -12 b 968 120 865 39 921 74 b 1078 284 1015 166 1052 221 b 1118 494 1105 347 1118 418 b 1078 708 1118 573 1105 644 b 968 869 1052 771 1015 825 b 800 972 921 914 865 948 b 588 1008 735 996 664 1008 b 377 972 512 1008 441 996 b 210 869 313 948 257 914 b 101 708 164 825 127 771 b 61 494 74 644 61 573 z m 251 494 b 276 636 251 545 259 593 b 344 750 292 680 315 718 b 451 826 374 782 409 808 b 589 854 492 845 538 854 b 728 826 640 854 686 845 b 835 750 769 808 805 782 b 903 636 864 718 887 680 b 928 494 920 593 928 545 b 903 349 928 442 920 393 b 834 235 887 305 864 267 b 726 159 804 202 768 177 b 589 132 685 141 639 132 b 452 159 539 132 493 141 b 345 235 411 177 375 202 b 276 349 315 267 292 305 b 251 494 259 393 251 442 z m 357 1172 b 385 1104 357 1146 366 1124 b 456 1075 403 1085 427 1075 b 528 1103 484 1075 508 1084 b 557 1172 547 1121 557 1144 b 528 1242 557 1200 547 1223 b 456 1269 508 1260 484 1269 b 385 1240 427 1269 403 1260 b 357 1172 366 1221 357 1198 z m 629 1172 b 657 1104 629 1146 638 1124 b 728 1075 675 1085 699 1075 b 800 1103 756 1075 781 1084 b 829 1172 819 1121 829 1144 b 800 1242 829 1200 819 1223 b 728 1269 781 1260 756 1269 b 657 1240 699 1269 675 1260 b 629 1172 638 1221 629 1198 z "},"×":{"ha":925,"x_min":0,"x_max":0,"o":"m 463 519 l 208 774 l 108 675 l 364 417 l 107 164 l 210 63 l 461 314 l 715 63 l 818 165 l 561 424 l 813 675 l 715 772 z "},"Ø":{"ha":1179,"x_min":0,"x_max":0,"o":"m 61 494 b 94 299 61 424 72 359 b 188 144 116 238 147 187 l 67 14 l 136 -46 l 254 82 b 405 2 299 47 349 20 b 588 -25 461 -16 522 -25 b 800 15 664 -24 735 -11 b 968 122 865 41 921 77 b 1078 285 1015 168 1052 222 b 1118 494 1105 348 1118 418 b 1080 704 1118 572 1105 642 b 971 865 1054 766 1018 820 l 1086 992 l 1018 1051 l 900 922 b 757 986 857 950 810 971 b 588 1008 704 1001 648 1008 b 377 972 512 1008 441 996 b 210 869 313 948 257 914 b 101 708 164 825 127 771 b 61 494 74 644 61 573 z m 936 494 b 910 347 936 441 928 391 b 839 231 893 302 869 263 b 729 155 808 198 772 173 b 589 128 687 137 640 128 b 368 204 497 128 424 153 l 857 736 b 917 626 884 704 904 667 b 936 494 930 586 936 542 z m 243 494 b 267 639 243 546 251 594 b 337 754 284 683 307 722 b 446 831 367 787 403 812 b 589 858 488 849 536 858 b 703 842 631 858 669 853 b 790 799 737 832 766 817 l 306 274 b 258 372 284 303 269 336 b 243 494 248 408 243 449 z "},"Ù":{"ha":992,"x_min":0,"x_max":0,"o":"m 892 361 l 892 983 l 717 983 l 717 368 b 706 283 717 339 713 311 b 669 207 698 254 686 229 b 601 153 652 185 629 167 b 496 132 572 139 538 132 b 391 153 454 132 419 139 b 323 207 363 167 340 185 b 286 283 306 229 294 254 b 275 368 279 311 275 339 l 275 983 l 100 983 l 100 361 b 130 201 100 302 110 248 b 213 79 150 153 178 113 b 339 2 249 46 291 20 b 496 -25 387 -16 439 -25 b 653 2 552 -25 605 -16 b 778 79 701 20 743 46 b 861 201 813 113 841 153 b 892 361 881 248 892 302 z m 607 1061 l 469 1261 l 281 1261 l 476 1061 z "},"Ú":{"ha":992,"x_min":0,"x_max":0,"o":"m 892 361 l 892 983 l 717 983 l 717 368 b 706 283 717 339 713 311 b 669 207 698 254 686 229 b 601 153 652 185 629 167 b 496 132 572 139 538 132 b 391 153 454 132 419 139 b 323 207 363 167 340 185 b 286 283 306 229 294 254 b 275 368 279 311 275 339 l 275 983 l 100 983 l 100 361 b 130 201 100 302 110 248 b 213 79 150 153 178 113 b 339 2 249 46 291 20 b 496 -25 387 -16 439 -25 b 653 2 552 -25 605 -16 b 778 79 701 20 743 46 b 861 201 813 113 841 153 b 892 361 881 248 892 302 z m 542 1261 l 404 1061 l 535 1061 l 731 1261 z "},"Û":{"ha":992,"x_min":0,"x_max":0,"o":"m 892 361 l 892 983 l 717 983 l 717 368 b 706 283 717 339 713 311 b 669 207 698 254 686 229 b 601 153 652 185 629 167 b 496 132 572 139 538 132 b 391 153 454 132 419 139 b 323 207 363 167 340 185 b 286 283 306 229 294 254 b 275 368 279 311 275 339 l 275 983 l 100 983 l 100 361 b 130 201 100 302 110 248 b 213 79 150 153 178 113 b 339 2 249 46 291 20 b 496 -25 387 -16 439 -25 b 653 2 552 -25 605 -16 b 778 79 701 20 743 46 b 861 201 813 113 841 153 b 892 361 881 248 892 302 z m 593 1061 l 751 1061 l 593 1261 l 406 1261 l 246 1061 l 401 1061 l 497 1186 z "},"Ü":{"ha":992,"x_min":0,"x_max":0,"o":"m 892 361 l 892 983 l 717 983 l 717 368 b 706 283 717 339 713 311 b 669 207 698 254 686 229 b 601 153 652 185 629 167 b 496 132 572 139 538 132 b 391 153 454 132 419 139 b 323 207 363 167 340 185 b 286 283 306 229 294 254 b 275 368 279 311 275 339 l 275 983 l 100 983 l 100 361 b 130 201 100 302 110 248 b 213 79 150 153 178 113 b 339 2 249 46 291 20 b 496 -25 387 -16 439 -25 b 653 2 552 -25 605 -16 b 778 79 701 20 743 46 b 861 201 813 113 841 153 b 892 361 881 248 892 302 z m 263 1172 b 290 1104 263 1146 272 1124 b 361 1075 309 1085 332 1075 b 433 1103 390 1075 414 1084 b 463 1172 453 1121 463 1144 b 433 1242 463 1200 453 1223 b 361 1269 414 1260 390 1269 b 290 1240 332 1269 309 1260 b 263 1172 272 1221 263 1198 z m 535 1172 b 563 1104 535 1146 544 1124 b 633 1075 581 1085 605 1075 b 706 1103 662 1075 686 1084 b 735 1172 725 1121 735 1144 b 706 1242 735 1200 725 1223 b 633 1269 686 1260 662 1269 b 563 1240 605 1269 581 1260 b 535 1172 544 1221 535 1198 z "},"Ý":{"ha":864,"x_min":0,"x_max":0,"o":"m 346 426 l 346 0 l 521 0 l 521 426 l 890 983 l 688 983 l 438 569 l 190 983 l -24 983 z m 507 1261 l 369 1061 l 500 1061 l 696 1261 z "},"Þ":{"ha":847,"x_min":0,"x_max":0,"o":"m 108 983 l 108 0 l 283 0 l 283 221 l 418 221 b 565 236 470 221 519 226 b 687 285 612 246 652 263 b 769 375 722 308 749 338 b 800 513 790 412 800 458 b 774 643 800 563 791 607 b 699 732 756 679 731 709 b 582 782 666 755 627 772 b 429 797 537 792 486 797 l 283 797 l 283 983 z m 406 368 l 283 368 l 283 650 l 411 650 b 490 645 438 650 464 648 b 558 625 515 642 538 635 b 606 583 578 615 594 601 b 624 513 618 565 624 541 b 606 440 624 483 618 459 b 557 397 594 422 577 407 b 488 374 537 386 513 378 b 406 368 462 370 434 368 z "},"ß":{"ha":871,"x_min":0,"x_max":0,"o":"m 100 704 l 100 0 l 267 0 l 267 696 b 274 773 267 721 269 747 b 299 846 278 799 287 824 b 350 900 312 868 329 886 b 432 921 371 914 399 921 b 494 908 456 921 477 917 b 538 876 512 900 526 889 b 563 832 549 863 557 849 b 571 781 568 815 571 798 b 533 683 571 740 558 707 b 433 647 508 659 475 647 l 413 647 l 413 506 l 431 506 b 513 494 459 506 487 502 b 581 460 538 487 561 476 b 627 401 600 445 616 425 b 644 317 639 377 644 349 b 590 176 644 257 626 211 b 449 125 554 142 507 125 b 399 128 435 125 418 126 b 351 139 380 131 364 134 l 351 -1 b 413 -13 373 -7 393 -11 b 472 -17 433 -16 453 -17 b 615 8 525 -17 572 -9 b 723 75 657 24 693 46 b 792 178 753 104 776 138 b 815 308 807 218 815 261 b 799 409 815 344 810 378 b 754 492 789 440 774 468 b 683 553 735 517 711 537 b 588 586 654 570 623 581 l 588 589 b 647 617 609 594 628 604 b 694 665 665 631 680 647 b 725 726 707 684 718 704 b 736 796 732 749 736 772 b 715 902 736 834 729 869 b 653 988 700 935 680 964 b 559 1046 627 1013 596 1032 b 439 1067 522 1060 482 1067 b 283 1037 378 1067 326 1057 b 178 957 241 1017 206 990 b 119 842 151 924 131 885 b 100 704 106 798 100 752 z "},"à":{"ha":764,"x_min":0,"x_max":0,"o":"m 514 85 l 514 0 l 669 0 l 669 406 b 656 506 669 439 665 472 b 610 596 647 539 632 569 b 519 661 588 623 557 644 b 372 686 480 678 431 686 b 222 660 321 686 271 677 b 90 581 172 642 128 616 l 176 479 b 257 533 198 500 225 519 b 358 556 289 548 323 556 b 466 526 400 556 436 546 b 511 433 496 506 511 475 l 511 417 b 352 409 459 417 406 414 b 204 378 298 404 249 394 b 95 310 160 362 123 339 b 53 190 67 280 53 240 b 77 92 53 151 61 119 b 138 28 93 66 114 45 b 219 -6 163 12 190 1 b 303 -17 248 -13 276 -17 b 429 12 350 -17 392 -7 b 510 85 466 31 493 55 z m 511 304 l 511 281 b 467 156 511 228 496 186 b 336 110 437 125 394 110 b 294 114 322 110 308 111 b 257 128 281 117 268 121 b 230 153 246 134 237 143 b 219 193 223 164 219 177 b 244 252 219 218 228 238 b 307 285 261 266 282 278 b 389 301 332 293 359 298 b 474 304 419 303 447 304 z m 465 783 l 328 983 l 139 983 l 335 783 z "},"á":{"ha":764,"x_min":0,"x_max":0,"o":"m 514 85 l 514 0 l 669 0 l 669 406 b 656 506 669 439 665 472 b 610 596 647 539 632 569 b 519 661 588 623 557 644 b 372 686 480 678 431 686 b 222 660 321 686 271 677 b 90 581 172 642 128 616 l 176 479 b 257 533 198 500 225 519 b 358 556 289 548 323 556 b 466 526 400 556 436 546 b 511 433 496 506 511 475 l 511 417 b 352 409 459 417 406 414 b 204 378 298 404 249 394 b 95 310 160 362 123 339 b 53 190 67 280 53 240 b 77 92 53 151 61 119 b 138 28 93 66 114 45 b 219 -6 163 12 190 1 b 303 -17 248 -13 276 -17 b 429 12 350 -17 392 -7 b 510 85 466 31 493 55 z m 511 304 l 511 281 b 467 156 511 228 496 186 b 336 110 437 125 394 110 b 294 114 322 110 308 111 b 257 128 281 117 268 121 b 230 153 246 134 237 143 b 219 193 223 164 219 177 b 244 252 219 218 228 238 b 307 285 261 266 282 278 b 389 301 332 293 359 298 b 474 304 419 303 447 304 z m 408 983 l 271 783 l 401 783 l 597 983 z "},"â":{"ha":764,"x_min":0,"x_max":0,"o":"m 514 85 l 514 0 l 669 0 l 669 406 b 656 506 669 439 665 472 b 610 596 647 539 632 569 b 519 661 588 623 557 644 b 372 686 480 678 431 686 b 222 660 321 686 271 677 b 90 581 172 642 128 616 l 176 479 b 257 533 198 500 225 519 b 358 556 289 548 323 556 b 466 526 400 556 436 546 b 511 433 496 506 511 475 l 511 417 b 352 409 459 417 406 414 b 204 378 298 404 249 394 b 95 310 160 362 123 339 b 53 190 67 280 53 240 b 77 92 53 151 61 119 b 138 28 93 66 114 45 b 219 -6 163 12 190 1 b 303 -17 248 -13 276 -17 b 429 12 350 -17 392 -7 b 510 85 466 31 493 55 z m 511 304 l 511 281 b 467 156 511 228 496 186 b 336 110 437 125 394 110 b 294 114 322 110 308 111 b 257 128 281 117 268 121 b 230 153 246 134 237 143 b 219 193 223 164 219 177 b 244 252 219 218 228 238 b 307 285 261 266 282 278 b 389 301 332 293 359 298 b 474 304 419 303 447 304 z m 475 783 l 633 783 l 475 983 l 288 983 l 128 783 l 283 783 l 379 908 z "},"ã":{"ha":764,"x_min":0,"x_max":0,"o":"m 514 85 l 514 0 l 669 0 l 669 406 b 656 506 669 439 665 472 b 610 596 647 539 632 569 b 519 661 588 623 557 644 b 372 686 480 678 431 686 b 222 660 321 686 271 677 b 90 581 172 642 128 616 l 176 479 b 257 533 198 500 225 519 b 358 556 289 548 323 556 b 466 526 400 556 436 546 b 511 433 496 506 511 475 l 511 417 b 352 409 459 417 406 414 b 204 378 298 404 249 394 b 95 310 160 362 123 339 b 53 190 67 280 53 240 b 77 92 53 151 61 119 b 138 28 93 66 114 45 b 219 -6 163 12 190 1 b 303 -17 248 -13 276 -17 b 429 12 350 -17 392 -7 b 510 85 466 31 493 55 z m 511 304 l 511 281 b 467 156 511 228 496 186 b 336 110 437 125 394 110 b 294 114 322 110 308 111 b 257 128 281 117 268 121 b 230 153 246 134 237 143 b 219 193 223 164 219 177 b 244 252 219 218 228 238 b 307 285 261 266 282 278 b 389 301 332 293 359 298 b 474 304 419 303 447 304 z m 121 789 l 213 789 b 234 831 217 805 224 819 b 276 849 244 843 258 849 b 315 842 288 849 300 846 b 363 824 330 837 346 831 b 418 804 380 816 399 810 b 476 796 438 799 457 796 b 542 811 502 796 524 801 b 588 851 560 821 575 834 b 616 907 600 867 609 886 b 632 972 623 928 628 950 l 540 972 b 519 931 536 956 528 943 b 476 914 509 920 495 914 b 437 922 465 914 452 916 b 386 940 422 927 405 933 b 333 958 369 948 352 954 b 276 965 314 963 295 965 b 210 950 250 965 228 960 b 165 910 192 940 177 927 b 137 854 153 894 144 875 b 121 789 130 833 125 811 z "},"ä":{"ha":764,"x_min":0,"x_max":0,"o":"m 514 85 l 514 0 l 669 0 l 669 406 b 656 506 669 439 665 472 b 610 596 647 539 632 569 b 519 661 588 623 557 644 b 372 686 480 678 431 686 b 222 660 321 686 271 677 b 90 581 172 642 128 616 l 176 479 b 257 533 198 500 225 519 b 358 556 289 548 323 556 b 466 526 400 556 436 546 b 511 433 496 506 511 475 l 511 417 b 352 409 459 417 406 414 b 204 378 298 404 249 394 b 95 310 160 362 123 339 b 53 190 67 280 53 240 b 77 92 53 151 61 119 b 138 28 93 66 114 45 b 219 -6 163 12 190 1 b 303 -17 248 -13 276 -17 b 429 12 350 -17 392 -7 b 510 85 466 31 493 55 z m 511 304 l 511 281 b 467 156 511 228 496 186 b 336 110 437 125 394 110 b 294 114 322 110 308 111 b 257 128 281 117 268 121 b 230 153 246 134 237 143 b 219 193 223 164 219 177 b 244 252 219 218 228 238 b 307 285 261 266 282 278 b 389 301 332 293 359 298 b 474 304 419 303 447 304 z m 143 894 b 171 826 143 869 152 846 b 242 797 189 807 213 797 b 314 825 270 797 294 806 b 343 894 333 844 343 867 b 314 964 343 922 333 945 b 242 992 294 982 270 992 b 171 963 213 992 189 982 b 143 894 152 943 143 920 z m 415 894 b 443 826 415 869 425 846 b 514 797 462 807 485 797 b 586 825 543 797 567 806 b 615 894 606 844 615 867 b 586 964 615 922 606 945 b 514 992 567 982 543 992 b 443 963 485 992 462 982 b 415 894 425 943 415 920 z "},"å":{"ha":764,"x_min":0,"x_max":0,"o":"m 514 85 l 514 0 l 669 0 l 669 406 b 656 506 669 439 665 472 b 610 596 647 539 632 569 b 519 661 588 623 557 644 b 372 686 480 678 431 686 b 222 660 321 686 271 677 b 90 581 172 642 128 616 l 176 479 b 257 533 198 500 225 519 b 358 556 289 548 323 556 b 466 526 400 556 436 546 b 511 433 496 506 511 475 l 511 417 b 352 409 459 417 406 414 b 204 378 298 404 249 394 b 95 310 160 362 123 339 b 53 190 67 280 53 240 b 77 92 53 151 61 119 b 138 28 93 66 114 45 b 219 -6 163 12 190 1 b 303 -17 248 -13 276 -17 b 429 12 350 -17 392 -7 b 510 85 466 31 493 55 z m 511 304 l 511 281 b 467 156 511 228 496 186 b 336 110 437 125 394 110 b 294 114 322 110 308 111 b 257 128 281 117 268 121 b 230 153 246 134 237 143 b 219 193 223 164 219 177 b 244 252 219 218 228 238 b 307 285 261 266 282 278 b 389 301 332 293 359 298 b 474 304 419 303 447 304 z m 519 910 b 478 1012 519 951 506 985 b 374 1051 450 1038 415 1051 b 315 1040 352 1051 333 1048 b 269 1010 298 1033 282 1023 b 239 965 256 998 246 983 b 228 908 231 948 228 929 b 269 808 228 868 242 834 b 374 768 297 781 332 768 b 478 808 415 768 450 781 b 519 910 506 834 519 868 z m 456 910 b 432 853 456 887 448 868 b 374 831 416 838 397 831 b 315 853 350 831 331 838 b 292 908 300 868 292 886 b 315 966 292 931 299 951 b 374 989 330 981 350 989 b 432 967 397 989 416 981 b 456 910 448 952 456 933 z "},"æ":{"ha":1232,"x_min":0,"x_max":0,"o":"m 849 686 b 698 654 790 686 740 675 b 599 572 656 633 623 606 b 515 651 580 602 552 628 b 372 686 478 675 431 686 b 222 660 321 686 271 677 b 92 581 172 642 129 616 l 176 479 b 259 533 198 500 225 519 b 360 556 293 548 326 556 b 470 522 406 556 443 544 b 511 414 497 500 511 464 l 511 400 b 336 393 450 400 392 398 b 190 365 281 388 232 379 b 90 301 147 350 114 329 b 53 190 65 274 53 237 b 77 95 53 153 61 122 b 139 31 93 69 114 47 b 222 -6 164 14 192 2 b 310 -17 253 -13 282 -17 b 494 22 388 -17 450 -4 b 589 114 538 47 569 78 b 696 15 616 71 651 38 b 853 -19 740 -8 793 -19 b 1139 114 978 -19 1073 25 l 1029 204 b 958 140 1011 177 987 156 b 853 117 930 125 894 117 b 784 128 829 117 806 121 b 726 162 762 136 743 147 b 683 214 709 176 694 194 b 663 281 672 234 665 256 l 1169 281 b 1171 303 1170 288 1171 295 l 1171 325 b 1147 483 1171 385 1163 438 b 1079 595 1130 528 1108 565 b 977 663 1050 625 1016 648 b 849 686 938 678 895 686 z m 511 281 l 511 258 b 467 149 511 211 496 175 b 336 110 437 123 394 110 b 294 114 322 110 308 111 b 257 128 281 117 268 121 b 230 153 246 134 237 143 b 219 193 223 164 219 177 b 288 265 219 230 242 254 b 474 281 333 275 395 281 z m 1004 400 l 663 400 b 720 516 666 447 685 486 b 847 561 755 546 797 561 b 917 548 874 561 897 557 b 967 513 937 539 954 527 b 995 461 980 498 989 481 b 1004 400 1001 442 1004 421 z "},"ç":{"ha":678,"x_min":0,"x_max":0,"o":"m 556 482 l 669 582 b 560 658 643 614 606 640 b 418 686 515 677 467 686 b 280 661 369 686 323 678 b 167 590 237 644 199 621 b 90 479 134 560 109 523 b 61 333 71 436 61 387 b 84 198 61 283 69 238 b 147 93 99 158 120 123 b 242 21 174 63 206 39 b 361 -15 279 2 319 -10 l 286 -125 l 318 -160 b 346 -153 326 -157 336 -155 b 372 -151 356 -152 365 -151 b 396 -153 380 -151 388 -152 b 419 -161 404 -155 412 -157 b 438 -176 427 -165 433 -170 b 446 -201 443 -183 446 -191 b 438 -231 446 -213 443 -223 b 417 -248 432 -238 425 -244 b 392 -256 409 -252 401 -255 b 367 -258 382 -258 374 -258 b 253 -231 326 -258 288 -249 l 221 -297 b 291 -323 240 -307 264 -316 b 374 -333 318 -330 346 -333 b 438 -327 394 -333 416 -331 b 499 -306 461 -323 481 -316 b 544 -266 517 -297 532 -283 b 563 -203 556 -249 563 -228 b 549 -144 563 -179 558 -159 b 515 -110 541 -130 529 -118 b 469 -92 501 -101 486 -96 b 417 -87 452 -89 434 -87 l 405 -87 b 390 -89 401 -87 396 -88 l 439 -19 b 568 7 485 -18 528 -9 b 668 74 608 23 641 45 l 564 179 b 501 135 548 160 527 145 b 424 119 475 125 450 119 b 341 138 392 119 365 126 b 282 188 317 151 298 167 b 247 256 266 208 254 231 b 235 333 239 282 235 307 b 246 410 235 359 238 385 b 280 479 253 436 265 459 b 338 528 295 500 314 516 b 418 547 361 541 388 547 b 497 528 445 547 471 541 b 556 482 523 516 543 500 z "},"è":{"ha":797,"x_min":0,"x_max":0,"o":"m 569 400 l 228 400 b 285 516 231 447 251 486 b 413 561 320 546 363 561 b 483 548 439 561 463 557 b 532 513 503 539 519 527 b 560 461 545 498 554 481 b 569 400 566 442 569 421 z m 736 325 b 712 483 736 385 728 438 b 644 595 696 528 673 565 b 542 663 616 625 582 648 b 414 686 503 678 460 686 b 274 660 364 686 317 678 b 163 588 231 643 194 619 b 88 476 131 557 106 520 b 61 329 70 432 61 383 b 88 183 61 275 70 226 b 163 74 106 140 131 103 b 276 5 195 44 233 21 b 419 -19 320 -11 368 -19 b 706 114 544 -19 640 25 l 594 203 b 524 140 576 176 552 155 b 418 117 495 124 460 117 b 349 129 394 117 371 121 b 289 163 326 138 306 149 b 247 215 271 178 257 195 b 228 281 236 234 230 256 l 735 281 b 736 303 736 288 736 295 z m 499 783 l 361 983 l 172 983 l 368 783 z "},"é":{"ha":797,"x_min":0,"x_max":0,"o":"m 569 400 l 228 400 b 285 516 231 447 251 486 b 413 561 320 546 363 561 b 483 548 439 561 463 557 b 532 513 503 539 519 527 b 560 461 545 498 554 481 b 569 400 566 442 569 421 z m 736 325 b 712 483 736 385 728 438 b 644 595 696 528 673 565 b 542 663 616 625 582 648 b 414 686 503 678 460 686 b 274 660 364 686 317 678 b 163 588 231 643 194 619 b 88 476 131 557 106 520 b 61 329 70 432 61 383 b 88 183 61 275 70 226 b 163 74 106 140 131 103 b 276 5 195 44 233 21 b 419 -19 320 -11 368 -19 b 706 114 544 -19 640 25 l 594 203 b 524 140 576 176 552 155 b 418 117 495 124 460 117 b 349 129 394 117 371 121 b 289 163 326 138 306 149 b 247 215 271 178 257 195 b 228 281 236 234 230 256 l 735 281 b 736 303 736 288 736 295 z m 458 983 l 321 783 l 451 783 l 647 983 z "},"ê":{"ha":797,"x_min":0,"x_max":0,"o":"m 569 400 l 228 400 b 285 516 231 447 251 486 b 413 561 320 546 363 561 b 483 548 439 561 463 557 b 532 513 503 539 519 527 b 560 461 545 498 554 481 b 569 400 566 442 569 421 z m 736 325 b 712 483 736 385 728 438 b 644 595 696 528 673 565 b 542 663 616 625 582 648 b 414 686 503 678 460 686 b 274 660 364 686 317 678 b 163 588 231 643 194 619 b 88 476 131 557 106 520 b 61 329 70 432 61 383 b 88 183 61 275 70 226 b 163 74 106 140 131 103 b 276 5 195 44 233 21 b 419 -19 320 -11 368 -19 b 706 114 544 -19 640 25 l 594 203 b 524 140 576 176 552 155 b 418 117 495 124 460 117 b 349 129 394 117 371 121 b 289 163 326 138 306 149 b 247 215 271 178 257 195 b 228 281 236 234 230 256 l 735 281 b 736 303 736 288 736 295 z m 514 783 l 672 783 l 514 983 l 326 983 l 167 783 l 322 783 l 418 908 z "},"ë":{"ha":797,"x_min":0,"x_max":0,"o":"m 569 400 l 228 400 b 285 516 231 447 251 486 b 413 561 320 546 363 561 b 483 548 439 561 463 557 b 532 513 503 539 519 527 b 560 461 545 498 554 481 b 569 400 566 442 569 421 z m 736 325 b 712 483 736 385 728 438 b 644 595 696 528 673 565 b 542 663 616 625 582 648 b 414 686 503 678 460 686 b 274 660 364 686 317 678 b 163 588 231 643 194 619 b 88 476 131 557 106 520 b 61 329 70 432 61 383 b 88 183 61 275 70 226 b 163 74 106 140 131 103 b 276 5 195 44 233 21 b 419 -19 320 -11 368 -19 b 706 114 544 -19 640 25 l 594 203 b 524 140 576 176 552 155 b 418 117 495 124 460 117 b 349 129 394 117 371 121 b 289 163 326 138 306 149 b 247 215 271 178 257 195 b 228 281 236 234 230 256 l 735 281 b 736 303 736 288 736 295 z m 181 894 b 208 826 181 869 190 846 b 279 797 227 807 250 797 b 351 825 308 797 332 806 b 381 894 371 844 381 867 b 351 964 381 922 371 945 b 279 992 332 982 308 992 b 208 963 250 992 227 982 b 181 894 190 943 181 920 z m 453 894 b 481 826 453 869 462 846 b 551 797 499 807 523 797 b 624 825 580 797 604 806 b 653 894 643 844 653 867 b 624 964 653 922 643 945 b 551 992 604 982 580 992 b 481 963 523 992 499 982 b 453 894 462 943 453 920 z "},"ì":{"ha":372,"x_min":0,"x_max":0,"o":"m 103 667 l 103 0 l 269 0 l 269 667 z m 268 783 l 131 983 l -58 983 l 138 783 z "},"í":{"ha":372,"x_min":0,"x_max":0,"o":"m 103 667 l 103 0 l 269 0 l 269 667 z m 242 983 l 104 783 l 235 783 l 431 983 z "},"î":{"ha":372,"x_min":0,"x_max":0,"o":"m 103 667 l 103 0 l 269 0 l 269 667 z m 282 783 l 440 783 l 282 983 l 94 983 l -65 783 l 90 783 l 186 908 z "},"ï":{"ha":372,"x_min":0,"x_max":0,"o":"m 103 667 l 103 0 l 269 0 l 269 667 z m -49 894 b -21 826 -49 869 -39 846 b 50 797 -2 807 21 797 b 122 825 79 797 103 806 b 151 894 142 844 151 867 b 122 964 151 922 142 945 b 50 992 103 982 79 992 b -21 963 21 992 -2 982 b -49 894 -39 943 -49 920 z m 224 894 b 251 826 224 869 233 846 b 322 797 270 807 294 797 b 394 825 351 797 375 806 b 424 894 414 844 424 867 b 394 964 424 922 414 945 b 322 992 375 982 351 992 b 251 963 294 992 270 982 b 224 894 233 943 224 920 z "},"ð":{"ha":847,"x_min":0,"x_max":0,"o":"m 703 989 l 614 1067 l 457 993 b 408 1038 447 1003 430 1018 b 336 1096 385 1057 361 1076 l 206 1019 b 265 974 225 1005 245 989 b 314 929 284 958 301 943 l 161 860 l 244 781 l 394 850 b 492 749 431 820 463 787 b 571 633 520 711 547 672 l 568 631 b 498 673 548 650 524 664 b 413 686 472 682 443 686 b 276 660 364 686 319 678 b 165 588 234 643 197 619 b 89 477 133 557 107 520 b 61 333 70 434 61 386 b 89 190 61 281 70 233 b 165 78 107 147 133 109 b 280 6 198 47 236 23 b 424 -19 324 -11 372 -19 b 581 11 483 -19 535 -9 b 694 94 626 31 664 59 b 764 220 725 130 748 172 b 788 378 780 269 788 321 b 767 528 788 430 781 480 b 714 669 754 577 736 624 b 635 798 692 714 666 757 b 540 914 605 839 574 878 z m 424 119 b 337 138 390 119 361 126 b 276 188 312 151 292 167 b 240 256 259 208 247 231 b 228 333 232 282 228 307 b 240 410 228 359 232 385 b 276 479 247 436 259 459 b 337 528 292 500 312 516 b 424 547 361 541 390 547 b 510 528 457 547 486 541 b 572 479 535 516 555 500 b 608 410 588 459 600 436 b 619 333 616 385 619 359 b 608 256 619 307 616 282 b 572 188 600 231 588 208 b 510 138 555 167 535 151 b 424 119 486 126 457 119 z "},"ñ":{"ha":808,"x_min":0,"x_max":0,"o":"m 100 667 l 100 0 l 267 0 l 267 367 b 276 433 267 389 270 411 b 305 490 283 454 292 474 b 353 531 317 507 333 521 b 422 547 372 542 395 547 b 487 531 449 547 471 542 b 525 488 503 519 516 505 b 543 431 534 471 540 452 b 547 369 546 409 547 389 l 547 0 l 714 0 l 714 417 b 700 517 714 451 709 484 b 656 603 691 549 676 578 b 580 663 636 628 611 648 b 468 686 549 678 512 686 b 338 648 418 686 375 673 b 261 560 302 622 276 593 l 258 560 l 258 667 z m 151 789 l 243 789 b 265 831 248 805 255 819 b 307 849 274 843 288 849 b 346 842 318 849 331 846 b 393 824 361 837 376 831 b 449 804 411 816 429 810 b 507 796 468 799 488 796 b 573 811 533 796 555 801 b 618 851 591 821 606 834 b 647 907 630 867 640 886 b 663 972 653 928 659 950 l 571 972 b 549 931 566 956 559 943 b 507 914 540 920 525 914 b 467 922 496 914 483 916 b 417 940 452 927 435 933 b 363 958 400 948 382 954 b 307 965 344 963 325 965 b 241 950 281 965 259 960 b 196 910 223 940 208 927 b 167 854 184 894 174 875 b 151 789 160 833 155 811 z "},"ò":{"ha":847,"x_min":0,"x_max":0,"o":"m 61 336 b 90 192 61 283 71 235 b 167 80 109 148 134 111 b 282 7 199 49 238 25 b 424 -19 326 -11 374 -19 b 565 7 474 -19 521 -11 b 681 80 610 25 648 49 b 758 192 713 111 739 148 b 786 336 777 235 786 283 b 758 480 786 389 777 437 b 681 590 739 523 713 560 b 565 661 648 621 610 644 b 424 686 521 678 474 686 b 282 661 374 686 326 678 b 167 590 238 644 199 621 b 90 480 134 560 109 523 b 61 336 71 437 61 389 z m 231 336 b 242 413 231 362 234 388 b 278 482 250 439 262 462 b 338 531 294 502 313 519 b 424 550 362 544 390 550 b 510 531 457 550 486 544 b 569 482 534 519 554 502 b 605 413 585 462 597 439 b 617 336 613 388 617 362 b 605 258 617 310 613 284 b 569 189 597 232 585 209 b 510 139 554 169 534 152 b 424 119 486 126 457 119 b 338 139 390 119 362 126 b 278 189 313 152 294 169 b 242 258 262 209 250 232 b 231 336 234 284 231 310 z m 526 783 l 389 983 l 200 983 l 396 783 z "},"ó":{"ha":847,"x_min":0,"x_max":0,"o":"m 61 336 b 90 192 61 283 71 235 b 167 80 109 148 134 111 b 282 7 199 49 238 25 b 424 -19 326 -11 374 -19 b 565 7 474 -19 521 -11 b 681 80 610 25 648 49 b 758 192 713 111 739 148 b 786 336 777 235 786 283 b 758 480 786 389 777 437 b 681 590 739 523 713 560 b 565 661 648 621 610 644 b 424 686 521 678 474 686 b 282 661 374 686 326 678 b 167 590 238 644 199 621 b 90 480 134 560 109 523 b 61 336 71 437 61 389 z m 231 336 b 242 413 231 362 234 388 b 278 482 250 439 262 462 b 338 531 294 502 313 519 b 424 550 362 544 390 550 b 510 531 457 550 486 544 b 569 482 534 519 554 502 b 605 413 585 462 597 439 b 617 336 613 388 617 362 b 605 258 617 310 613 284 b 569 189 597 232 585 209 b 510 139 554 169 534 152 b 424 119 486 126 457 119 b 338 139 390 119 362 126 b 278 189 313 152 294 169 b 242 258 262 209 250 232 b 231 336 234 284 231 310 z m 461 983 l 324 783 l 454 783 l 650 983 z "},"ô":{"ha":847,"x_min":0,"x_max":0,"o":"m 61 336 b 90 192 61 283 71 235 b 167 80 109 148 134 111 b 282 7 199 49 238 25 b 424 -19 326 -11 374 -19 b 565 7 474 -19 521 -11 b 681 80 610 25 648 49 b 758 192 713 111 739 148 b 786 336 777 235 786 283 b 758 480 786 389 777 437 b 681 590 739 523 713 560 b 565 661 648 621 610 644 b 424 686 521 678 474 686 b 282 661 374 686 326 678 b 167 590 238 644 199 621 b 90 480 134 560 109 523 b 61 336 71 437 61 389 z m 231 336 b 242 413 231 362 234 388 b 278 482 250 439 262 462 b 338 531 294 502 313 519 b 424 550 362 544 390 550 b 510 531 457 550 486 544 b 569 482 534 519 554 502 b 605 413 585 462 597 439 b 617 336 613 388 617 362 b 605 258 617 310 613 284 b 569 189 597 232 585 209 b 510 139 554 169 534 152 b 424 119 486 126 457 119 b 338 139 390 119 362 126 b 278 189 313 152 294 169 b 242 258 262 209 250 232 b 231 336 234 284 231 310 z m 521 783 l 679 783 l 521 983 l 333 983 l 174 783 l 329 783 l 425 908 z "},"õ":{"ha":847,"x_min":0,"x_max":0,"o":"m 61 336 b 90 192 61 283 71 235 b 167 80 109 148 134 111 b 282 7 199 49 238 25 b 424 -19 326 -11 374 -19 b 565 7 474 -19 521 -11 b 681 80 610 25 648 49 b 758 192 713 111 739 148 b 786 336 777 235 786 283 b 758 480 786 389 777 437 b 681 590 739 523 713 560 b 565 661 648 621 610 644 b 424 686 521 678 474 686 b 282 661 374 686 326 678 b 167 590 238 644 199 621 b 90 480 134 560 109 523 b 61 336 71 437 61 389 z m 231 336 b 242 413 231 362 234 388 b 278 482 250 439 262 462 b 338 531 294 502 313 519 b 424 550 362 544 390 550 b 510 531 457 550 486 544 b 569 482 534 519 554 502 b 605 413 585 462 597 439 b 617 336 613 388 617 362 b 605 258 617 310 613 284 b 569 189 597 232 585 209 b 510 139 554 169 534 152 b 424 119 486 126 457 119 b 338 139 390 119 362 126 b 278 189 313 152 294 169 b 242 258 262 209 250 232 b 231 336 234 284 231 310 z m 171 789 l 263 789 b 284 831 267 805 274 819 b 326 849 294 843 308 849 b 365 842 338 849 350 846 b 413 824 380 837 396 831 b 468 804 430 816 449 810 b 526 796 488 799 507 796 b 592 811 552 796 574 801 b 638 851 610 821 625 834 b 666 907 650 867 659 886 b 682 972 673 928 678 950 l 590 972 b 569 931 586 956 578 943 b 526 914 559 920 545 914 b 487 922 515 914 502 916 b 436 940 472 927 455 933 b 383 958 419 948 402 954 b 326 965 364 963 345 965 b 260 950 300 965 278 960 b 215 910 242 940 227 927 b 187 854 203 894 194 875 b 171 789 180 833 175 811 z "},"ö":{"ha":847,"x_min":0,"x_max":0,"o":"m 61 336 b 90 192 61 283 71 235 b 167 80 109 148 134 111 b 282 7 199 49 238 25 b 424 -19 326 -11 374 -19 b 565 7 474 -19 521 -11 b 681 80 610 25 648 49 b 758 192 713 111 739 148 b 786 336 777 235 786 283 b 758 480 786 389 777 437 b 681 590 739 523 713 560 b 565 661 648 621 610 644 b 424 686 521 678 474 686 b 282 661 374 686 326 678 b 167 590 238 644 199 621 b 90 480 134 560 109 523 b 61 336 71 437 61 389 z m 231 336 b 242 413 231 362 234 388 b 278 482 250 439 262 462 b 338 531 294 502 313 519 b 424 550 362 544 390 550 b 510 531 457 550 486 544 b 569 482 534 519 554 502 b 605 413 585 462 597 439 b 617 336 613 388 617 362 b 605 258 617 310 613 284 b 569 189 597 232 585 209 b 510 139 554 169 534 152 b 424 119 486 126 457 119 b 338 139 390 119 362 126 b 278 189 313 152 294 169 b 242 258 262 209 250 232 b 231 336 234 284 231 310 z m 190 894 b 218 826 190 869 200 846 b 289 797 237 807 260 797 b 361 825 318 797 342 806 b 390 894 381 844 390 867 b 361 964 390 922 381 945 b 289 992 342 982 318 992 b 218 963 260 992 237 982 b 190 894 200 943 190 920 z m 463 894 b 490 826 463 869 472 846 b 561 797 509 807 532 797 b 633 825 590 797 614 806 b 663 894 653 844 663 867 b 633 964 663 922 653 945 b 561 992 614 982 590 992 b 490 963 532 992 509 982 b 463 894 472 943 463 920 z "},"÷":{"ha":925,"x_min":0,"x_max":0,"o":"m 358 671 b 389 597 358 642 369 618 b 463 567 409 577 434 567 b 536 597 491 567 516 577 b 567 671 556 618 567 642 b 536 744 567 700 556 724 b 463 775 516 765 491 775 b 389 744 434 775 409 765 b 358 671 369 724 358 700 z m 358 171 b 389 97 358 142 369 118 b 463 67 409 77 434 67 b 536 97 491 67 516 77 b 567 171 556 118 567 142 b 536 244 567 200 556 224 b 463 275 516 265 491 275 b 389 244 434 275 409 265 b 358 171 369 224 358 200 z m 111 347 l 814 347 l 814 496 l 111 496 z "},"ø":{"ha":847,"x_min":0,"x_max":0,"o":"m 543 513 l 256 217 b 233 269 245 231 238 248 b 225 332 228 291 225 312 b 237 410 225 358 229 384 b 273 483 245 437 257 461 b 335 535 289 504 310 522 b 424 556 360 549 389 556 b 490 544 447 556 469 552 b 543 513 510 536 528 525 z m 303 158 l 593 453 b 615 399 603 437 611 419 b 622 336 620 378 622 357 b 611 258 622 310 619 284 b 576 187 604 231 592 208 b 514 135 559 166 539 149 b 424 115 489 122 459 115 b 358 126 400 115 378 119 b 303 158 337 133 319 144 z m 799 661 l 740 717 l 643 617 b 544 668 614 639 581 656 b 424 686 506 680 466 686 b 282 660 374 686 326 678 b 167 588 238 643 199 619 b 90 477 134 557 109 520 b 61 333 71 434 61 386 b 83 206 61 287 68 245 b 143 104 97 168 117 134 l 50 10 l 106 -47 l 203 51 b 424 -19 263 4 337 -19 b 565 6 474 -19 521 -11 b 681 78 610 23 648 47 b 758 190 713 109 739 147 b 786 333 777 233 786 281 b 765 459 786 379 779 421 b 703 563 750 497 730 532 z "},"ù":{"ha":808,"x_min":0,"x_max":0,"o":"m 708 0 l 708 667 l 542 667 l 542 300 b 532 234 542 278 538 256 b 503 176 525 212 516 193 b 455 135 491 160 475 146 b 386 119 435 125 412 119 b 322 136 359 119 338 125 b 283 178 305 147 293 161 b 265 236 274 196 268 215 b 261 297 263 257 261 278 l 261 667 l 94 667 l 94 250 b 108 150 94 216 99 182 b 152 64 118 118 132 89 b 228 3 172 39 197 19 b 340 -19 259 -12 297 -19 b 470 19 390 -19 434 -7 b 547 107 507 44 532 74 l 550 107 l 550 0 z m 504 783 l 367 983 l 178 983 l 374 783 z "},"ú":{"ha":808,"x_min":0,"x_max":0,"o":"m 708 0 l 708 667 l 542 667 l 542 300 b 532 234 542 278 538 256 b 503 176 525 212 516 193 b 455 135 491 160 475 146 b 386 119 435 125 412 119 b 322 136 359 119 338 125 b 283 178 305 147 293 161 b 265 236 274 196 268 215 b 261 297 263 257 261 278 l 261 667 l 94 667 l 94 250 b 108 150 94 216 99 182 b 152 64 118 118 132 89 b 228 3 172 39 197 19 b 340 -19 259 -12 297 -19 b 470 19 390 -19 434 -7 b 547 107 507 44 532 74 l 550 107 l 550 0 z m 450 983 l 313 783 l 443 783 l 639 983 z "},"û":{"ha":808,"x_min":0,"x_max":0,"o":"m 708 0 l 708 667 l 542 667 l 542 300 b 532 234 542 278 538 256 b 503 176 525 212 516 193 b 455 135 491 160 475 146 b 386 119 435 125 412 119 b 322 136 359 119 338 125 b 283 178 305 147 293 161 b 265 236 274 196 268 215 b 261 297 263 257 261 278 l 261 667 l 94 667 l 94 250 b 108 150 94 216 99 182 b 152 64 118 118 132 89 b 228 3 172 39 197 19 b 340 -19 259 -12 297 -19 b 470 19 390 -19 434 -7 b 547 107 507 44 532 74 l 550 107 l 550 0 z m 501 783 l 660 783 l 501 983 l 314 983 l 154 783 l 310 783 l 406 908 z "},"ü":{"ha":808,"x_min":0,"x_max":0,"o":"m 708 0 l 708 667 l 542 667 l 542 300 b 532 234 542 278 538 256 b 503 176 525 212 516 193 b 455 135 491 160 475 146 b 386 119 435 125 412 119 b 322 136 359 119 338 125 b 283 178 305 147 293 161 b 265 236 274 196 268 215 b 261 297 263 257 261 278 l 261 667 l 94 667 l 94 250 b 108 150 94 216 99 182 b 152 64 118 118 132 89 b 228 3 172 39 197 19 b 340 -19 259 -12 297 -19 b 470 19 390 -19 434 -7 b 547 107 507 44 532 74 l 550 107 l 550 0 z m 169 894 b 197 826 169 869 179 846 b 268 797 216 807 239 797 b 340 825 297 797 321 806 b 369 894 360 844 369 867 b 340 964 369 922 360 945 b 268 992 321 982 297 992 b 197 963 239 992 216 982 b 169 894 179 943 169 920 z m 442 894 b 469 826 442 869 451 846 b 540 797 488 807 512 797 b 613 825 569 797 593 806 b 642 894 632 844 642 867 b 613 964 642 922 632 945 b 540 992 593 982 569 992 b 469 963 512 992 488 982 b 442 894 451 943 442 920 z "},"ý":{"ha":713,"x_min":0,"x_max":0,"o":"m 0 667 l 286 0 l 253 -85 b 232 -131 245 -102 238 -118 b 210 -163 225 -144 218 -154 b 179 -183 201 -172 191 -178 b 135 -189 167 -187 152 -189 b 105 -187 125 -189 116 -188 b 72 -179 94 -185 83 -183 l 58 -324 b 102 -331 73 -327 88 -330 b 144 -333 116 -333 131 -333 b 240 -321 181 -333 213 -329 b 308 -284 266 -312 289 -300 b 358 -224 328 -268 344 -248 b 397 -143 372 -201 385 -174 l 713 667 l 539 667 l 374 182 l 371 182 l 185 667 z m 422 983 l 285 783 l 415 783 l 611 983 z "},"þ":{"ha":882,"x_min":0,"x_max":0,"o":"m 269 1050 l 103 1050 l 103 -317 l 269 -317 l 269 92 l 272 92 b 362 10 291 57 321 30 b 493 -19 403 -9 447 -19 b 630 9 544 -19 590 -10 b 733 85 670 28 704 53 b 798 198 761 117 783 155 b 821 336 813 241 821 287 b 797 474 821 385 813 431 b 731 585 781 516 759 553 b 628 659 702 616 668 641 b 497 686 588 677 544 686 b 415 676 467 686 439 683 b 352 650 391 669 370 660 b 306 617 334 640 319 629 b 274 582 293 605 282 593 l 269 582 z m 651 336 b 640 258 651 310 647 284 b 604 189 632 232 620 209 b 544 139 588 169 569 152 b 460 119 520 126 492 119 b 378 138 429 119 402 126 b 316 188 354 151 333 167 b 277 256 299 208 286 231 b 264 333 268 282 264 307 b 277 411 264 359 268 385 b 316 481 286 437 299 460 b 378 531 333 501 354 518 b 460 550 402 544 429 550 b 544 531 492 550 520 544 b 604 482 569 519 588 502 b 640 413 620 462 632 439 b 651 336 647 388 651 362 z "},"ÿ":{"ha":713,"x_min":0,"x_max":0,"o":"m 0 667 l 286 0 l 253 -85 b 232 -131 245 -102 238 -118 b 210 -163 225 -144 218 -154 b 179 -183 201 -172 191 -178 b 135 -189 167 -187 152 -189 b 105 -187 125 -189 116 -188 b 72 -179 94 -185 83 -183 l 58 -324 b 102 -331 73 -327 88 -330 b 144 -333 116 -333 131 -333 b 240 -321 181 -333 213 -329 b 308 -284 266 -312 289 -300 b 358 -224 328 -268 344 -248 b 397 -143 372 -201 385 -174 l 713 667 l 539 667 l 374 182 l 371 182 l 185 667 z m 136 894 b 164 826 136 869 145 846 b 235 797 182 807 206 797 b 307 825 263 797 288 806 b 336 894 326 844 336 867 b 307 964 336 922 326 945 b 235 992 288 982 263 992 b 164 963 206 992 182 982 b 136 894 145 943 136 920 z m 408 894 b 436 826 408 869 418 846 b 507 797 455 807 478 797 b 579 825 536 797 560 806 b 608 894 599 844 608 867 b 579 964 608 922 599 945 b 507 992 560 982 536 992 b 436 963 478 992 455 982 b 408 894 418 943 408 920 z "},"¤":{"ha":847,"x_min":0,"x_max":0,"o":"m 706 583 l 818 696 l 729 783 l 615 671 b 528 713 590 688 561 702 b 425 728 496 723 461 728 b 323 712 390 728 356 722 b 233 671 290 701 260 688 l 118 783 l 29 696 l 144 581 b 107 494 129 554 116 525 b 93 394 98 463 93 430 b 109 292 93 359 98 325 b 149 204 120 259 133 230 l 29 83 l 118 -6 l 239 114 b 326 74 265 97 294 84 b 425 58 358 63 391 58 b 611 113 497 58 559 76 l 731 -6 l 818 83 l 703 200 b 744 290 720 227 734 257 b 760 394 755 324 760 358 b 706 583 760 466 742 529 z m 425 594 b 506 578 455 594 481 589 b 567 535 530 568 550 553 b 605 472 583 517 596 496 b 618 394 614 448 618 422 b 605 316 618 367 614 341 b 567 252 596 291 583 270 b 506 209 550 234 530 220 b 425 193 481 198 455 193 b 345 209 395 193 369 198 b 285 252 322 220 301 234 b 247 316 268 270 255 291 b 233 394 238 341 233 367 b 247 472 233 422 238 448 b 285 535 255 496 268 517 b 345 578 301 553 322 568 b 425 594 369 589 395 594 z "},"¦":{"ha":308,"x_min":0,"x_max":0,"o":"m 225 938 l 83 938 l 83 451 l 225 451 z m 225 243 l 83 243 l 83 -243 l 225 -243 z "},"¨":{"ha":361,"x_min":0,"x_max":0,"o":"m -56 894 b -28 826 -56 869 -46 846 b 43 797 -9 807 14 797 b 115 825 72 797 96 806 b 144 894 135 844 144 867 b 115 964 144 922 135 945 b 43 992 96 982 72 992 b -28 963 14 992 -9 982 b -56 894 -46 943 -56 920 z m 217 894 b 244 826 217 869 226 846 b 315 797 263 807 287 797 b 388 825 344 797 368 806 b 417 894 407 844 417 867 b 388 964 417 922 407 945 b 315 992 368 982 344 992 b 244 963 287 992 263 982 b 217 894 226 943 217 920 z "},"´":{"ha":361,"x_min":0,"x_max":0,"o":"m 253 983 l 115 783 l 246 783 l 442 983 z "},"¸":{"ha":361,"x_min":0,"x_max":0,"o":"m 185 -89 l 247 0 l 167 0 l 81 -125 l 113 -160 b 140 -153 121 -157 130 -155 b 167 -151 150 -152 159 -151 b 190 -153 174 -151 182 -152 b 214 -161 199 -155 206 -157 b 233 -176 221 -165 228 -170 b 240 -201 238 -183 240 -191 b 232 -231 240 -213 238 -223 b 212 -248 226 -238 220 -244 b 186 -256 204 -252 195 -255 b 161 -258 177 -258 169 -258 b 47 -231 120 -258 82 -249 l 15 -297 b 85 -323 35 -307 58 -316 b 168 -333 113 -330 140 -333 b 233 -327 188 -333 210 -331 b 294 -306 255 -323 276 -316 b 339 -266 312 -297 327 -283 b 357 -203 351 -249 357 -228 b 344 -144 357 -179 353 -159 b 310 -110 335 -130 324 -118 b 263 -92 296 -101 280 -96 b 211 -87 246 -89 229 -87 l 199 -87 b 185 -89 195 -87 190 -88 z "},"¼":{"ha":1250,"x_min":0,"x_max":0,"o":"m 947 118 l 947 0 l 1067 0 l 1067 118 l 1147 118 l 1147 228 l 1067 228 l 1067 596 l 932 596 l 683 221 l 683 118 z m 947 435 l 947 228 l 813 228 l 946 435 z m 836 1028 l 258 8 l 367 -44 l 944 975 z m 58 829 l 132 743 l 233 828 l 233 388 l 364 388 l 364 983 l 249 983 z "},"½":{"ha":1250,"x_min":0,"x_max":0,"o":"m 836 1028 l 258 8 l 367 -44 l 944 975 z m 932 114 l 1071 249 b 1138 328 1097 274 1119 300 b 1167 428 1157 356 1167 389 b 1150 506 1167 457 1161 483 b 1105 561 1139 528 1124 546 b 1040 594 1086 576 1064 587 b 964 606 1015 602 990 606 b 886 592 936 606 910 601 b 823 553 862 582 841 569 b 778 493 805 536 790 516 b 757 418 767 470 760 445 l 879 401 b 905 468 881 428 890 450 b 964 494 920 486 940 494 b 1017 476 985 494 1003 488 b 1038 426 1031 464 1038 448 b 1024 375 1038 408 1033 391 b 988 329 1014 359 1002 344 l 763 106 l 763 0 l 1167 0 l 1167 114 z m 58 829 l 132 743 l 233 828 l 233 388 l 364 388 l 364 983 l 249 983 z "},"¾":{"ha":1250,"x_min":0,"x_max":0,"o":"m 947 118 l 947 0 l 1067 0 l 1067 118 l 1147 118 l 1147 228 l 1067 228 l 1067 596 l 932 596 l 683 221 l 683 118 z m 947 435 l 947 228 l 813 228 l 946 435 z m 836 1028 l 258 8 l 367 -44 l 944 975 z m 206 750 l 206 651 l 243 651 b 285 648 257 651 271 650 b 324 636 300 646 313 642 b 353 613 336 631 346 623 b 365 574 361 602 365 589 b 336 513 365 545 356 525 b 274 494 317 500 296 494 b 209 517 247 494 225 502 b 174 575 193 533 181 552 l 56 540 b 143 421 74 485 103 445 b 279 385 183 397 228 385 b 356 396 305 385 331 388 b 424 429 381 403 403 414 b 473 486 444 444 460 463 b 492 568 485 509 492 537 b 468 654 492 601 484 630 b 400 707 452 678 430 696 b 456 761 424 720 443 738 b 476 836 470 784 476 809 b 419 960 476 892 457 933 b 279 1000 381 987 335 1000 b 152 957 231 1000 189 986 b 78 847 116 928 91 892 l 197 818 b 225 871 202 839 211 857 b 275 892 239 885 256 892 b 327 875 295 892 313 886 b 349 829 341 864 349 849 b 316 767 349 800 338 779 b 244 750 294 756 270 750 z "},"Ā":{"ha":981,"x_min":0,"x_max":0,"o":"m 417 983 l -11 0 l 185 0 l 274 225 l 700 225 l 792 0 l 992 0 l 568 983 z m 639 375 l 333 375 l 488 775 z m 715 1104 l 715 1213 l 271 1213 l 271 1104 z "},"ā":{"ha":764,"x_min":0,"x_max":0,"o":"m 514 85 l 514 0 l 669 0 l 669 406 b 656 506 669 439 665 472 b 610 596 647 539 632 569 b 519 661 588 623 557 644 b 372 686 480 678 431 686 b 222 660 321 686 271 677 b 90 581 172 642 128 616 l 176 479 b 257 533 198 500 225 519 b 358 556 289 548 323 556 b 466 526 400 556 436 546 b 511 433 496 506 511 475 l 511 417 b 352 409 459 417 406 414 b 204 378 298 404 249 394 b 95 310 160 362 123 339 b 53 190 67 280 53 240 b 77 92 53 151 61 119 b 138 28 93 66 114 45 b 219 -6 163 12 190 1 b 303 -17 248 -13 276 -17 b 429 12 350 -17 392 -7 b 510 85 466 31 493 55 z m 511 304 l 511 281 b 467 156 511 228 496 186 b 336 110 437 125 394 110 b 294 114 322 110 308 111 b 257 128 281 117 268 121 b 230 153 246 134 237 143 b 219 193 223 164 219 177 b 244 252 219 218 228 238 b 307 285 261 266 282 278 b 389 301 332 293 359 298 b 474 304 419 303 447 304 z m 617 826 l 617 935 l 172 935 l 172 826 z "},"Ă":{"ha":981,"x_min":0,"x_max":0,"o":"m 417 983 l -11 0 l 185 0 l 274 225 l 700 225 l 792 0 l 992 0 l 568 983 z m 639 375 l 333 375 l 488 775 z m 349 1261 l 256 1261 b 326 1109 260 1192 284 1141 b 490 1061 369 1077 424 1061 b 653 1110 557 1061 611 1077 b 728 1261 696 1142 720 1193 l 636 1261 b 586 1186 626 1222 609 1197 b 492 1169 563 1175 531 1169 b 399 1189 456 1169 425 1176 b 349 1261 372 1202 355 1226 z "},"ă":{"ha":764,"x_min":0,"x_max":0,"o":"m 514 85 l 514 0 l 669 0 l 669 406 b 656 506 669 439 665 472 b 610 596 647 539 632 569 b 519 661 588 623 557 644 b 372 686 480 678 431 686 b 222 660 321 686 271 677 b 90 581 172 642 128 616 l 176 479 b 257 533 198 500 225 519 b 358 556 289 548 323 556 b 466 526 400 556 436 546 b 511 433 496 506 511 475 l 511 417 b 352 409 459 417 406 414 b 204 378 298 404 249 394 b 95 310 160 362 123 339 b 53 190 67 280 53 240 b 77 92 53 151 61 119 b 138 28 93 66 114 45 b 219 -6 163 12 190 1 b 303 -17 248 -13 276 -17 b 429 12 350 -17 392 -7 b 510 85 466 31 493 55 z m 511 304 l 511 281 b 467 156 511 228 496 186 b 336 110 437 125 394 110 b 294 114 322 110 308 111 b 257 128 281 117 268 121 b 230 153 246 134 237 143 b 219 193 223 164 219 177 b 244 252 219 218 228 238 b 307 285 261 266 282 278 b 389 301 332 293 359 298 b 474 304 419 303 447 304 z m 244 983 l 151 983 b 222 831 156 914 180 863 b 386 783 265 799 319 783 b 549 832 453 783 507 800 b 624 983 591 864 616 915 l 532 983 b 482 908 522 944 505 919 b 388 892 459 897 427 892 b 294 911 352 892 321 898 b 244 983 268 924 251 948 z "},"Ą":{"ha":981,"x_min":0,"x_max":0,"o":"m 942 -272 l 907 -204 b 872 -225 897 -212 885 -219 b 832 -233 858 -231 845 -233 b 787 -215 814 -233 799 -227 b 768 -169 774 -202 768 -187 b 778 -125 768 -156 772 -141 b 805 -78 785 -109 794 -94 b 839 -35 816 -63 827 -49 b 874 0 851 -22 863 -10 l 992 0 l 568 983 l 417 983 l -11 0 l 185 0 l 274 225 l 700 225 l 790 1 b 745 -39 775 -10 760 -23 b 703 -89 730 -55 716 -71 b 672 -144 691 -106 681 -125 b 660 -201 664 -163 660 -182 b 672 -255 660 -222 664 -240 b 703 -294 679 -270 690 -283 b 749 -317 717 -304 732 -312 b 803 -325 766 -322 784 -325 b 877 -310 829 -325 853 -320 b 942 -272 901 -301 922 -288 z m 639 375 l 333 375 l 488 775 z "},"ą":{"ha":764,"x_min":0,"x_max":0,"o":"m 656 -272 l 621 -204 b 585 -225 611 -212 599 -219 b 546 -233 572 -231 559 -233 b 501 -215 528 -233 513 -227 b 482 -169 488 -202 482 -187 b 492 -125 482 -156 485 -141 b 519 -78 499 -109 508 -94 b 553 -35 529 -63 541 -49 b 588 0 565 -22 576 -10 l 669 0 l 669 406 b 656 506 669 439 665 472 b 610 596 647 539 632 569 b 519 661 588 623 557 644 b 372 686 480 678 431 686 b 222 660 321 686 271 677 b 90 581 172 642 128 616 l 176 479 b 257 533 198 500 225 519 b 358 556 289 548 323 556 b 466 526 400 556 436 546 b 511 433 496 506 511 475 l 511 417 b 352 409 459 417 406 414 b 204 378 298 404 249 394 b 95 310 160 362 123 339 b 53 190 67 280 53 240 b 77 92 53 151 61 119 b 138 28 93 66 114 45 b 219 -6 163 12 190 1 b 303 -17 248 -13 276 -17 b 429 12 350 -17 392 -7 b 510 85 466 31 493 55 l 514 85 l 514 8 l 513 8 b 466 -33 498 -3 482 -16 b 421 -84 450 -49 435 -66 b 387 -142 407 -102 396 -121 b 374 -201 378 -162 374 -182 b 385 -255 374 -222 378 -240 b 417 -294 393 -270 404 -283 b 463 -317 431 -304 446 -312 b 517 -325 480 -322 498 -325 b 591 -310 543 -325 567 -320 b 656 -272 615 -301 636 -288 z m 511 304 l 511 281 b 467 156 511 228 496 186 b 336 110 437 125 394 110 b 294 114 322 110 308 111 b 257 128 281 117 268 121 b 230 153 246 134 237 143 b 219 193 223 164 219 177 b 244 252 219 218 228 238 b 307 285 261 266 282 278 b 389 301 332 293 359 298 b 474 304 419 303 447 304 z "},"Ć":{"ha":967,"x_min":0,"x_max":0,"o":"m 818 753 l 951 858 b 881 925 932 884 908 906 b 792 972 853 944 823 959 b 693 999 760 984 727 993 b 594 1008 659 1005 626 1008 b 383 972 519 1008 448 996 b 215 869 319 948 262 914 b 102 708 167 825 129 771 b 61 494 75 644 61 573 b 100 284 61 418 74 347 b 208 120 126 221 162 166 b 374 13 255 74 310 39 b 586 -25 439 -12 509 -25 b 807 20 670 -25 744 -10 b 967 147 870 50 923 93 l 826 246 b 728 163 801 212 769 184 b 588 132 687 142 640 132 b 450 158 537 132 491 141 b 345 233 409 176 374 201 b 278 347 316 265 294 303 b 254 494 262 392 254 441 b 278 636 254 545 262 593 b 348 750 295 680 318 718 b 456 826 378 782 414 808 b 594 854 497 845 544 854 b 717 830 634 854 675 846 b 818 753 758 814 792 788 z m 596 1261 l 458 1061 l 589 1061 l 785 1261 z "},"ć":{"ha":678,"x_min":0,"x_max":0,"o":"m 556 482 l 669 582 b 560 658 643 614 606 640 b 418 686 515 677 467 686 b 280 661 369 686 323 678 b 167 590 237 644 199 621 b 90 479 134 560 109 523 b 61 333 71 436 61 387 b 90 185 61 278 71 228 b 167 74 109 141 134 104 b 283 4 200 43 239 20 b 422 -19 327 -12 373 -19 b 562 5 472 -19 519 -11 b 668 74 605 21 640 44 l 564 179 b 501 135 548 160 527 145 b 424 119 475 125 450 119 b 341 138 392 119 365 126 b 282 188 317 151 298 167 b 247 256 266 208 254 231 b 235 333 239 282 235 307 b 246 410 235 359 238 385 b 280 479 253 436 265 459 b 338 528 295 500 314 516 b 418 547 361 541 388 547 b 497 528 445 547 471 541 b 556 482 523 516 543 500 z m 456 983 l 318 783 l 449 783 l 644 983 z "},"Ĉ":{"ha":967,"x_min":0,"x_max":0,"o":"m 818 753 l 951 858 b 881 925 932 884 908 906 b 792 972 853 944 823 959 b 693 999 760 984 727 993 b 594 1008 659 1005 626 1008 b 383 972 519 1008 448 996 b 215 869 319 948 262 914 b 102 708 167 825 129 771 b 61 494 75 644 61 573 b 100 284 61 418 74 347 b 208 120 126 221 162 166 b 374 13 255 74 310 39 b 586 -25 439 -12 509 -25 b 807 20 670 -25 744 -10 b 967 147 870 50 923 93 l 826 246 b 728 163 801 212 769 184 b 588 132 687 142 640 132 b 450 158 537 132 491 141 b 345 233 409 176 374 201 b 278 347 316 265 294 303 b 254 494 262 392 254 441 b 278 636 254 545 262 593 b 348 750 295 680 318 718 b 456 826 378 782 414 808 b 594 854 497 845 544 854 b 717 830 634 854 675 846 b 818 753 758 814 792 788 z m 690 1061 l 849 1061 l 690 1261 l 503 1261 l 343 1061 l 499 1061 l 594 1186 z "},"ĉ":{"ha":678,"x_min":0,"x_max":0,"o":"m 556 482 l 669 582 b 560 658 643 614 606 640 b 418 686 515 677 467 686 b 280 661 369 686 323 678 b 167 590 237 644 199 621 b 90 479 134 560 109 523 b 61 333 71 436 61 387 b 90 185 61 278 71 228 b 167 74 109 141 134 104 b 283 4 200 43 239 20 b 422 -19 327 -12 373 -19 b 562 5 472 -19 519 -11 b 668 74 605 21 640 44 l 564 179 b 501 135 548 160 527 145 b 424 119 475 125 450 119 b 341 138 392 119 365 126 b 282 188 317 151 298 167 b 247 256 266 208 254 231 b 235 333 239 282 235 307 b 246 410 235 359 238 385 b 280 479 253 436 265 459 b 338 528 295 500 314 516 b 418 547 361 541 388 547 b 497 528 445 547 471 541 b 556 482 523 516 543 500 z m 513 783 l 671 783 l 513 983 l 325 983 l 165 783 l 321 783 l 417 908 z "},"Ċ":{"ha":967,"x_min":0,"x_max":0,"o":"m 818 753 l 951 858 b 881 925 932 884 908 906 b 792 972 853 944 823 959 b 693 999 760 984 727 993 b 594 1008 659 1005 626 1008 b 383 972 519 1008 448 996 b 215 869 319 948 262 914 b 102 708 167 825 129 771 b 61 494 75 644 61 573 b 100 284 61 418 74 347 b 208 120 126 221 162 166 b 374 13 255 74 310 39 b 586 -25 439 -12 509 -25 b 807 20 670 -25 744 -10 b 967 147 870 50 923 93 l 826 246 b 728 163 801 212 769 184 b 588 132 687 142 640 132 b 450 158 537 132 491 141 b 345 233 409 176 374 201 b 278 347 316 265 294 303 b 254 494 262 392 254 441 b 278 636 254 545 262 593 b 348 750 295 680 318 718 b 456 826 378 782 414 808 b 594 854 497 845 544 854 b 717 830 634 854 675 846 b 818 753 758 814 792 788 z m 485 1171 b 515 1101 485 1144 495 1121 b 590 1071 534 1081 560 1071 b 667 1099 621 1071 647 1080 b 699 1171 688 1118 699 1142 b 667 1242 699 1200 688 1223 b 590 1271 647 1261 621 1271 b 515 1241 560 1271 534 1261 b 485 1171 495 1221 485 1198 z "},"ċ":{"ha":678,"x_min":0,"x_max":0,"o":"m 556 482 l 669 582 b 560 658 643 614 606 640 b 418 686 515 677 467 686 b 280 661 369 686 323 678 b 167 590 237 644 199 621 b 90 479 134 560 109 523 b 61 333 71 436 61 387 b 90 185 61 278 71 228 b 167 74 109 141 134 104 b 283 4 200 43 239 20 b 422 -19 327 -12 373 -19 b 562 5 472 -19 519 -11 b 668 74 605 21 640 44 l 564 179 b 501 135 548 160 527 145 b 424 119 475 125 450 119 b 341 138 392 119 365 126 b 282 188 317 151 298 167 b 247 256 266 208 254 231 b 235 333 239 282 235 307 b 246 410 235 359 238 385 b 280 479 253 436 265 459 b 338 528 295 500 314 516 b 418 547 361 541 388 547 b 497 528 445 547 471 541 b 556 482 523 516 543 500 z m 308 893 b 338 823 308 866 318 843 b 414 793 358 803 383 793 b 491 822 444 793 470 803 b 522 893 512 841 522 864 b 491 965 522 922 512 946 b 414 993 470 984 444 993 b 338 963 383 993 358 983 b 308 893 318 943 308 920 z "},"Č":{"ha":967,"x_min":0,"x_max":0,"o":"m 818 753 l 951 858 b 881 925 932 884 908 906 b 792 972 853 944 823 959 b 693 999 760 984 727 993 b 594 1008 659 1005 626 1008 b 383 972 519 1008 448 996 b 215 869 319 948 262 914 b 102 708 167 825 129 771 b 61 494 75 644 61 573 b 100 284 61 418 74 347 b 208 120 126 221 162 166 b 374 13 255 74 310 39 b 586 -25 439 -12 509 -25 b 807 20 670 -25 744 -10 b 967 147 870 50 923 93 l 826 246 b 728 163 801 212 769 184 b 588 132 687 142 640 132 b 450 158 537 132 491 141 b 345 233 409 176 374 201 b 278 347 316 265 294 303 b 254 494 262 392 254 441 b 278 636 254 545 262 593 b 348 750 295 680 318 718 b 456 826 378 782 414 808 b 594 854 497 845 544 854 b 717 830 634 854 675 846 b 818 753 758 814 792 788 z m 496 1261 l 338 1261 l 496 1061 l 681 1061 l 840 1261 l 688 1261 l 592 1136 z "},"č":{"ha":678,"x_min":0,"x_max":0,"o":"m 556 482 l 669 582 b 560 658 643 614 606 640 b 418 686 515 677 467 686 b 280 661 369 686 323 678 b 167 590 237 644 199 621 b 90 479 134 560 109 523 b 61 333 71 436 61 387 b 90 185 61 278 71 228 b 167 74 109 141 134 104 b 283 4 200 43 239 20 b 422 -19 327 -12 373 -19 b 562 5 472 -19 519 -11 b 668 74 605 21 640 44 l 564 179 b 501 135 548 160 527 145 b 424 119 475 125 450 119 b 341 138 392 119 365 126 b 282 188 317 151 298 167 b 247 256 266 208 254 231 b 235 333 239 282 235 307 b 246 410 235 359 238 385 b 280 479 253 436 265 459 b 338 528 295 500 314 516 b 418 547 361 541 388 547 b 497 528 445 547 471 541 b 556 482 523 516 543 500 z m 326 983 l 168 983 l 326 783 l 511 783 l 671 983 l 518 983 l 422 858 z "},"Ď":{"ha":1061,"x_min":0,"x_max":0,"o":"m 108 983 l 108 0 l 457 0 b 650 28 521 0 585 9 b 825 117 715 47 773 77 b 951 269 877 156 919 207 b 1000 492 984 331 1000 406 b 951 724 1000 584 984 662 b 825 876 919 787 877 837 b 650 958 773 914 715 942 b 457 983 585 975 521 983 z m 429 153 l 283 153 l 283 833 l 429 833 b 565 819 475 833 520 829 b 688 768 611 810 652 793 b 778 664 725 743 755 708 b 813 492 801 619 813 562 b 778 326 813 425 801 370 b 688 223 755 283 725 248 b 565 169 652 197 611 179 b 429 153 520 158 475 153 z m 385 1261 l 226 1261 l 385 1061 l 569 1061 l 729 1261 l 576 1261 l 481 1136 z "},"ď":{"ha":881,"x_min":0,"x_max":0,"o":"m 778 0 l 778 1050 l 611 1050 l 611 582 l 607 582 b 575 617 599 593 588 605 b 528 650 562 629 547 640 b 465 676 510 660 489 669 b 383 686 441 683 414 686 b 253 659 336 686 293 677 b 150 585 213 641 179 616 b 83 474 121 553 99 516 b 60 336 68 431 60 385 b 83 198 60 287 67 241 b 148 85 98 155 120 117 b 251 9 176 53 210 28 b 388 -19 291 -10 337 -19 b 520 11 435 -19 479 -9 b 617 100 561 31 594 61 l 619 100 l 619 0 z m 229 336 b 241 413 229 362 233 388 b 276 482 249 439 261 462 b 336 531 292 502 312 519 b 421 550 360 544 388 550 b 503 531 451 550 479 544 b 565 481 527 518 547 501 b 603 411 582 460 595 437 b 617 333 612 385 617 359 b 603 256 617 307 612 282 b 565 188 595 231 582 208 b 503 138 547 167 527 151 b 421 119 479 126 451 119 b 336 139 388 119 360 126 b 276 189 312 152 292 169 b 241 258 261 209 249 232 b 229 336 233 284 229 310 z m 906 983 l 815 713 l 942 713 l 1053 983 z "},"Đ":{"ha":1061,"x_min":0,"x_max":0,"o":"m 110 450 l 110 0 l 476 0 b 658 30 536 0 596 10 b 826 120 719 50 775 80 b 949 273 876 160 917 211 b 997 492 981 334 997 407 b 956 709 997 575 983 647 b 844 863 928 771 891 822 b 685 953 798 903 745 934 b 497 983 625 973 562 983 l 110 983 l 110 567 l 18 567 l 18 450 z m 415 158 l 285 158 l 285 450 l 585 450 l 585 567 l 285 567 l 285 825 l 444 825 b 592 806 498 825 547 819 b 709 748 637 794 676 774 b 786 644 742 722 768 687 b 814 492 805 602 814 551 b 783 338 814 431 803 380 b 697 235 762 296 733 262 b 570 177 661 209 619 190 b 415 158 522 165 470 158 z "},"đ":{"ha":881,"x_min":0,"x_max":0,"o":"m 853 792 l 853 896 l 778 896 l 778 1050 l 611 1050 l 611 896 l 375 896 l 375 792 l 611 792 l 611 582 l 607 582 b 575 617 599 593 588 605 b 528 650 562 629 547 640 b 465 676 510 660 489 669 b 383 686 441 683 414 686 b 253 659 336 686 293 677 b 150 585 213 641 179 616 b 83 474 121 553 99 516 b 60 336 68 431 60 385 b 83 198 60 287 67 241 b 148 85 98 155 120 117 b 251 9 176 53 210 28 b 388 -19 291 -10 337 -19 b 520 11 435 -19 479 -9 b 617 100 561 31 594 61 l 619 100 l 619 0 l 778 0 l 778 792 z m 229 336 b 241 413 229 362 233 388 b 276 482 249 439 261 462 b 336 531 292 502 312 519 b 421 550 360 544 388 550 b 503 531 451 550 479 544 b 565 481 527 518 547 501 b 603 411 582 460 595 437 b 617 333 612 385 617 359 b 603 256 617 307 612 282 b 565 188 595 231 582 208 b 503 138 547 167 527 151 b 421 119 479 126 451 119 b 336 139 388 119 360 126 b 276 189 312 152 292 169 b 241 258 261 209 249 232 b 229 336 233 284 229 310 z "},"Ē":{"ha":847,"x_min":0,"x_max":0,"o":"m 108 983 l 108 0 l 785 0 l 785 156 l 283 156 l 283 433 l 735 433 l 735 581 l 283 581 l 283 831 l 760 831 l 760 983 z m 663 1104 l 663 1213 l 218 1213 l 218 1104 z "},"ē":{"ha":797,"x_min":0,"x_max":0,"o":"m 569 400 l 228 400 b 285 516 231 447 251 486 b 413 561 320 546 363 561 b 483 548 439 561 463 557 b 532 513 503 539 519 527 b 560 461 545 498 554 481 b 569 400 566 442 569 421 z m 736 325 b 712 483 736 385 728 438 b 644 595 696 528 673 565 b 542 663 616 625 582 648 b 414 686 503 678 460 686 b 274 660 364 686 317 678 b 163 588 231 643 194 619 b 88 476 131 557 106 520 b 61 329 70 432 61 383 b 88 183 61 275 70 226 b 163 74 106 140 131 103 b 276 5 195 44 233 21 b 419 -19 320 -11 368 -19 b 706 114 544 -19 640 25 l 594 203 b 524 140 576 176 552 155 b 418 117 495 124 460 117 b 349 129 394 117 371 121 b 289 163 326 138 306 149 b 247 215 271 178 257 195 b 228 281 236 234 230 256 l 735 281 b 736 303 736 288 736 295 z m 638 826 l 638 935 l 193 935 l 193 826 z "},"Ĕ":{"ha":847,"x_min":0,"x_max":0,"o":"m 108 983 l 108 0 l 785 0 l 785 156 l 283 156 l 283 433 l 735 433 l 735 581 l 283 581 l 283 831 l 760 831 l 760 983 z m 296 1261 l 203 1261 b 274 1109 207 1192 231 1141 b 438 1061 316 1077 371 1061 b 601 1110 504 1061 559 1077 b 675 1261 643 1142 668 1193 l 583 1261 b 533 1186 573 1222 556 1197 b 439 1169 510 1175 479 1169 b 346 1189 404 1169 373 1176 b 296 1261 319 1202 302 1226 z "},"ĕ":{"ha":797,"x_min":0,"x_max":0,"o":"m 569 400 l 228 400 b 285 516 231 447 251 486 b 413 561 320 546 363 561 b 483 548 439 561 463 557 b 532 513 503 539 519 527 b 560 461 545 498 554 481 b 569 400 566 442 569 421 z m 736 325 b 712 483 736 385 728 438 b 644 595 696 528 673 565 b 542 663 616 625 582 648 b 414 686 503 678 460 686 b 274 660 364 686 317 678 b 163 588 231 643 194 619 b 88 476 131 557 106 520 b 61 329 70 432 61 383 b 88 183 61 275 70 226 b 163 74 106 140 131 103 b 276 5 195 44 233 21 b 419 -19 320 -11 368 -19 b 706 114 544 -19 640 25 l 594 203 b 524 140 576 176 552 155 b 418 117 495 124 460 117 b 349 129 394 117 371 121 b 289 163 326 138 306 149 b 247 215 271 178 257 195 b 228 281 236 234 230 256 l 735 281 b 736 303 736 288 736 295 z m 275 983 l 182 983 b 253 831 187 914 210 863 b 417 783 295 799 350 783 b 580 832 483 783 538 800 b 654 983 622 864 647 915 l 563 983 b 513 908 552 944 536 919 b 418 892 489 897 458 892 b 325 911 383 892 352 898 b 275 983 298 924 281 948 z "},"Ė":{"ha":847,"x_min":0,"x_max":0,"o":"m 108 983 l 108 0 l 785 0 l 785 156 l 283 156 l 283 433 l 735 433 l 735 581 l 283 581 l 283 831 l 760 831 l 760 983 z m 339 1171 b 369 1101 339 1144 349 1121 b 444 1071 389 1081 414 1071 b 522 1099 475 1071 501 1080 b 553 1171 542 1118 553 1142 b 522 1242 553 1200 542 1223 b 444 1271 501 1261 475 1271 b 369 1241 414 1271 389 1261 b 339 1171 349 1221 339 1198 z "},"ė":{"ha":797,"x_min":0,"x_max":0,"o":"m 569 400 l 228 400 b 285 516 231 447 251 486 b 413 561 320 546 363 561 b 483 548 439 561 463 557 b 532 513 503 539 519 527 b 560 461 545 498 554 481 b 569 400 566 442 569 421 z m 736 325 b 712 483 736 385 728 438 b 644 595 696 528 673 565 b 542 663 616 625 582 648 b 414 686 503 678 460 686 b 274 660 364 686 317 678 b 163 588 231 643 194 619 b 88 476 131 557 106 520 b 61 329 70 432 61 383 b 88 183 61 275 70 226 b 163 74 106 140 131 103 b 276 5 195 44 233 21 b 419 -19 320 -11 368 -19 b 706 114 544 -19 640 25 l 594 203 b 524 140 576 176 552 155 b 418 117 495 124 460 117 b 349 129 394 117 371 121 b 289 163 326 138 306 149 b 247 215 271 178 257 195 b 228 281 236 234 230 256 l 735 281 b 736 303 736 288 736 295 z m 308 893 b 338 823 308 866 318 843 b 414 793 358 803 383 793 b 491 822 444 793 470 803 b 522 893 512 841 522 864 b 491 965 522 922 512 946 b 414 993 470 984 444 993 b 338 963 383 993 358 983 b 308 893 318 943 308 920 z "},"Ę":{"ha":847,"x_min":0,"x_max":0,"o":"m 108 983 l 108 0 l 663 0 b 618 -41 648 -12 633 -26 b 577 -90 603 -56 590 -73 b 547 -145 565 -108 554 -126 b 535 -201 539 -164 535 -183 b 547 -255 535 -222 539 -240 b 578 -294 554 -270 565 -283 b 624 -317 592 -304 607 -312 b 678 -325 641 -322 659 -325 b 752 -310 704 -325 728 -320 b 817 -272 776 -301 797 -288 l 782 -204 b 747 -225 772 -212 760 -219 b 707 -233 733 -231 720 -233 b 662 -215 689 -233 674 -227 b 643 -169 649 -202 643 -187 b 653 -125 643 -156 647 -141 b 680 -78 660 -109 669 -94 b 714 -35 691 -63 702 -49 b 749 0 726 -22 738 -10 l 785 0 l 785 156 l 283 156 l 283 433 l 735 433 l 735 581 l 283 581 l 283 831 l 760 831 l 760 983 z "},"ę":{"ha":797,"x_min":0,"x_max":0,"o":"m 583 -272 l 549 -204 b 513 -225 538 -212 527 -219 b 474 -233 500 -231 487 -233 b 428 -215 456 -233 441 -227 b 410 -169 416 -202 410 -187 b 418 -128 410 -156 413 -143 b 440 -86 424 -114 431 -100 b 471 -46 450 -72 460 -59 b 503 -11 482 -33 493 -21 b 706 114 588 5 656 46 l 594 203 b 524 140 576 176 552 155 b 418 117 495 124 460 117 b 349 129 394 117 371 121 b 289 163 326 138 306 149 b 247 215 271 178 257 195 b 228 281 236 234 230 256 l 735 281 b 736 303 736 288 736 295 l 736 325 b 712 483 736 385 728 438 b 644 595 696 528 673 565 b 542 663 616 625 582 648 b 414 686 503 678 460 686 b 274 660 364 686 317 678 b 163 588 231 643 194 619 b 88 476 131 557 106 520 b 61 329 70 432 61 383 b 87 186 61 276 70 229 b 159 77 104 144 128 107 b 269 7 190 47 227 24 b 407 -19 311 -10 357 -19 b 368 -59 394 -31 381 -45 b 334 -104 355 -73 344 -88 b 310 -152 324 -120 316 -136 b 301 -201 304 -168 301 -185 b 313 -255 301 -222 305 -240 b 345 -294 321 -270 332 -283 b 391 -317 359 -304 374 -312 b 444 -325 408 -322 426 -325 b 519 -310 470 -325 495 -320 b 583 -272 542 -301 564 -288 z m 569 400 l 228 400 b 285 516 231 447 251 486 b 413 561 320 546 363 561 b 483 548 439 561 463 557 b 532 513 503 539 519 527 b 560 461 545 498 554 481 b 569 400 566 442 569 421 z "},"Ě":{"ha":847,"x_min":0,"x_max":0,"o":"m 108 983 l 108 0 l 785 0 l 785 156 l 283 156 l 283 433 l 735 433 l 735 581 l 283 581 l 283 831 l 760 831 l 760 983 z m 346 1261 l 188 1261 l 346 1061 l 531 1061 l 690 1261 l 538 1261 l 442 1136 z "},"ě":{"ha":797,"x_min":0,"x_max":0,"o":"m 569 400 l 228 400 b 285 516 231 447 251 486 b 413 561 320 546 363 561 b 483 548 439 561 463 557 b 532 513 503 539 519 527 b 560 461 545 498 554 481 b 569 400 566 442 569 421 z m 736 325 b 712 483 736 385 728 438 b 644 595 696 528 673 565 b 542 663 616 625 582 648 b 414 686 503 678 460 686 b 274 660 364 686 317 678 b 163 588 231 643 194 619 b 88 476 131 557 106 520 b 61 329 70 432 61 383 b 88 183 61 275 70 226 b 163 74 106 140 131 103 b 276 5 195 44 233 21 b 419 -19 320 -11 368 -19 b 706 114 544 -19 640 25 l 594 203 b 524 140 576 176 552 155 b 418 117 495 124 460 117 b 349 129 394 117 371 121 b 289 163 326 138 306 149 b 247 215 271 178 257 195 b 228 281 236 234 230 256 l 735 281 b 736 303 736 288 736 295 z m 325 983 l 167 983 l 325 783 l 510 783 l 669 983 l 517 983 l 421 858 z "},"Ĝ":{"ha":1074,"x_min":0,"x_max":0,"o":"m 969 51 l 969 561 l 593 561 l 593 417 l 800 417 l 800 167 b 604 132 744 144 679 132 b 458 159 550 132 501 141 b 348 235 415 177 378 202 b 278 349 318 267 295 305 b 254 494 262 393 254 442 b 278 636 254 545 262 593 b 347 750 295 680 318 718 b 455 826 377 782 413 808 b 596 854 497 845 544 854 b 742 825 649 854 697 844 b 847 754 787 806 822 782 l 968 885 b 810 974 928 922 876 952 b 594 1008 745 997 673 1008 b 383 972 519 1008 448 996 b 215 869 319 948 262 914 b 102 708 167 825 129 771 b 61 494 75 644 61 573 b 101 284 61 418 74 347 b 211 120 127 221 164 166 b 381 13 258 74 315 39 b 599 -25 446 -12 519 -25 b 805 -5 676 -25 745 -18 b 969 51 865 9 919 27 z m 693 1061 l 851 1061 l 693 1261 l 506 1261 l 346 1061 l 501 1061 l 597 1186 z "},"ĝ":{"ha":878,"x_min":0,"x_max":0,"o":"m 778 667 l 619 667 l 619 567 l 617 567 b 519 657 593 607 560 638 b 388 686 479 676 435 686 b 252 658 338 686 292 677 b 149 583 212 640 178 615 b 84 472 121 552 99 515 b 61 336 69 430 61 384 b 85 202 61 289 69 244 b 151 92 100 160 122 123 b 254 17 179 60 213 35 b 390 -11 295 -2 340 -11 b 516 15 437 -11 478 -3 b 608 89 553 32 584 56 l 611 89 l 611 40 b 601 -51 611 7 608 -24 b 566 -124 594 -79 582 -103 b 501 -172 550 -144 528 -160 b 400 -189 473 -183 440 -189 b 276 -165 358 -189 317 -181 b 167 -94 236 -148 199 -125 l 71 -224 b 143 -271 92 -241 116 -257 b 227 -306 170 -285 198 -296 b 316 -326 256 -315 286 -322 b 401 -333 346 -331 375 -333 b 569 -306 466 -333 522 -324 b 687 -227 617 -287 656 -261 b 756 -103 718 -193 741 -152 b 778 60 770 -55 778 0 z m 422 550 b 504 533 453 550 480 544 b 566 488 528 522 549 507 b 606 419 583 468 596 445 b 619 338 615 394 619 366 b 606 258 619 310 615 283 b 566 190 596 232 583 210 b 503 144 549 171 528 155 b 421 126 479 132 451 126 b 341 144 391 126 365 132 b 281 192 317 156 297 172 b 244 260 265 212 253 235 b 231 338 235 285 231 311 b 244 421 231 367 235 395 b 281 488 253 447 265 469 b 341 533 297 507 317 522 b 422 550 365 544 392 550 z m 546 783 l 704 783 l 546 983 l 358 983 l 199 783 l 354 783 l 450 908 z "},"Ğ":{"ha":1074,"x_min":0,"x_max":0,"o":"m 969 51 l 969 561 l 593 561 l 593 417 l 800 417 l 800 167 b 604 132 744 144 679 132 b 458 159 550 132 501 141 b 348 235 415 177 378 202 b 278 349 318 267 295 305 b 254 494 262 393 254 442 b 278 636 254 545 262 593 b 347 750 295 680 318 718 b 455 826 377 782 413 808 b 596 854 497 845 544 854 b 742 825 649 854 697 844 b 847 754 787 806 822 782 l 968 885 b 810 974 928 922 876 952 b 594 1008 745 997 673 1008 b 383 972 519 1008 448 996 b 215 869 319 948 262 914 b 102 708 167 825 129 771 b 61 494 75 644 61 573 b 101 284 61 418 74 347 b 211 120 127 221 164 166 b 381 13 258 74 315 39 b 599 -25 446 -12 519 -25 b 805 -5 676 -25 745 -18 b 969 51 865 9 919 27 z m 454 1261 l 361 1261 b 432 1109 366 1192 389 1141 b 596 1061 475 1077 529 1061 b 759 1110 662 1061 717 1077 b 833 1261 801 1142 826 1193 l 742 1261 b 692 1186 731 1222 715 1197 b 597 1169 669 1175 637 1169 b 504 1189 562 1169 531 1176 b 454 1261 477 1202 461 1226 z "},"ğ":{"ha":878,"x_min":0,"x_max":0,"o":"m 778 667 l 619 667 l 619 567 l 617 567 b 519 657 593 607 560 638 b 388 686 479 676 435 686 b 252 658 338 686 292 677 b 149 583 212 640 178 615 b 84 472 121 552 99 515 b 61 336 69 430 61 384 b 85 202 61 289 69 244 b 151 92 100 160 122 123 b 254 17 179 60 213 35 b 390 -11 295 -2 340 -11 b 516 15 437 -11 478 -3 b 608 89 553 32 584 56 l 611 89 l 611 40 b 601 -51 611 7 608 -24 b 566 -124 594 -79 582 -103 b 501 -172 550 -144 528 -160 b 400 -189 473 -183 440 -189 b 276 -165 358 -189 317 -181 b 167 -94 236 -148 199 -125 l 71 -224 b 143 -271 92 -241 116 -257 b 227 -306 170 -285 198 -296 b 316 -326 256 -315 286 -322 b 401 -333 346 -331 375 -333 b 569 -306 466 -333 522 -324 b 687 -227 617 -287 656 -261 b 756 -103 718 -193 741 -152 b 778 60 770 -55 778 0 z m 422 550 b 504 533 453 550 480 544 b 566 488 528 522 549 507 b 606 419 583 468 596 445 b 619 338 615 394 619 366 b 606 258 619 310 615 283 b 566 190 596 232 583 210 b 503 144 549 171 528 155 b 421 126 479 132 451 126 b 341 144 391 126 365 132 b 281 192 317 156 297 172 b 244 260 265 212 253 235 b 231 338 235 285 231 311 b 244 421 231 367 235 395 b 281 488 253 447 265 469 b 341 533 297 507 317 522 b 422 550 365 544 392 550 z m 292 983 l 199 983 b 269 831 203 914 227 863 b 433 783 312 799 367 783 b 597 832 500 783 554 800 b 671 983 639 864 663 915 l 579 983 b 529 908 569 944 552 919 b 435 892 506 897 475 892 b 342 911 400 892 369 898 b 292 983 315 924 298 948 z "},"Ġ":{"ha":1074,"x_min":0,"x_max":0,"o":"m 969 51 l 969 561 l 593 561 l 593 417 l 800 417 l 800 167 b 604 132 744 144 679 132 b 458 159 550 132 501 141 b 348 235 415 177 378 202 b 278 349 318 267 295 305 b 254 494 262 393 254 442 b 278 636 254 545 262 593 b 347 750 295 680 318 718 b 455 826 377 782 413 808 b 596 854 497 845 544 854 b 742 825 649 854 697 844 b 847 754 787 806 822 782 l 968 885 b 810 974 928 922 876 952 b 594 1008 745 997 673 1008 b 383 972 519 1008 448 996 b 215 869 319 948 262 914 b 102 708 167 825 129 771 b 61 494 75 644 61 573 b 101 284 61 418 74 347 b 211 120 127 221 164 166 b 381 13 258 74 315 39 b 599 -25 446 -12 519 -25 b 805 -5 676 -25 745 -18 b 969 51 865 9 919 27 z m 492 1171 b 522 1101 492 1144 502 1121 b 597 1071 541 1081 567 1071 b 674 1099 628 1071 653 1080 b 706 1171 695 1118 706 1142 b 674 1242 706 1200 695 1223 b 597 1271 653 1261 628 1271 b 522 1241 567 1271 541 1261 b 492 1171 502 1221 492 1198 z "},"ġ":{"ha":878,"x_min":0,"x_max":0,"o":"m 778 667 l 619 667 l 619 567 l 617 567 b 519 657 593 607 560 638 b 388 686 479 676 435 686 b 252 658 338 686 292 677 b 149 583 212 640 178 615 b 84 472 121 552 99 515 b 61 336 69 430 61 384 b 85 202 61 289 69 244 b 151 92 100 160 122 123 b 254 17 179 60 213 35 b 390 -11 295 -2 340 -11 b 516 15 437 -11 478 -3 b 608 89 553 32 584 56 l 611 89 l 611 40 b 601 -51 611 7 608 -24 b 566 -124 594 -79 582 -103 b 501 -172 550 -144 528 -160 b 400 -189 473 -183 440 -189 b 276 -165 358 -189 317 -181 b 167 -94 236 -148 199 -125 l 71 -224 b 143 -271 92 -241 116 -257 b 227 -306 170 -285 198 -296 b 316 -326 256 -315 286 -322 b 401 -333 346 -331 375 -333 b 569 -306 466 -333 522 -324 b 687 -227 617 -287 656 -261 b 756 -103 718 -193 741 -152 b 778 60 770 -55 778 0 z m 422 550 b 504 533 453 550 480 544 b 566 488 528 522 549 507 b 606 419 583 468 596 445 b 619 338 615 394 619 366 b 606 258 619 310 615 283 b 566 190 596 232 583 210 b 503 144 549 171 528 155 b 421 126 479 132 451 126 b 341 144 391 126 365 132 b 281 192 317 156 297 172 b 244 260 265 212 253 235 b 231 338 235 285 231 311 b 244 421 231 367 235 395 b 281 488 253 447 265 469 b 341 533 297 507 317 522 b 422 550 365 544 392 550 z m 332 893 b 362 823 332 866 342 843 b 438 793 382 803 407 793 b 515 822 468 793 494 803 b 546 893 535 841 546 864 b 515 965 546 922 535 946 b 438 993 494 984 468 993 b 362 963 407 993 382 983 b 332 893 342 943 332 920 z "},"Ģ":{"ha":1074,"x_min":0,"x_max":0,"o":"m 969 51 l 969 561 l 593 561 l 593 417 l 800 417 l 800 167 b 604 132 744 144 679 132 b 458 159 550 132 501 141 b 348 235 415 177 378 202 b 278 349 318 267 295 305 b 254 494 262 393 254 442 b 278 636 254 545 262 593 b 347 750 295 680 318 718 b 455 826 377 782 413 808 b 596 854 497 845 544 854 b 742 825 649 854 697 844 b 847 754 787 806 822 782 l 968 885 b 810 974 928 922 876 952 b 594 1008 745 997 673 1008 b 383 972 519 1008 448 996 b 215 869 319 948 262 914 b 102 708 167 825 129 771 b 61 494 75 644 61 573 b 101 284 61 418 74 347 b 211 120 127 221 164 166 b 381 13 258 74 315 39 b 599 -25 446 -12 519 -25 b 805 -5 676 -25 745 -18 b 969 51 865 9 919 27 z m 536 -62 l 446 -333 l 572 -333 l 683 -62 z "},"ģ":{"ha":878,"x_min":0,"x_max":0,"o":"m 778 667 l 619 667 l 619 567 l 617 567 b 519 657 593 607 560 638 b 388 686 479 676 435 686 b 252 658 338 686 292 677 b 149 583 212 640 178 615 b 84 472 121 552 99 515 b 61 336 69 430 61 384 b 85 202 61 289 69 244 b 151 92 100 160 122 123 b 254 17 179 60 213 35 b 390 -11 295 -2 340 -11 b 516 15 437 -11 478 -3 b 608 89 553 32 584 56 l 611 89 l 611 40 b 601 -51 611 7 608 -24 b 566 -124 594 -79 582 -103 b 501 -172 550 -144 528 -160 b 400 -189 473 -183 440 -189 b 276 -165 358 -189 317 -181 b 167 -94 236 -148 199 -125 l 71 -224 b 143 -271 92 -241 116 -257 b 227 -306 170 -285 198 -296 b 316 -326 256 -315 286 -322 b 401 -333 346 -331 375 -333 b 569 -306 466 -333 522 -324 b 687 -227 617 -287 656 -261 b 756 -103 718 -193 741 -152 b 778 60 770 -55 778 0 z m 422 550 b 504 533 453 550 480 544 b 566 488 528 522 549 507 b 606 419 583 468 596 445 b 619 338 615 394 619 366 b 606 258 619 310 615 283 b 566 190 596 232 583 210 b 503 144 549 171 528 155 b 421 126 479 132 451 126 b 341 144 391 126 365 132 b 281 192 317 156 297 172 b 244 260 265 212 253 235 b 231 338 235 285 231 311 b 244 421 231 367 235 395 b 281 488 253 447 265 469 b 341 533 297 507 317 522 b 422 550 365 544 392 550 z m 465 783 l 556 1054 l 429 1054 l 318 783 z "},"Ĥ":{"ha":1026,"x_min":0,"x_max":0,"o":"m 108 983 l 108 0 l 283 0 l 283 436 l 743 436 l 743 0 l 918 0 l 918 983 l 743 983 l 743 586 l 283 586 l 283 983 z m 610 1061 l 768 1061 l 610 1261 l 422 1261 l 263 1061 l 418 1061 l 514 1186 z "},"ĥ":{"ha":811,"x_min":0,"x_max":0,"o":"m 471 686 b 401 676 446 686 423 683 b 344 651 380 670 361 661 b 301 615 328 640 313 628 b 272 574 288 601 279 588 l 269 574 l 269 1050 l 103 1050 l 103 0 l 269 0 l 269 364 b 279 429 269 386 273 408 b 308 487 286 450 295 470 b 357 528 321 504 338 518 b 426 543 376 538 400 543 b 491 526 453 543 475 538 b 528 484 507 515 520 501 b 546 427 537 467 543 448 b 550 367 549 406 550 386 l 550 0 l 717 0 l 717 417 b 703 517 717 451 712 484 b 659 603 694 549 679 578 b 583 663 639 628 614 648 b 471 686 552 678 514 686 z m 503 1106 l 661 1106 l 503 1306 l 315 1306 l 156 1106 l 311 1106 l 407 1231 z "},"Ħ":{"ha":1026,"x_min":0,"x_max":0,"o":"m 108 983 l 108 0 l 283 0 l 283 436 l 743 436 l 743 0 l 918 0 l 918 983 l 743 983 l 743 799 l 283 799 l 283 983 z m 743 586 l 283 586 l 283 694 l 743 694 z "},"ħ":{"ha":811,"x_min":0,"x_max":0,"o":"m 506 792 l 506 896 l 269 896 l 269 1050 l 103 1050 l 103 896 l 28 896 l 28 792 l 103 792 l 103 0 l 269 0 l 269 364 b 279 429 269 386 273 408 b 308 487 286 450 295 470 b 357 528 321 504 338 518 b 426 543 376 538 400 543 b 491 526 453 543 475 538 b 528 484 507 515 520 501 b 546 427 537 467 543 448 b 550 367 549 406 550 386 l 550 0 l 717 0 l 717 417 b 703 517 717 451 712 484 b 659 603 694 549 679 578 b 583 663 639 628 614 648 b 471 686 552 678 514 686 b 401 676 446 686 423 683 b 344 651 380 670 361 661 b 301 615 328 640 313 628 b 272 574 288 601 279 588 l 269 574 l 269 792 z "},"Ĩ":{"ha":392,"x_min":0,"x_max":0,"o":"m 108 983 l 108 0 l 283 0 l 283 983 z m -60 1067 l 32 1067 b 53 1108 37 1082 44 1096 b 96 1126 63 1120 77 1126 b 135 1119 107 1126 120 1124 b 182 1101 150 1115 165 1109 b 238 1082 200 1094 218 1088 b 296 1074 257 1076 276 1074 b 362 1089 322 1074 344 1079 b 407 1128 380 1099 395 1112 b 435 1185 419 1145 428 1163 b 451 1250 442 1206 448 1228 l 360 1250 b 338 1209 355 1234 348 1221 b 296 1192 328 1197 314 1192 b 256 1199 285 1192 272 1194 b 206 1218 241 1204 224 1211 b 152 1236 189 1225 171 1231 b 96 1243 133 1241 114 1243 b 30 1228 70 1243 48 1238 b -15 1188 12 1218 -3 1204 b -44 1132 -27 1172 -37 1153 b -60 1067 -51 1111 -56 1089 z "},"ĩ":{"ha":372,"x_min":0,"x_max":0,"o":"m 103 667 l 103 0 l 269 0 l 269 667 z m -67 789 l 25 789 b 47 831 30 805 37 819 b 89 849 56 843 70 849 b 128 842 100 849 113 846 b 175 824 143 837 158 831 b 231 804 193 816 211 810 b 289 796 250 799 269 796 b 355 811 315 796 337 801 b 400 851 373 821 388 834 b 428 907 412 867 422 886 b 444 972 435 928 441 950 l 353 972 b 331 931 348 956 341 943 b 289 914 322 920 307 914 b 249 922 278 914 265 916 b 199 940 234 927 217 933 b 145 958 182 948 164 954 b 89 965 126 963 107 965 b 23 950 63 965 41 960 b -22 910 5 940 -10 927 b -51 854 -34 894 -44 875 b -67 789 -58 833 -63 811 z "},"Ī":{"ha":392,"x_min":0,"x_max":0,"o":"m 108 983 l 108 0 l 283 0 l 283 983 z m 418 1104 l 418 1213 l -26 1213 l -26 1104 z "},"ī":{"ha":372,"x_min":0,"x_max":0,"o":"m 103 667 l 103 0 l 269 0 l 269 667 z m 411 826 l 411 935 l -33 935 l -33 826 z "},"Į":{"ha":392,"x_min":0,"x_max":0,"o":"m 108 983 l 108 0 l 179 0 b 135 -41 164 -12 150 -26 b 94 -90 120 -56 106 -73 b 63 -145 81 -108 71 -126 b 51 -201 55 -164 51 -183 b 63 -255 51 -222 55 -240 b 95 -294 71 -270 82 -283 b 141 -317 109 -304 124 -312 b 194 -325 158 -322 176 -325 b 269 -310 220 -325 245 -320 b 333 -272 292 -301 314 -288 l 299 -204 b 263 -225 288 -212 277 -219 b 224 -233 250 -231 237 -233 b 178 -215 206 -233 191 -227 b 160 -169 166 -202 160 -187 b 170 -125 160 -156 163 -141 b 197 -78 177 -109 186 -94 b 231 -35 207 -63 219 -49 b 265 0 243 -22 254 -10 l 283 0 l 283 983 z "},"į":{"ha":372,"x_min":0,"x_max":0,"o":"m 103 667 l 103 0 l 157 0 b 113 -41 142 -12 127 -26 b 72 -90 98 -56 84 -73 b 41 -145 59 -108 49 -126 b 29 -201 33 -164 29 -183 b 41 -255 29 -222 33 -240 b 73 -294 49 -270 59 -283 b 119 -317 86 -304 102 -312 b 172 -325 136 -322 154 -325 b 247 -310 198 -325 223 -320 b 311 -272 270 -301 292 -288 l 276 -204 b 241 -225 266 -212 254 -219 b 201 -233 228 -231 214 -233 b 156 -215 184 -233 169 -227 b 138 -169 144 -202 138 -187 b 148 -125 138 -156 141 -141 b 174 -78 155 -109 164 -94 b 208 -35 185 -63 196 -49 b 243 0 220 -22 232 -10 l 269 0 l 269 667 z m 79 893 b 109 823 79 866 89 843 b 185 793 129 803 154 793 b 262 822 215 793 241 803 b 293 893 283 841 293 864 b 262 965 293 922 283 946 b 185 993 241 984 215 993 b 109 963 154 993 129 983 b 79 893 89 943 79 920 z "},"İ":{"ha":392,"x_min":0,"x_max":0,"o":"m 108 983 l 108 0 l 283 0 l 283 983 z m 88 1171 b 117 1101 88 1144 97 1121 b 193 1071 137 1081 163 1071 b 270 1099 224 1071 249 1080 b 301 1171 291 1118 301 1142 b 270 1242 301 1200 291 1223 b 193 1271 249 1261 224 1271 b 117 1241 163 1271 137 1261 b 88 1171 97 1221 88 1198 z "},"ı":{"ha":372,"x_min":0,"x_max":0,"o":"m 103 667 l 103 0 l 269 0 l 269 667 z "},"Ĳ":{"ha":1069,"x_min":0,"x_max":0,"o":"m 108 983 l 108 0 l 283 0 l 283 983 z m 969 318 l 969 983 l 794 983 l 794 324 b 789 247 794 296 793 270 b 770 185 785 223 779 203 b 733 146 761 168 749 155 b 671 132 716 137 696 132 b 592 160 640 132 614 141 b 546 238 569 179 554 205 l 385 192 b 483 35 402 127 435 75 b 674 -25 530 -5 594 -25 b 824 8 735 -25 785 -14 b 914 93 863 31 893 59 b 958 204 935 127 950 164 b 969 318 966 244 969 282 z "},"ĳ":{"ha":744,"x_min":0,"x_max":0,"o":"m 103 667 l 103 0 l 269 0 l 269 667 z m 79 893 b 109 823 79 866 89 843 b 185 793 129 803 154 793 b 262 822 215 793 241 803 b 293 893 283 841 293 864 b 262 965 293 922 283 946 b 185 993 241 984 215 993 b 109 963 154 993 129 983 b 79 893 89 943 79 920 z m 642 667 l 475 667 l 475 -47 b 472 -102 475 -67 474 -85 b 460 -147 470 -119 466 -134 b 432 -178 453 -160 444 -170 b 385 -189 420 -185 404 -189 b 363 -187 378 -189 371 -188 b 339 -183 354 -187 346 -185 l 325 -325 b 358 -331 333 -327 344 -329 b 400 -333 372 -332 386 -333 b 522 -310 450 -333 491 -325 b 595 -247 553 -294 577 -273 b 632 -153 613 -220 625 -189 b 642 -40 638 -118 642 -80 z m 451 893 b 481 823 451 866 461 843 b 557 793 501 803 526 793 b 634 822 588 793 613 803 b 665 893 655 841 665 864 b 634 965 665 922 655 946 b 557 993 613 984 588 993 b 481 963 526 993 501 983 b 451 893 461 943 451 920 z "},"Ĵ":{"ha":692,"x_min":0,"x_max":0,"o":"m 592 318 l 592 983 l 417 983 l 417 324 b 411 247 417 296 415 270 b 392 185 407 223 401 203 b 355 146 384 168 371 155 b 293 132 339 137 318 132 b 214 160 263 132 236 141 b 168 238 192 179 176 205 l 7 192 b 105 35 25 127 57 75 b 296 -25 153 -5 216 -25 b 446 8 357 -25 407 -14 b 536 93 485 31 515 59 b 580 204 557 127 572 164 b 592 318 588 244 592 282 z m 597 1061 l 756 1061 l 597 1261 l 410 1261 l 250 1061 l 406 1061 l 501 1186 z "},"ĵ":{"ha":372,"x_min":0,"x_max":0,"o":"m 269 667 l 103 667 l 103 -47 b 100 -102 103 -67 102 -85 b 88 -147 98 -119 94 -134 b 60 -178 81 -160 72 -170 b 13 -189 48 -185 32 -189 b -10 -187 6 -189 -1 -188 b -33 -183 -18 -187 -26 -185 l -47 -325 b -14 -331 -39 -327 -28 -329 b 28 -333 0 -332 14 -333 b 149 -310 78 -333 118 -325 b 223 -247 180 -294 205 -273 b 260 -153 241 -220 253 -189 b 269 -40 266 -118 269 -80 z m 281 783 l 439 783 l 281 983 l 93 983 l -67 783 l 89 783 l 185 908 z "},"Ķ":{"ha":957,"x_min":0,"x_max":0,"o":"m 108 983 l 108 0 l 283 0 l 283 493 l 288 493 l 719 0 l 965 0 l 475 529 l 935 983 l 699 983 l 288 558 l 283 558 l 283 983 z m 436 -62 l 346 -333 l 472 -333 l 583 -62 z "},"ķ":{"ha":754,"x_min":0,"x_max":0,"o":"m 103 1050 l 103 0 l 269 0 l 269 342 l 274 342 l 538 0 l 758 0 l 451 365 l 740 667 l 526 667 l 274 386 l 269 386 l 269 1050 z m 342 -62 l 251 -333 l 378 -333 l 489 -62 z "},"Ĺ":{"ha":710,"x_min":0,"x_max":0,"o":"m 108 983 l 108 0 l 701 0 l 701 156 l 283 156 l 283 983 z m 267 1261 l 129 1061 l 260 1061 l 456 1261 z "},"ĺ":{"ha":372,"x_min":0,"x_max":0,"o":"m 103 1050 l 103 0 l 269 0 l 269 1050 z m 240 1300 l 103 1100 l 233 1100 l 429 1300 z "},"Ļ":{"ha":710,"x_min":0,"x_max":0,"o":"m 108 983 l 108 0 l 701 0 l 701 156 l 283 156 l 283 983 z m 350 -62 l 260 -333 l 386 -333 l 497 -62 z "},"ļ":{"ha":372,"x_min":0,"x_max":0,"o":"m 103 1050 l 103 0 l 269 0 l 269 1050 z m 131 -62 l 40 -333 l 167 -333 l 278 -62 z "},"Ľ":{"ha":710,"x_min":0,"x_max":0,"o":"m 108 983 l 108 0 l 701 0 l 701 156 l 283 156 l 283 983 z m 460 983 l 369 713 l 496 713 l 607 983 z "},"ľ":{"ha":372,"x_min":0,"x_max":0,"o":"m 103 1050 l 103 0 l 269 0 l 269 1050 z m 394 983 l 304 713 l 431 713 l 542 983 z "},"Ŀ":{"ha":710,"x_min":0,"x_max":0,"o":"m 108 983 l 108 0 l 701 0 l 701 156 l 283 156 l 283 983 z m 440 476 b 470 406 440 450 450 426 b 546 376 490 386 515 376 b 623 405 576 376 602 386 b 654 476 644 424 654 448 b 623 548 654 505 644 529 b 546 576 602 567 576 576 b 470 547 515 576 490 566 b 440 476 450 527 440 503 z "},"ŀ":{"ha":543,"x_min":0,"x_max":0,"o":"m 103 1050 l 103 0 l 269 0 l 269 1050 z m 349 476 b 378 406 349 450 359 426 b 454 376 398 386 424 376 b 531 405 485 376 510 386 b 563 476 552 424 563 448 b 531 548 563 505 552 529 b 454 576 510 567 485 576 b 378 547 424 576 398 566 b 349 476 359 527 349 503 z "},"Ł":{"ha":710,"x_min":0,"x_max":0,"o":"m 108 279 l 108 0 l 701 0 l 701 156 l 283 156 l 283 414 l 569 667 l 569 818 l 283 567 l 283 983 l 108 983 l 108 432 l 11 346 l 11 193 z "},"ł":{"ha":372,"x_min":0,"x_max":0,"o":"m 103 414 l 103 0 l 269 0 l 269 549 l 365 643 l 365 792 l 269 696 l 269 1050 l 103 1050 l 103 565 l 7 469 l 7 318 z "},"Ń":{"ha":1083,"x_min":0,"x_max":0,"o":"m 108 983 l 108 0 l 283 0 l 283 760 l 286 760 l 753 0 l 975 0 l 975 983 l 800 983 l 800 247 l 797 247 l 340 983 z m 567 1261 l 429 1061 l 560 1061 l 756 1261 z "},"ń":{"ha":808,"x_min":0,"x_max":0,"o":"m 100 667 l 100 0 l 267 0 l 267 367 b 276 433 267 389 270 411 b 305 490 283 454 292 474 b 353 531 317 507 333 521 b 422 547 372 542 395 547 b 487 531 449 547 471 542 b 525 488 503 519 516 505 b 543 431 534 471 540 452 b 547 369 546 409 547 389 l 547 0 l 714 0 l 714 417 b 700 517 714 451 709 484 b 656 603 691 549 676 578 b 580 663 636 628 611 648 b 468 686 549 678 512 686 b 338 648 418 686 375 673 b 261 560 302 622 276 593 l 258 560 l 258 667 z m 439 983 l 301 783 l 432 783 l 628 983 z "},"Ņ":{"ha":1083,"x_min":0,"x_max":0,"o":"m 108 983 l 108 0 l 283 0 l 283 760 l 286 760 l 753 0 l 975 0 l 975 983 l 800 983 l 800 247 l 797 247 l 340 983 z m 492 -62 l 401 -333 l 528 -333 l 639 -62 z "},"ņ":{"ha":808,"x_min":0,"x_max":0,"o":"m 100 667 l 100 0 l 267 0 l 267 367 b 276 433 267 389 270 411 b 305 490 283 454 292 474 b 353 531 317 507 333 521 b 422 547 372 542 395 547 b 487 531 449 547 471 542 b 525 488 503 519 516 505 b 543 431 534 471 540 452 b 547 369 546 409 547 389 l 547 0 l 714 0 l 714 417 b 700 517 714 451 709 484 b 656 603 691 549 676 578 b 580 663 636 628 611 648 b 468 686 549 678 512 686 b 338 648 418 686 375 673 b 261 560 302 622 276 593 l 258 560 l 258 667 z m 353 -62 l 263 -333 l 389 -333 l 500 -62 z "},"Ň":{"ha":1083,"x_min":0,"x_max":0,"o":"m 108 983 l 108 0 l 283 0 l 283 760 l 286 760 l 753 0 l 975 0 l 975 983 l 800 983 l 800 247 l 797 247 l 340 983 z m 447 1261 l 289 1261 l 447 1061 l 632 1061 l 792 1261 l 639 1261 l 543 1136 z "},"ň":{"ha":808,"x_min":0,"x_max":0,"o":"m 100 667 l 100 0 l 267 0 l 267 367 b 276 433 267 389 270 411 b 305 490 283 454 292 474 b 353 531 317 507 333 521 b 422 547 372 542 395 547 b 487 531 449 547 471 542 b 525 488 503 519 516 505 b 543 431 534 471 540 452 b 547 369 546 409 547 389 l 547 0 l 714 0 l 714 417 b 700 517 714 451 709 484 b 656 603 691 549 676 578 b 580 663 636 628 611 648 b 468 686 549 678 512 686 b 338 648 418 686 375 673 b 261 560 302 622 276 593 l 258 560 l 258 667 z m 307 983 l 149 983 l 307 783 l 492 783 l 651 983 l 499 983 l 403 858 z "},"ŉ":{"ha":864,"x_min":0,"x_max":0,"o":"m 156 667 l 156 0 l 322 0 l 322 367 b 332 433 322 389 325 411 b 360 490 338 454 348 474 b 408 531 373 507 389 521 b 478 547 428 542 451 547 b 542 531 505 547 526 542 b 581 488 559 519 571 505 b 599 431 590 471 596 452 b 603 369 601 409 603 389 l 603 0 l 769 0 l 769 417 b 756 517 769 451 765 484 b 712 603 746 549 732 578 b 635 663 692 628 666 648 b 524 686 604 678 567 686 b 394 648 474 686 430 673 b 317 560 357 622 331 593 l 314 560 l 314 667 z m 58 983 l -32 713 l 94 713 l 206 983 z "},"Ō":{"ha":1179,"x_min":0,"x_max":0,"o":"m 61 494 b 101 284 61 418 74 347 b 210 120 127 221 164 166 b 377 13 257 74 313 39 b 588 -25 441 -12 512 -25 b 800 13 664 -25 735 -12 b 968 120 865 39 921 74 b 1078 284 1015 166 1052 221 b 1118 494 1105 347 1118 418 b 1078 708 1118 573 1105 644 b 968 869 1052 771 1015 825 b 800 972 921 914 865 948 b 588 1008 735 996 664 1008 b 377 972 512 1008 441 996 b 210 869 313 948 257 914 b 101 708 164 825 127 771 b 61 494 74 644 61 573 z m 251 494 b 276 636 251 545 259 593 b 344 750 292 680 315 718 b 451 826 374 782 409 808 b 589 854 492 845 538 854 b 728 826 640 854 686 845 b 835 750 769 808 805 782 b 903 636 864 718 887 680 b 928 494 920 593 928 545 b 903 349 928 442 920 393 b 834 235 887 305 864 267 b 726 159 804 202 768 177 b 589 132 685 141 639 132 b 452 159 539 132 493 141 b 345 235 411 177 375 202 b 276 349 315 267 292 305 b 251 494 259 393 251 442 z m 813 1104 l 813 1213 l 368 1213 l 368 1104 z "},"ō":{"ha":847,"x_min":0,"x_max":0,"o":"m 61 336 b 90 192 61 283 71 235 b 167 80 109 148 134 111 b 282 7 199 49 238 25 b 424 -19 326 -11 374 -19 b 565 7 474 -19 521 -11 b 681 80 610 25 648 49 b 758 192 713 111 739 148 b 786 336 777 235 786 283 b 758 480 786 389 777 437 b 681 590 739 523 713 560 b 565 661 648 621 610 644 b 424 686 521 678 474 686 b 282 661 374 686 326 678 b 167 590 238 644 199 621 b 90 480 134 560 109 523 b 61 336 71 437 61 389 z m 231 336 b 242 413 231 362 234 388 b 278 482 250 439 262 462 b 338 531 294 502 313 519 b 424 550 362 544 390 550 b 510 531 457 550 486 544 b 569 482 534 519 554 502 b 605 413 585 462 597 439 b 617 336 613 388 617 362 b 605 258 617 310 613 284 b 569 189 597 232 585 209 b 510 139 554 169 534 152 b 424 119 486 126 457 119 b 338 139 390 119 362 126 b 278 189 313 152 294 169 b 242 258 262 209 250 232 b 231 336 234 284 231 310 z m 646 826 l 646 935 l 201 935 l 201 826 z "},"Ŏ":{"ha":1179,"x_min":0,"x_max":0,"o":"m 61 494 b 101 284 61 418 74 347 b 210 120 127 221 164 166 b 377 13 257 74 313 39 b 588 -25 441 -12 512 -25 b 800 13 664 -25 735 -12 b 968 120 865 39 921 74 b 1078 284 1015 166 1052 221 b 1118 494 1105 347 1118 418 b 1078 708 1118 573 1105 644 b 968 869 1052 771 1015 825 b 800 972 921 914 865 948 b 588 1008 735 996 664 1008 b 377 972 512 1008 441 996 b 210 869 313 948 257 914 b 101 708 164 825 127 771 b 61 494 74 644 61 573 z m 251 494 b 276 636 251 545 259 593 b 344 750 292 680 315 718 b 451 826 374 782 409 808 b 589 854 492 845 538 854 b 728 826 640 854 686 845 b 835 750 769 808 805 782 b 903 636 864 718 887 680 b 928 494 920 593 928 545 b 903 349 928 442 920 393 b 834 235 887 305 864 267 b 726 159 804 202 768 177 b 589 132 685 141 639 132 b 452 159 539 132 493 141 b 345 235 411 177 375 202 b 276 349 315 267 292 305 b 251 494 259 393 251 442 z m 447 1261 l 354 1261 b 425 1109 359 1192 382 1141 b 589 1061 468 1077 522 1061 b 752 1110 656 1061 710 1077 b 826 1261 794 1142 819 1193 l 735 1261 b 685 1186 725 1222 708 1197 b 590 1169 662 1175 630 1169 b 497 1189 555 1169 524 1176 b 447 1261 470 1202 454 1226 z "},"ŏ":{"ha":847,"x_min":0,"x_max":0,"o":"m 61 336 b 90 192 61 283 71 235 b 167 80 109 148 134 111 b 282 7 199 49 238 25 b 424 -19 326 -11 374 -19 b 565 7 474 -19 521 -11 b 681 80 610 25 648 49 b 758 192 713 111 739 148 b 786 336 777 235 786 283 b 758 480 786 389 777 437 b 681 590 739 523 713 560 b 565 661 648 621 610 644 b 424 686 521 678 474 686 b 282 661 374 686 326 678 b 167 590 238 644 199 621 b 90 480 134 560 109 523 b 61 336 71 437 61 389 z m 231 336 b 242 413 231 362 234 388 b 278 482 250 439 262 462 b 338 531 294 502 313 519 b 424 550 362 544 390 550 b 510 531 457 550 486 544 b 569 482 534 519 554 502 b 605 413 585 462 597 439 b 617 336 613 388 617 362 b 605 258 617 310 613 284 b 569 189 597 232 585 209 b 510 139 554 169 534 152 b 424 119 486 126 457 119 b 338 139 390 119 362 126 b 278 189 313 152 294 169 b 242 258 262 209 250 232 b 231 336 234 284 231 310 z m 281 983 l 188 983 b 258 831 192 914 216 863 b 422 783 301 799 356 783 b 585 832 489 783 543 800 b 660 983 628 864 652 915 l 568 983 b 518 908 558 944 541 919 b 424 892 495 897 463 892 b 331 911 388 892 357 898 b 281 983 304 924 287 948 z "},"Ő":{"ha":1179,"x_min":0,"x_max":0,"o":"m 61 494 b 101 284 61 418 74 347 b 210 120 127 221 164 166 b 377 13 257 74 313 39 b 588 -25 441 -12 512 -25 b 800 13 664 -25 735 -12 b 968 120 865 39 921 74 b 1078 284 1015 166 1052 221 b 1118 494 1105 347 1118 418 b 1078 708 1118 573 1105 644 b 968 869 1052 771 1015 825 b 800 972 921 914 865 948 b 588 1008 735 996 664 1008 b 377 972 512 1008 441 996 b 210 869 313 948 257 914 b 101 708 164 825 127 771 b 61 494 74 644 61 573 z m 251 494 b 276 636 251 545 259 593 b 344 750 292 680 315 718 b 451 826 374 782 409 808 b 589 854 492 845 538 854 b 728 826 640 854 686 845 b 835 750 769 808 805 782 b 903 636 864 718 887 680 b 928 494 920 593 928 545 b 903 349 928 442 920 393 b 834 235 887 305 864 267 b 726 159 804 202 768 177 b 589 132 685 141 639 132 b 452 159 539 132 493 141 b 345 235 411 177 375 202 b 276 349 315 267 292 305 b 251 494 259 393 251 442 z m 515 1261 l 378 1061 l 508 1061 l 704 1261 z m 800 1261 l 663 1061 l 793 1061 l 989 1261 z "},"ő":{"ha":847,"x_min":0,"x_max":0,"o":"m 61 336 b 90 192 61 283 71 235 b 167 80 109 148 134 111 b 282 7 199 49 238 25 b 424 -19 326 -11 374 -19 b 565 7 474 -19 521 -11 b 681 80 610 25 648 49 b 758 192 713 111 739 148 b 786 336 777 235 786 283 b 758 480 786 389 777 437 b 681 590 739 523 713 560 b 565 661 648 621 610 644 b 424 686 521 678 474 686 b 282 661 374 686 326 678 b 167 590 238 644 199 621 b 90 480 134 560 109 523 b 61 336 71 437 61 389 z m 231 336 b 242 413 231 362 234 388 b 278 482 250 439 262 462 b 338 531 294 502 313 519 b 424 550 362 544 390 550 b 510 531 457 550 486 544 b 569 482 534 519 554 502 b 605 413 585 462 597 439 b 617 336 613 388 617 362 b 605 258 617 310 613 284 b 569 189 597 232 585 209 b 510 139 554 169 534 152 b 424 119 486 126 457 119 b 338 139 390 119 362 126 b 278 189 313 152 294 169 b 242 258 262 209 250 232 b 231 336 234 284 231 310 z m 358 983 l 221 783 l 351 783 l 547 983 z m 643 983 l 506 783 l 636 783 l 832 983 z "},"Ŕ":{"ha":874,"x_min":0,"x_max":0,"o":"m 108 983 l 108 0 l 283 0 l 283 417 l 411 417 l 639 0 l 850 0 l 588 436 b 752 527 657 452 712 482 b 813 701 792 572 813 630 b 782 833 813 753 802 797 b 701 921 762 869 734 899 b 585 969 667 943 628 959 b 450 983 541 978 496 983 z m 426 560 l 283 560 l 283 836 l 442 836 b 510 831 464 836 487 834 b 574 810 534 827 555 820 b 619 769 592 800 607 786 b 638 703 631 752 638 730 b 618 630 638 673 631 649 b 569 586 605 611 589 596 b 501 565 549 576 526 569 b 426 560 476 562 451 560 z m 449 1261 l 311 1061 l 442 1061 l 638 1261 z "},"ŕ":{"ha":506,"x_min":0,"x_max":0,"o":"m 100 667 l 100 0 l 267 0 l 267 357 b 274 406 267 369 269 385 b 300 465 278 426 287 446 b 354 515 313 485 331 501 b 446 536 377 529 408 536 b 469 535 453 536 461 536 b 497 529 477 534 486 532 l 497 682 b 478 685 492 684 485 685 b 457 686 470 686 463 686 b 340 650 413 686 374 674 b 263 556 307 626 281 594 l 260 556 l 260 667 z m 281 983 l 143 783 l 274 783 l 469 983 z "},"Ŗ":{"ha":874,"x_min":0,"x_max":0,"o":"m 108 983 l 108 0 l 283 0 l 283 417 l 411 417 l 639 0 l 850 0 l 588 436 b 752 527 657 452 712 482 b 813 701 792 572 813 630 b 782 833 813 753 802 797 b 701 921 762 869 734 899 b 585 969 667 943 628 959 b 450 983 541 978 496 983 z m 426 560 l 283 560 l 283 836 l 442 836 b 510 831 464 836 487 834 b 574 810 534 827 555 820 b 619 769 592 800 607 786 b 638 703 631 752 638 730 b 618 630 638 673 631 649 b 569 586 605 611 589 596 b 501 565 549 576 526 569 b 426 560 476 562 451 560 z m 385 -62 l 294 -333 l 421 -333 l 532 -62 z "},"ŗ":{"ha":506,"x_min":0,"x_max":0,"o":"m 100 667 l 100 0 l 267 0 l 267 357 b 274 406 267 369 269 385 b 300 465 278 426 287 446 b 354 515 313 485 331 501 b 446 536 377 529 408 536 b 469 535 453 536 461 536 b 497 529 477 534 486 532 l 497 682 b 478 685 492 684 485 685 b 457 686 470 686 463 686 b 340 650 413 686 374 674 b 263 556 307 626 281 594 l 260 556 l 260 667 z m 129 -62 l 39 -333 l 165 -333 l 276 -62 z "},"Ř":{"ha":874,"x_min":0,"x_max":0,"o":"m 108 983 l 108 0 l 283 0 l 283 417 l 411 417 l 639 0 l 850 0 l 588 436 b 752 527 657 452 712 482 b 813 701 792 572 813 630 b 782 833 813 753 802 797 b 701 921 762 869 734 899 b 585 969 667 943 628 959 b 450 983 541 978 496 983 z m 426 560 l 283 560 l 283 836 l 442 836 b 510 831 464 836 487 834 b 574 810 534 827 555 820 b 619 769 592 800 607 786 b 638 703 631 752 638 730 b 618 630 638 673 631 649 b 569 586 605 611 589 596 b 501 565 549 576 526 569 b 426 560 476 562 451 560 z m 331 1261 l 172 1261 l 331 1061 l 515 1061 l 675 1261 l 522 1261 l 426 1136 z "},"ř":{"ha":506,"x_min":0,"x_max":0,"o":"m 100 667 l 100 0 l 267 0 l 267 357 b 274 406 267 369 269 385 b 300 465 278 426 287 446 b 354 515 313 485 331 501 b 446 536 377 529 408 536 b 469 535 453 536 461 536 b 497 529 477 534 486 532 l 497 682 b 478 685 492 684 485 685 b 457 686 470 686 463 686 b 340 650 413 686 374 674 b 263 556 307 626 281 594 l 260 556 l 260 667 z m 199 983 l 40 983 l 199 783 l 383 783 l 543 983 l 390 983 l 294 858 z "},"Ś":{"ha":797,"x_min":0,"x_max":0,"o":"m 610 778 l 724 903 b 590 982 686 938 641 964 b 438 1008 538 1000 488 1008 b 306 991 393 1008 349 1003 b 191 938 263 979 225 962 b 109 849 157 915 130 885 b 78 719 88 813 78 769 b 100 603 78 673 85 634 b 158 525 115 572 134 546 b 238 474 181 504 208 487 b 326 440 267 461 297 450 l 414 411 b 486 378 442 402 466 391 b 535 334 506 366 523 351 b 553 269 547 317 553 295 b 537 202 553 243 547 220 b 495 157 526 184 512 169 b 438 131 478 145 459 136 b 375 124 416 126 395 124 b 256 153 336 124 297 133 b 160 232 216 172 184 199 l 35 115 b 185 10 74 69 124 34 b 372 -25 246 -13 308 -25 b 510 -6 420 -25 466 -19 b 624 53 553 7 591 27 b 701 151 656 79 682 111 b 731 289 721 190 731 236 b 703 410 731 337 722 377 b 634 490 685 442 662 469 b 541 542 606 512 575 529 b 443 576 507 555 475 566 b 367 601 415 585 390 593 b 308 631 344 610 324 619 b 269 671 291 642 279 655 b 256 728 260 687 256 706 b 272 790 256 752 261 772 b 313 831 282 807 296 821 b 368 855 329 842 348 850 b 429 863 388 860 409 863 b 531 838 463 863 497 854 b 610 778 565 822 591 802 z m 461 1261 l 324 1061 l 454 1061 l 650 1261 z "},"ś":{"ha":617,"x_min":0,"x_max":0,"o":"m 465 489 l 574 585 b 465 661 547 619 510 644 b 324 686 419 678 372 686 b 226 674 290 686 258 682 b 142 635 195 665 167 653 b 81 569 117 618 97 596 b 58 474 66 543 58 511 b 75 394 58 442 64 416 b 119 341 86 373 101 355 b 183 306 138 327 159 315 b 256 285 206 297 231 290 b 370 249 306 273 345 261 b 408 189 396 237 408 217 b 399 151 408 174 405 162 b 373 127 392 141 384 133 b 338 114 362 121 351 117 b 301 110 326 111 313 110 b 203 133 265 110 232 118 b 131 193 173 149 149 169 l 21 90 b 143 9 53 55 94 28 b 294 -19 192 -10 243 -19 b 399 -8 331 -19 366 -16 b 488 31 433 0 463 13 b 549 99 514 48 534 71 b 572 203 565 128 572 162 b 553 285 572 235 566 263 b 502 342 540 308 523 327 b 433 379 481 358 458 370 b 357 401 407 388 382 396 b 249 434 310 413 274 423 b 213 489 225 445 213 463 b 246 544 213 515 224 533 b 319 561 268 556 293 561 b 404 540 350 561 378 554 b 465 489 430 525 450 508 z m 357 983 l 219 783 l 350 783 l 546 983 z "},"Ŝ":{"ha":797,"x_min":0,"x_max":0,"o":"m 610 778 l 724 903 b 590 982 686 938 641 964 b 438 1008 538 1000 488 1008 b 306 991 393 1008 349 1003 b 191 938 263 979 225 962 b 109 849 157 915 130 885 b 78 719 88 813 78 769 b 100 603 78 673 85 634 b 158 525 115 572 134 546 b 238 474 181 504 208 487 b 326 440 267 461 297 450 l 414 411 b 486 378 442 402 466 391 b 535 334 506 366 523 351 b 553 269 547 317 553 295 b 537 202 553 243 547 220 b 495 157 526 184 512 169 b 438 131 478 145 459 136 b 375 124 416 126 395 124 b 256 153 336 124 297 133 b 160 232 216 172 184 199 l 35 115 b 185 10 74 69 124 34 b 372 -25 246 -13 308 -25 b 510 -6 420 -25 466 -19 b 624 53 553 7 591 27 b 701 151 656 79 682 111 b 731 289 721 190 731 236 b 703 410 731 337 722 377 b 634 490 685 442 662 469 b 541 542 606 512 575 529 b 443 576 507 555 475 566 b 367 601 415 585 390 593 b 308 631 344 610 324 619 b 269 671 291 642 279 655 b 256 728 260 687 256 706 b 272 790 256 752 261 772 b 313 831 282 807 296 821 b 368 855 329 842 348 850 b 429 863 388 860 409 863 b 531 838 463 863 497 854 b 610 778 565 822 591 802 z m 528 1061 l 686 1061 l 528 1261 l 340 1261 l 181 1061 l 336 1061 l 432 1186 z "},"ŝ":{"ha":617,"x_min":0,"x_max":0,"o":"m 465 489 l 574 585 b 465 661 547 619 510 644 b 324 686 419 678 372 686 b 226 674 290 686 258 682 b 142 635 195 665 167 653 b 81 569 117 618 97 596 b 58 474 66 543 58 511 b 75 394 58 442 64 416 b 119 341 86 373 101 355 b 183 306 138 327 159 315 b 256 285 206 297 231 290 b 370 249 306 273 345 261 b 408 189 396 237 408 217 b 399 151 408 174 405 162 b 373 127 392 141 384 133 b 338 114 362 121 351 117 b 301 110 326 111 313 110 b 203 133 265 110 232 118 b 131 193 173 149 149 169 l 21 90 b 143 9 53 55 94 28 b 294 -19 192 -10 243 -19 b 399 -8 331 -19 366 -16 b 488 31 433 0 463 13 b 549 99 514 48 534 71 b 572 203 565 128 572 162 b 553 285 572 235 566 263 b 502 342 540 308 523 327 b 433 379 481 358 458 370 b 357 401 407 388 382 396 b 249 434 310 413 274 423 b 213 489 225 445 213 463 b 246 544 213 515 224 533 b 319 561 268 556 293 561 b 404 540 350 561 378 554 b 465 489 430 525 450 508 z m 422 783 l 581 783 l 422 983 l 235 983 l 75 783 l 231 783 l 326 908 z "},"Ş":{"ha":797,"x_min":0,"x_max":0,"o":"m 610 778 l 724 903 b 590 982 686 938 641 964 b 438 1008 538 1000 488 1008 b 306 991 393 1008 349 1003 b 191 938 263 979 225 962 b 109 849 157 915 130 885 b 78 719 88 813 78 769 b 100 603 78 673 85 634 b 158 525 115 572 134 546 b 238 474 181 504 208 487 b 326 440 267 461 297 450 l 414 411 b 486 378 442 402 466 391 b 535 334 506 366 523 351 b 553 269 547 317 553 295 b 537 202 553 243 547 220 b 495 157 526 184 512 169 b 438 131 478 145 459 136 b 375 124 416 126 395 124 b 256 153 336 124 297 133 b 160 232 216 172 184 199 l 35 115 b 168 18 70 74 114 41 b 336 -24 222 -5 278 -19 l 267 -125 l 299 -160 b 326 -153 307 -157 316 -155 b 353 -151 337 -152 345 -151 b 376 -153 360 -151 368 -152 b 400 -161 385 -155 393 -157 b 419 -176 407 -165 414 -170 b 426 -201 424 -183 426 -191 b 418 -231 426 -213 424 -223 b 398 -248 413 -238 406 -244 b 372 -256 390 -252 381 -255 b 347 -258 363 -258 355 -258 b 233 -231 306 -258 269 -249 l 201 -297 b 272 -323 221 -307 244 -316 b 354 -333 299 -330 326 -333 b 419 -327 375 -333 396 -331 b 480 -306 441 -323 462 -316 b 525 -266 498 -297 513 -283 b 543 -203 537 -249 543 -228 b 530 -144 543 -179 539 -159 b 496 -110 521 -130 510 -118 b 449 -92 482 -101 466 -96 b 397 -87 432 -89 415 -87 l 385 -87 b 371 -89 381 -87 376 -88 l 417 -22 b 539 6 460 -19 501 -9 b 639 66 577 20 610 41 b 706 160 668 91 690 123 b 731 289 722 197 731 240 b 703 410 731 337 722 377 b 634 490 685 442 662 469 b 541 542 606 512 575 529 b 443 576 507 555 475 566 b 367 601 415 585 390 593 b 308 631 344 610 324 619 b 269 671 291 642 279 655 b 256 728 260 687 256 706 b 272 790 256 752 261 772 b 313 831 282 807 296 821 b 368 855 329 842 348 850 b 429 863 388 860 409 863 b 531 838 463 863 497 854 b 610 778 565 822 591 802 z "},"ş":{"ha":617,"x_min":0,"x_max":0,"o":"m 465 489 l 574 585 b 465 661 547 619 510 644 b 324 686 419 678 372 686 b 226 674 290 686 258 682 b 142 635 195 665 167 653 b 81 569 117 618 97 596 b 58 474 66 543 58 511 b 75 394 58 442 64 416 b 119 341 86 373 101 355 b 183 306 138 327 159 315 b 256 285 206 297 231 290 b 370 249 306 273 345 261 b 408 189 396 237 408 217 b 399 151 408 174 405 162 b 373 127 392 141 384 133 b 338 114 362 121 351 117 b 301 110 326 111 313 110 b 203 133 265 110 232 118 b 131 193 173 149 149 169 l 21 90 b 124 17 49 59 83 34 b 254 -17 166 -1 209 -12 l 181 -125 l 213 -160 b 240 -153 221 -157 230 -155 b 267 -151 250 -152 259 -151 b 290 -153 274 -151 282 -152 b 314 -161 299 -155 306 -157 b 333 -176 321 -165 328 -170 b 340 -201 338 -183 340 -191 b 332 -231 340 -213 338 -223 b 312 -248 326 -238 320 -244 b 286 -256 304 -252 295 -255 b 261 -258 277 -258 269 -258 b 147 -231 220 -258 182 -249 l 115 -297 b 185 -323 135 -307 158 -316 b 268 -333 213 -330 240 -333 b 333 -327 288 -333 310 -331 b 394 -306 355 -323 376 -316 b 439 -266 412 -297 427 -283 b 457 -203 451 -249 457 -228 b 444 -144 457 -179 453 -159 b 410 -110 435 -130 424 -118 b 363 -92 396 -101 380 -96 b 311 -87 346 -89 329 -87 l 299 -87 b 285 -89 295 -87 290 -88 l 335 -18 b 426 1 367 -15 398 -9 b 502 42 455 10 480 24 b 553 108 524 59 541 81 b 572 203 566 134 572 166 b 553 285 572 235 566 263 b 502 342 540 308 523 327 b 433 379 481 358 458 370 b 357 401 407 388 382 396 b 249 434 310 413 274 423 b 213 489 225 445 213 463 b 246 544 213 515 224 533 b 319 561 268 556 293 561 b 404 540 350 561 378 554 b 465 489 430 525 450 508 z "},"Ţ":{"ha":789,"x_min":0,"x_max":0,"o":"m 307 831 l 307 0 l 482 0 l 482 831 l 783 831 l 783 983 l 6 983 l 6 831 z m 383 -89 l 446 0 l 365 0 l 279 -125 l 311 -160 b 339 -153 319 -157 329 -155 b 365 -151 349 -152 358 -151 b 389 -153 373 -151 381 -152 b 413 -161 397 -155 405 -157 b 431 -176 420 -165 426 -170 b 439 -201 436 -183 439 -191 b 431 -231 439 -213 436 -223 b 410 -248 425 -238 418 -244 b 385 -256 403 -252 394 -255 b 360 -258 375 -258 367 -258 b 246 -231 319 -258 281 -249 l 214 -297 b 284 -323 233 -307 257 -316 b 367 -333 311 -330 339 -333 b 431 -327 387 -333 409 -331 b 492 -306 454 -323 474 -316 b 538 -266 510 -297 525 -283 b 556 -203 550 -249 556 -228 b 542 -144 556 -179 551 -159 b 508 -110 534 -130 522 -118 b 462 -92 494 -101 479 -96 b 410 -87 445 -89 427 -87 l 398 -87 b 383 -89 394 -87 389 -88 z "},"ţ":{"ha":472,"x_min":0,"x_max":0,"o":"m 4 533 l 121 533 l 121 222 b 130 131 121 190 124 159 b 163 56 136 103 147 78 b 229 5 179 34 201 17 b 338 -14 257 -8 293 -14 b 396 -9 356 -14 375 -12 b 449 4 416 -6 434 -1 l 443 135 b 408 124 433 130 421 127 b 372 121 395 122 383 121 b 301 150 335 121 311 131 b 285 224 290 169 285 194 l 285 533 l 451 533 l 451 667 l 285 667 l 285 860 l 121 860 l 121 667 l 4 667 z m 304 -89 l 367 0 l 286 0 l 200 -125 l 232 -160 b 260 -153 240 -157 250 -155 b 286 -151 270 -152 279 -151 b 310 -153 294 -151 301 -152 b 333 -161 318 -155 326 -157 b 352 -176 341 -165 347 -170 b 360 -201 357 -183 360 -191 b 351 -231 360 -213 357 -223 b 331 -248 346 -238 339 -244 b 306 -256 323 -252 315 -255 b 281 -258 296 -258 288 -258 b 167 -231 240 -258 202 -249 l 135 -297 b 205 -323 154 -307 178 -316 b 288 -333 232 -330 260 -333 b 352 -327 308 -333 329 -331 b 413 -306 375 -323 395 -316 b 458 -266 431 -297 446 -283 b 476 -203 470 -249 476 -228 b 463 -144 476 -179 472 -159 b 429 -110 454 -130 443 -118 b 383 -92 415 -101 400 -96 b 331 -87 366 -89 348 -87 l 319 -87 b 304 -89 315 -87 310 -88 z "},"Ť":{"ha":789,"x_min":0,"x_max":0,"o":"m 307 831 l 307 0 l 482 0 l 482 831 l 783 831 l 783 983 l 6 983 l 6 831 z m 304 1261 l 146 1261 l 304 1061 l 489 1061 l 649 1261 l 496 1261 l 400 1136 z "},"ť":{"ha":472,"x_min":0,"x_max":0,"o":"m 4 533 l 121 533 l 121 222 b 130 131 121 190 124 159 b 163 56 136 103 147 78 b 229 5 179 34 201 17 b 338 -14 257 -8 293 -14 b 396 -9 356 -14 375 -12 b 449 4 416 -6 434 -1 l 443 135 b 408 124 433 130 421 127 b 372 121 395 122 383 121 b 301 150 335 121 311 131 b 285 224 290 169 285 194 l 285 533 l 451 533 l 451 667 l 285 667 l 285 860 l 121 860 l 121 667 l 4 667 z m 413 1015 l 322 744 l 449 744 l 560 1015 z "},"Ŧ":{"ha":789,"x_min":0,"x_max":0,"o":"m 703 600 l 703 704 l 482 704 l 482 831 l 783 831 l 783 983 l 6 983 l 6 831 l 307 831 l 307 704 l 100 704 l 100 600 l 307 600 l 307 0 l 482 0 l 482 600 z "},"ŧ":{"ha":472,"x_min":0,"x_max":0,"o":"m 424 304 l 424 408 l 285 408 l 285 533 l 451 533 l 451 667 l 285 667 l 285 860 l 121 860 l 121 667 l 4 667 l 4 533 l 121 533 l 121 408 l 17 408 l 17 304 l 121 304 l 121 222 b 130 131 121 190 124 159 b 163 56 136 103 147 78 b 229 5 179 34 201 17 b 338 -14 257 -8 293 -14 b 396 -9 356 -14 375 -12 b 449 4 416 -6 434 -1 l 443 135 b 408 124 433 130 421 127 b 372 121 395 122 383 121 b 301 150 335 121 311 131 b 285 224 290 169 285 194 l 285 304 z "},"Ũ":{"ha":992,"x_min":0,"x_max":0,"o":"m 892 361 l 892 983 l 717 983 l 717 368 b 706 283 717 339 713 311 b 669 207 698 254 686 229 b 601 153 652 185 629 167 b 496 132 572 139 538 132 b 391 153 454 132 419 139 b 323 207 363 167 340 185 b 286 283 306 229 294 254 b 275 368 279 311 275 339 l 275 983 l 100 983 l 100 361 b 130 201 100 302 110 248 b 213 79 150 153 178 113 b 339 2 249 46 291 20 b 496 -25 387 -16 439 -25 b 653 2 552 -25 605 -16 b 778 79 701 20 743 46 b 861 201 813 113 841 153 b 892 361 881 248 892 302 z m 246 1067 l 338 1067 b 359 1108 342 1082 349 1096 b 401 1126 369 1120 383 1126 b 440 1119 413 1126 425 1124 b 488 1101 455 1115 471 1109 b 543 1082 505 1094 524 1088 b 601 1074 563 1076 582 1074 b 667 1089 627 1074 649 1079 b 713 1128 685 1099 700 1112 b 741 1185 725 1145 734 1163 b 757 1250 748 1206 753 1228 l 665 1250 b 644 1209 661 1234 653 1221 b 601 1192 634 1197 620 1192 b 562 1199 590 1192 577 1194 b 511 1218 547 1204 530 1211 b 458 1236 494 1225 477 1231 b 401 1243 439 1241 420 1243 b 335 1228 375 1243 353 1238 b 290 1188 317 1218 302 1204 b 262 1132 278 1172 269 1153 b 246 1067 255 1111 250 1089 z "},"ũ":{"ha":808,"x_min":0,"x_max":0,"o":"m 708 0 l 708 667 l 542 667 l 542 300 b 532 234 542 278 538 256 b 503 176 525 212 516 193 b 455 135 491 160 475 146 b 386 119 435 125 412 119 b 322 136 359 119 338 125 b 283 178 305 147 293 161 b 265 236 274 196 268 215 b 261 297 263 257 261 278 l 261 667 l 94 667 l 94 250 b 108 150 94 216 99 182 b 152 64 118 118 132 89 b 228 3 172 39 197 19 b 340 -19 259 -12 297 -19 b 470 19 390 -19 434 -7 b 547 107 507 44 532 74 l 550 107 l 550 0 z m 149 789 l 240 789 b 262 831 245 805 252 819 b 304 849 272 843 286 849 b 343 842 315 849 328 846 b 390 824 358 837 374 831 b 446 804 408 816 426 810 b 504 796 465 799 485 796 b 570 811 530 796 552 801 b 615 851 588 821 603 834 b 644 907 627 867 637 886 b 660 972 651 928 656 950 l 568 972 b 547 931 563 956 556 943 b 504 914 537 920 523 914 b 465 922 493 914 480 916 b 414 940 449 927 432 933 b 360 958 397 948 379 954 b 304 965 341 963 323 965 b 238 950 278 965 256 960 b 193 910 220 940 205 927 b 165 854 181 894 172 875 b 149 789 158 833 152 811 z "},"Ū":{"ha":992,"x_min":0,"x_max":0,"o":"m 892 361 l 892 983 l 717 983 l 717 368 b 706 283 717 339 713 311 b 669 207 698 254 686 229 b 601 153 652 185 629 167 b 496 132 572 139 538 132 b 391 153 454 132 419 139 b 323 207 363 167 340 185 b 286 283 306 229 294 254 b 275 368 279 311 275 339 l 275 983 l 100 983 l 100 361 b 130 201 100 302 110 248 b 213 79 150 153 178 113 b 339 2 249 46 291 20 b 496 -25 387 -16 439 -25 b 653 2 552 -25 605 -16 b 778 79 701 20 743 46 b 861 201 813 113 841 153 b 892 361 881 248 892 302 z m 724 1104 l 724 1213 l 279 1213 l 279 1104 z "},"ū":{"ha":808,"x_min":0,"x_max":0,"o":"m 708 0 l 708 667 l 542 667 l 542 300 b 532 234 542 278 538 256 b 503 176 525 212 516 193 b 455 135 491 160 475 146 b 386 119 435 125 412 119 b 322 136 359 119 338 125 b 283 178 305 147 293 161 b 265 236 274 196 268 215 b 261 297 263 257 261 278 l 261 667 l 94 667 l 94 250 b 108 150 94 216 99 182 b 152 64 118 118 132 89 b 228 3 172 39 197 19 b 340 -19 259 -12 297 -19 b 470 19 390 -19 434 -7 b 547 107 507 44 532 74 l 550 107 l 550 0 z m 625 826 l 625 935 l 181 935 l 181 826 z "},"Ŭ":{"ha":992,"x_min":0,"x_max":0,"o":"m 892 361 l 892 983 l 717 983 l 717 368 b 706 283 717 339 713 311 b 669 207 698 254 686 229 b 601 153 652 185 629 167 b 496 132 572 139 538 132 b 391 153 454 132 419 139 b 323 207 363 167 340 185 b 286 283 306 229 294 254 b 275 368 279 311 275 339 l 275 983 l 100 983 l 100 361 b 130 201 100 302 110 248 b 213 79 150 153 178 113 b 339 2 249 46 291 20 b 496 -25 387 -16 439 -25 b 653 2 552 -25 605 -16 b 778 79 701 20 743 46 b 861 201 813 113 841 153 b 892 361 881 248 892 302 z m 351 1261 l 258 1261 b 329 1109 263 1192 287 1141 b 493 1061 372 1077 426 1061 b 656 1110 560 1061 614 1077 b 731 1261 698 1142 723 1193 l 639 1261 b 589 1186 629 1222 612 1197 b 494 1169 566 1175 534 1169 b 401 1189 459 1169 428 1176 b 351 1261 375 1202 358 1226 z "},"ŭ":{"ha":808,"x_min":0,"x_max":0,"o":"m 708 0 l 708 667 l 542 667 l 542 300 b 532 234 542 278 538 256 b 503 176 525 212 516 193 b 455 135 491 160 475 146 b 386 119 435 125 412 119 b 322 136 359 119 338 125 b 283 178 305 147 293 161 b 265 236 274 196 268 215 b 261 297 263 257 261 278 l 261 667 l 94 667 l 94 250 b 108 150 94 216 99 182 b 152 64 118 118 132 89 b 228 3 172 39 197 19 b 340 -19 259 -12 297 -19 b 470 19 390 -19 434 -7 b 547 107 507 44 532 74 l 550 107 l 550 0 z m 258 983 l 165 983 b 236 831 170 914 194 863 b 400 783 279 799 333 783 b 563 832 467 783 521 800 b 638 983 605 864 630 915 l 546 983 b 496 908 536 944 519 919 b 401 892 473 897 441 892 b 308 911 366 892 335 898 b 258 983 281 924 265 948 z "},"Ů":{"ha":992,"x_min":0,"x_max":0,"o":"m 892 361 l 892 983 l 717 983 l 717 368 b 706 283 717 339 713 311 b 669 207 698 254 686 229 b 601 153 652 185 629 167 b 496 132 572 139 538 132 b 391 153 454 132 419 139 b 323 207 363 167 340 185 b 286 283 306 229 294 254 b 275 368 279 311 275 339 l 275 983 l 100 983 l 100 361 b 130 201 100 302 110 248 b 213 79 150 153 178 113 b 339 2 249 46 291 20 b 496 -25 387 -16 439 -25 b 653 2 552 -25 605 -16 b 778 79 701 20 743 46 b 861 201 813 113 841 153 b 892 361 881 248 892 302 z m 647 1188 b 606 1290 647 1229 633 1263 b 501 1329 578 1316 543 1329 b 443 1318 480 1329 461 1325 b 397 1288 425 1311 410 1301 b 367 1243 384 1276 374 1261 b 356 1186 359 1225 356 1206 b 397 1085 356 1145 369 1112 b 501 1046 425 1059 460 1046 b 606 1085 543 1046 578 1059 b 647 1188 633 1112 647 1146 z m 583 1188 b 560 1131 583 1164 575 1145 b 501 1108 544 1116 525 1108 b 443 1131 478 1108 459 1116 b 419 1186 427 1145 419 1164 b 442 1244 419 1209 427 1228 b 501 1267 458 1259 477 1267 b 560 1244 525 1267 544 1259 b 583 1188 575 1230 583 1211 z "},"ů":{"ha":808,"x_min":0,"x_max":0,"o":"m 708 0 l 708 667 l 542 667 l 542 300 b 532 234 542 278 538 256 b 503 176 525 212 516 193 b 455 135 491 160 475 146 b 386 119 435 125 412 119 b 322 136 359 119 338 125 b 283 178 305 147 293 161 b 265 236 274 196 268 215 b 261 297 263 257 261 278 l 261 667 l 94 667 l 94 250 b 108 150 94 216 99 182 b 152 64 118 118 132 89 b 228 3 172 39 197 19 b 340 -19 259 -12 297 -19 b 470 19 390 -19 434 -7 b 547 107 507 44 532 74 l 550 107 l 550 0 z m 546 910 b 504 1012 546 951 532 985 b 400 1051 476 1038 442 1051 b 342 1040 379 1051 359 1048 b 296 1010 324 1033 309 1023 b 265 965 283 998 273 983 b 254 908 258 948 254 929 b 296 808 254 868 268 834 b 400 768 324 781 358 768 b 504 808 442 768 476 781 b 546 910 532 834 546 868 z m 482 910 b 458 853 482 887 474 868 b 400 831 443 838 423 831 b 342 853 377 831 357 838 b 318 908 326 868 318 886 b 341 966 318 931 326 951 b 400 989 356 981 376 989 b 458 967 423 989 443 981 b 482 910 474 952 482 933 z "},"Ű":{"ha":992,"x_min":0,"x_max":0,"o":"m 892 361 l 892 983 l 717 983 l 717 368 b 706 283 717 339 713 311 b 669 207 698 254 686 229 b 601 153 652 185 629 167 b 496 132 572 139 538 132 b 391 153 454 132 419 139 b 323 207 363 167 340 185 b 286 283 306 229 294 254 b 275 368 279 311 275 339 l 275 983 l 100 983 l 100 361 b 130 201 100 302 110 248 b 213 79 150 153 178 113 b 339 2 249 46 291 20 b 496 -25 387 -16 439 -25 b 653 2 552 -25 605 -16 b 778 79 701 20 743 46 b 861 201 813 113 841 153 b 892 361 881 248 892 302 z m 419 1261 l 282 1061 l 413 1061 l 608 1261 z m 704 1261 l 567 1061 l 697 1061 l 893 1261 z "},"ű":{"ha":808,"x_min":0,"x_max":0,"o":"m 708 0 l 708 667 l 542 667 l 542 300 b 532 234 542 278 538 256 b 503 176 525 212 516 193 b 455 135 491 160 475 146 b 386 119 435 125 412 119 b 322 136 359 119 338 125 b 283 178 305 147 293 161 b 265 236 274 196 268 215 b 261 297 263 257 261 278 l 261 667 l 94 667 l 94 250 b 108 150 94 216 99 182 b 152 64 118 118 132 89 b 228 3 172 39 197 19 b 340 -19 259 -12 297 -19 b 470 19 390 -19 434 -7 b 547 107 507 44 532 74 l 550 107 l 550 0 z m 324 983 l 186 783 l 317 783 l 513 983 z m 608 983 l 471 783 l 601 783 l 797 983 z "},"Ų":{"ha":992,"x_min":0,"x_max":0,"o":"m 656 -272 l 621 -204 b 585 -225 611 -212 599 -219 b 546 -233 572 -231 559 -233 b 501 -215 528 -233 513 -227 b 482 -169 488 -202 482 -187 b 490 -131 482 -157 484 -145 b 509 -92 495 -118 501 -105 b 536 -53 517 -79 526 -66 b 567 -19 546 -41 556 -30 b 697 22 614 -13 657 1 b 800 101 737 42 771 69 b 867 216 829 134 851 172 b 892 361 884 260 892 308 l 892 983 l 717 983 l 717 368 b 706 283 717 339 713 311 b 669 207 698 254 686 229 b 601 153 652 185 629 167 b 496 132 572 139 538 132 b 391 153 454 132 419 139 b 323 207 363 167 340 185 b 286 283 306 229 294 254 b 275 368 279 311 275 339 l 275 983 l 100 983 l 100 361 b 128 206 100 304 109 252 b 207 86 147 159 174 119 b 325 8 240 53 280 27 b 474 -24 370 -10 420 -21 b 404 -107 448 -48 425 -75 b 374 -201 384 -138 374 -170 b 385 -255 374 -222 378 -240 b 417 -294 393 -270 404 -283 b 463 -317 431 -304 446 -312 b 517 -325 480 -322 498 -325 b 591 -310 543 -325 567 -320 b 656 -272 615 -301 636 -288 z "},"ų":{"ha":808,"x_min":0,"x_max":0,"o":"m 697 -272 l 663 -204 b 627 -225 652 -212 641 -219 b 588 -233 614 -231 600 -233 b 542 -215 570 -233 555 -227 b 524 -169 530 -202 524 -187 b 534 -125 524 -156 527 -141 b 560 -78 541 -109 550 -94 b 594 -35 571 -63 582 -49 b 629 0 606 -22 618 -10 l 708 0 l 708 667 l 542 667 l 542 300 b 532 234 542 278 538 256 b 503 176 525 212 516 193 b 455 135 491 160 475 146 b 386 119 435 125 412 119 b 322 136 359 119 338 125 b 283 178 305 147 293 161 b 265 236 274 196 268 215 b 261 297 263 257 261 278 l 261 667 l 94 667 l 94 250 b 108 150 94 216 99 182 b 152 64 118 118 132 89 b 228 3 172 39 197 19 b 340 -19 259 -12 297 -19 b 470 19 390 -19 434 -7 b 547 107 507 44 532 74 l 550 107 l 550 6 b 504 -35 535 -6 520 -19 b 460 -85 488 -50 474 -67 b 428 -142 447 -103 436 -122 b 415 -201 419 -162 415 -182 b 427 -255 415 -222 419 -240 b 459 -294 435 -270 446 -283 b 505 -317 472 -304 488 -312 b 558 -325 522 -322 540 -325 b 633 -310 584 -325 609 -320 b 697 -272 656 -301 678 -288 z "},"Ŵ":{"ha":1394,"x_min":0,"x_max":0,"o":"m 8 983 l 296 0 l 465 0 l 696 738 l 699 738 l 929 0 l 1099 0 l 1386 983 l 1200 983 l 1006 261 l 1003 261 l 790 983 l 610 983 l 393 261 l 390 261 l 200 983 z m 793 1061 l 951 1061 l 793 1261 l 606 1261 l 446 1061 l 601 1061 l 697 1186 z "},"ŵ":{"ha":1117,"x_min":0,"x_max":0,"o":"m 6 667 l 238 0 l 407 0 l 557 467 l 560 467 l 711 0 l 881 0 l 1111 667 l 938 667 l 796 189 l 793 189 l 649 667 l 471 667 l 328 189 l 325 189 l 186 667 z m 656 783 l 814 783 l 656 983 l 468 983 l 308 783 l 464 783 l 560 908 z "},"Ŷ":{"ha":864,"x_min":0,"x_max":0,"o":"m 346 426 l 346 0 l 521 0 l 521 426 l 890 983 l 688 983 l 438 569 l 190 983 l -24 983 z m 532 1061 l 690 1061 l 532 1261 l 344 1261 l 185 1061 l 340 1061 l 436 1186 z "},"ŷ":{"ha":713,"x_min":0,"x_max":0,"o":"m 0 667 l 286 0 l 253 -85 b 232 -131 245 -102 238 -118 b 210 -163 225 -144 218 -154 b 179 -183 201 -172 191 -178 b 135 -189 167 -187 152 -189 b 105 -187 125 -189 116 -188 b 72 -179 94 -185 83 -183 l 58 -324 b 102 -331 73 -327 88 -330 b 144 -333 116 -333 131 -333 b 240 -321 181 -333 213 -329 b 308 -284 266 -312 289 -300 b 358 -224 328 -268 344 -248 b 397 -143 372 -201 385 -174 l 713 667 l 539 667 l 374 182 l 371 182 l 185 667 z m 464 783 l 622 783 l 464 983 l 276 983 l 117 783 l 272 783 l 368 908 z "},"Ź":{"ha":849,"x_min":0,"x_max":0,"o":"m 49 158 l 49 0 l 800 0 l 800 156 l 254 156 l 792 825 l 792 983 l 57 983 l 57 831 l 583 831 z m 463 1261 l 325 1061 l 456 1061 l 651 1261 z "},"ź":{"ha":669,"x_min":0,"x_max":0,"o":"m 47 147 l 47 0 l 622 0 l 622 136 l 244 136 l 606 519 l 606 667 l 64 667 l 64 533 l 407 533 z m 379 983 l 242 783 l 372 783 l 568 983 z "},"Ż":{"ha":849,"x_min":0,"x_max":0,"o":"m 49 158 l 49 0 l 800 0 l 800 156 l 254 156 l 792 825 l 792 983 l 57 983 l 57 831 l 583 831 z m 322 1171 b 352 1101 322 1144 332 1121 b 428 1071 372 1081 397 1071 b 505 1099 458 1071 484 1080 b 536 1171 526 1118 536 1142 b 505 1242 536 1200 526 1223 b 428 1271 484 1261 458 1271 b 352 1241 397 1271 372 1261 b 322 1171 332 1221 322 1198 z "},"ż":{"ha":669,"x_min":0,"x_max":0,"o":"m 47 147 l 47 0 l 622 0 l 622 136 l 244 136 l 606 519 l 606 667 l 64 667 l 64 533 l 407 533 z m 231 893 b 260 823 231 866 241 843 b 336 793 280 803 306 793 b 413 822 367 793 392 803 b 444 893 434 841 444 864 b 413 965 444 922 434 946 b 336 993 392 984 367 993 b 260 963 306 993 280 983 b 231 893 241 943 231 920 z "},"ƒ":{"ha":847,"x_min":0,"x_max":0,"o":"m 667 467 l 667 592 l 497 592 l 522 708 b 534 758 526 725 530 742 b 553 803 538 775 544 790 b 585 837 561 817 572 828 b 635 850 598 846 614 850 b 711 828 661 850 686 843 l 775 957 b 697 989 749 971 723 981 b 613 1000 670 996 642 1000 b 509 980 572 1000 537 993 b 438 925 481 966 457 948 b 390 844 418 902 402 875 b 363 746 378 813 369 780 l 332 592 l 150 592 l 150 467 l 307 467 l 233 93 b 199 -10 225 51 213 17 b 122 -51 184 -38 158 -51 b 88 -47 111 -51 100 -50 b 57 -32 77 -43 66 -38 l -6 -160 b 63 -185 16 -171 39 -179 b 136 -193 88 -190 112 -193 b 307 -130 208 -193 265 -172 b 396 67 349 -88 378 -22 l 475 467 z "},"Ș":{"ha":797,"x_min":0,"x_max":0,"o":"m 610 778 l 724 903 b 590 982 686 938 641 964 b 438 1008 538 1000 488 1008 b 306 991 393 1008 349 1003 b 191 938 263 979 225 962 b 109 849 157 915 130 885 b 78 719 88 813 78 769 b 100 603 78 673 85 634 b 158 525 115 572 134 546 b 238 474 181 504 208 487 b 326 440 267 461 297 450 l 414 411 b 486 378 442 402 466 391 b 535 334 506 366 523 351 b 553 269 547 317 553 295 b 537 202 553 243 547 220 b 495 157 526 184 512 169 b 438 131 478 145 459 136 b 375 124 416 126 395 124 b 256 153 336 124 297 133 b 160 232 216 172 184 199 l 35 115 b 185 10 74 69 124 34 b 372 -25 246 -13 308 -25 b 510 -6 420 -25 466 -19 b 624 53 553 7 591 27 b 701 151 656 79 682 111 b 731 289 721 190 731 236 b 703 410 731 337 722 377 b 634 490 685 442 662 469 b 541 542 606 512 575 529 b 443 576 507 555 475 566 b 367 601 415 585 390 593 b 308 631 344 610 324 619 b 269 671 291 642 279 655 b 256 728 260 687 256 706 b 272 790 256 752 261 772 b 313 831 282 807 296 821 b 368 855 329 842 348 850 b 429 863 388 860 409 863 b 531 838 463 863 497 854 b 610 778 565 822 591 802 z m 336 -62 l 246 -333 l 372 -333 l 483 -62 z "},"ș":{"ha":617,"x_min":0,"x_max":0,"o":"m 465 489 l 574 585 b 465 661 547 619 510 644 b 324 686 419 678 372 686 b 226 674 290 686 258 682 b 142 635 195 665 167 653 b 81 569 117 618 97 596 b 58 474 66 543 58 511 b 75 394 58 442 64 416 b 119 341 86 373 101 355 b 183 306 138 327 159 315 b 256 285 206 297 231 290 b 370 249 306 273 345 261 b 408 189 396 237 408 217 b 399 151 408 174 405 162 b 373 127 392 141 384 133 b 338 114 362 121 351 117 b 301 110 326 111 313 110 b 203 133 265 110 232 118 b 131 193 173 149 149 169 l 21 90 b 143 9 53 55 94 28 b 294 -19 192 -10 243 -19 b 399 -8 331 -19 366 -16 b 488 31 433 0 463 13 b 549 99 514 48 534 71 b 572 203 565 128 572 162 b 553 285 572 235 566 263 b 502 342 540 308 523 327 b 433 379 481 358 458 370 b 357 401 407 388 382 396 b 249 434 310 413 274 423 b 213 489 225 445 213 463 b 246 544 213 515 224 533 b 319 561 268 556 293 561 b 404 540 350 561 378 554 b 465 489 430 525 450 508 z m 253 -62 l 163 -333 l 289 -333 l 400 -62 z "},"Ț":{"ha":789,"x_min":0,"x_max":0,"o":"m 307 831 l 307 0 l 482 0 l 482 831 l 783 831 l 783 983 l 6 983 l 6 831 z m 339 -62 l 249 -333 l 375 -333 l 486 -62 z "},"ț":{"ha":472,"x_min":0,"x_max":0,"o":"m 4 533 l 121 533 l 121 222 b 130 131 121 190 124 159 b 163 56 136 103 147 78 b 229 5 179 34 201 17 b 338 -14 257 -8 293 -14 b 396 -9 356 -14 375 -12 b 449 4 416 -6 434 -1 l 443 135 b 408 124 433 130 421 127 b 372 121 395 122 383 121 b 301 150 335 121 311 131 b 285 224 290 169 285 194 l 285 533 l 451 533 l 451 667 l 285 667 l 285 860 l 121 860 l 121 667 l 4 667 z m 226 -62 l 136 -333 l 263 -333 l 374 -62 z "},"ˆ":{"ha":361,"x_min":0,"x_max":0,"o":"m 275 783 l 433 783 l 275 983 l 88 983 l -72 783 l 83 783 l 179 908 z "},"ˇ":{"ha":361,"x_min":0,"x_max":0,"o":"m 88 983 l -71 983 l 88 783 l 272 783 l 432 983 l 279 983 l 183 858 z "},"ˉ":{"ha":361,"x_min":0,"x_max":0,"o":"m 403 1104 l 403 1213 l -42 1213 l -42 1104 z "},"˘":{"ha":361,"x_min":0,"x_max":0,"o":"m 38 983 l -56 983 b 15 831 -51 914 -27 863 b 179 783 58 799 113 783 b 342 832 246 783 300 800 b 417 983 384 864 409 915 l 325 983 b 275 908 315 944 298 919 b 181 892 252 897 220 892 b 88 911 145 892 114 898 b 38 983 61 924 44 948 z "},"˙":{"ha":361,"x_min":0,"x_max":0,"o":"m 75 893 b 105 823 75 866 85 843 b 181 793 125 803 150 793 b 258 822 211 793 237 803 b 289 893 278 841 289 864 b 258 965 289 922 278 946 b 181 993 237 984 211 993 b 105 963 150 993 125 983 b 75 893 85 943 75 920 z "},"˚":{"ha":361,"x_min":0,"x_max":0,"o":"m 326 910 b 285 1012 326 951 313 985 b 181 1051 257 1038 222 1051 b 122 1040 159 1051 140 1048 b 76 1010 105 1033 89 1023 b 46 965 63 998 53 983 b 35 908 38 948 35 929 b 76 808 35 868 49 834 b 181 768 104 781 139 768 b 285 808 222 768 257 781 b 326 910 313 834 326 868 z m 263 910 b 239 853 263 887 255 868 b 181 831 223 838 204 831 b 122 853 157 831 138 838 b 99 908 106 868 99 886 b 122 966 99 931 106 951 b 181 989 137 981 156 989 b 239 967 204 989 223 981 b 263 910 255 952 263 933 z "},"˛":{"ha":361,"x_min":0,"x_max":0,"o":"m 281 -272 l 246 -204 b 210 -225 236 -212 224 -219 b 171 -233 197 -231 184 -233 b 126 -215 153 -233 138 -227 b 107 -169 113 -202 107 -187 b 119 -122 107 -155 111 -139 b 149 -72 127 -104 137 -88 b 186 -26 161 -55 173 -40 b 222 8 199 -12 211 -1 l 138 8 b 91 -33 123 -3 107 -16 b 46 -84 75 -49 60 -66 b 12 -142 32 -102 21 -121 b -1 -201 3 -162 -1 -182 b 10 -255 -1 -222 3 -240 b 42 -294 18 -270 29 -283 b 88 -317 56 -304 71 -312 b 142 -325 105 -322 123 -325 b 216 -310 168 -325 192 -320 b 281 -272 240 -301 261 -288 z "},"˜":{"ha":361,"x_min":0,"x_max":0,"o":"m -75 789 l 17 789 b 38 831 21 805 28 819 b 81 849 48 843 62 849 b 119 842 92 849 105 846 b 167 824 134 837 150 831 b 222 804 184 816 203 810 b 281 796 242 799 261 796 b 347 811 306 796 328 801 b 392 851 365 821 380 834 b 420 907 404 867 413 886 b 436 972 427 928 432 950 l 344 972 b 323 931 340 956 333 943 b 281 914 313 920 299 914 b 241 922 269 914 256 916 b 190 940 226 927 209 933 b 137 958 174 948 156 954 b 81 965 118 963 99 965 b 15 950 55 965 33 960 b -31 910 -3 940 -19 927 b -59 854 -43 894 -52 875 b -75 789 -66 833 -71 811 z "},"˝":{"ha":361,"x_min":0,"x_max":0,"o":"m 110 983 l -28 783 l 103 783 l 299 983 z m 394 983 l 257 783 l 388 783 l 583 983 z "},"–":{"ha":556,"x_min":0,"x_max":0,"o":"m 514 278 l 514 406 l 42 406 l 42 278 z "},"—":{"ha":833,"x_min":0,"x_max":0,"o":"m 792 278 l 792 406 l 42 406 l 42 278 z "},"‘":{"ha":375,"x_min":0,"x_max":0,"o":"m 219 617 l 317 983 l 176 983 l 58 617 z "},"’":{"ha":375,"x_min":0,"x_max":0,"o":"m 156 983 l 58 617 l 199 617 l 317 983 z "},"‚":{"ha":375,"x_min":0,"x_max":0,"o":"m 156 192 l 58 -175 l 199 -175 l 317 192 z "},"“":{"ha":646,"x_min":0,"x_max":0,"o":"m 219 617 l 317 983 l 176 983 l 58 617 z m 490 617 l 588 983 l 447 983 l 329 617 z "},"”":{"ha":646,"x_min":0,"x_max":0,"o":"m 426 983 l 329 617 l 469 617 l 588 983 z m 156 983 l 58 617 l 199 617 l 317 983 z "},"„":{"ha":646,"x_min":0,"x_max":0,"o":"m 426 192 l 329 -175 l 469 -175 l 588 192 z m 156 192 l 58 -175 l 199 -175 l 317 192 z "},"†":{"ha":824,"x_min":0,"x_max":0,"o":"m 490 701 l 490 983 l 332 983 l 332 701 l 57 701 l 57 568 l 332 568 l 332 -175 l 490 -175 l 490 568 l 767 568 l 767 701 z "},"‡":{"ha":824,"x_min":0,"x_max":0,"o":"m 490 726 l 490 983 l 332 983 l 332 726 l 65 726 l 65 593 l 332 593 l 332 217 l 65 217 l 65 83 l 332 83 l 332 -175 l 490 -175 l 490 83 l 758 83 l 758 217 l 490 217 l 490 593 l 758 593 l 758 726 z "},"•":{"ha":694,"x_min":0,"x_max":0,"o":"m 101 492 b 121 396 101 457 108 425 b 174 318 134 366 151 340 b 251 265 196 296 222 278 b 347 246 281 252 313 246 b 443 265 381 246 413 252 b 521 318 473 278 499 296 b 574 396 543 340 561 366 b 593 492 587 425 593 457 b 574 588 593 526 587 558 b 521 665 561 617 543 643 b 443 718 499 688 473 705 b 347 738 413 731 381 738 b 251 718 313 738 281 731 b 174 665 222 705 196 688 b 121 588 151 643 134 617 b 101 492 108 558 101 526 z "}}}
